<svg width="272" height="163" viewBox="0 0 272 163" fill="none" xmlns="http://www.w3.org/2000/svg">
<path opacity="0.1" d="M144.043 1.28956L142.926 66.1052C142.926 66.1052 183.375 66.1053 217.789 77.2794L218.461 11.7832C218.461 11.7832 163.262 -1.39105 144.043 1.28956Z" fill="black"/>
<path d="M143.457 0.409675L142.339 65.2254C142.339 65.2254 182.789 65.2254 217.203 76.3995L217.875 10.9034C217.875 10.9034 162.676 -2.27094 143.457 0.409675Z" fill="#F5F5FB"/>
<path opacity="0.1" d="M126.816 1.23933L127.933 66.055C127.933 66.055 87.4835 66.055 53.0696 77.2291L52.3979 11.7506C52.3979 11.7506 107.597 -1.44128 126.816 1.23933Z" fill="black"/>
<path d="M127.402 0.359449L128.52 65.1751C128.52 65.1751 88.0699 65.1751 53.656 76.3493L52.9844 10.8707C52.9844 10.8707 108.183 -2.32116 127.402 0.359449Z" fill="#F5F5FB"/>
<path opacity="0.1" d="M228.225 21.0244V85.1626C228.225 85.1626 241.422 83.5994 269.12 117.79L271.581 53.6522C271.581 53.6522 242.751 22.5905 228.225 21.0244Z" fill="black"/>
<path d="M227.638 20.4375V84.5757C227.638 84.5757 240.836 83.0125 268.534 117.204L270.994 53.0653C270.994 53.0653 242.165 22.0036 227.638 20.4375Z" fill="#F5F5FB"/>
<path opacity="0.1" d="M43.3532 22.9277V87.0689C43.3532 87.0689 30.1554 85.5057 2.45772 119.697L0 55.5585C0 55.5585 28.8269 24.4968 43.3532 22.9277Z" fill="black"/>
<path d="M43.9396 22.0479V86.189C43.9396 86.189 30.7419 84.6258 3.04414 118.817L0.586426 54.6786C0.586426 54.6786 29.4133 23.6169 43.9396 22.0479Z" fill="#F5F5FB"/>
<path d="M192.341 130.202C192.341 132.387 178.466 145.013 146.882 145.013C115.299 145.013 98.1973 132.827 98.1973 130.642C98.1973 128.457 115.885 133.869 147.469 133.869C179.053 133.869 192.341 128.015 192.341 130.202Z" fill="#F7F7FD"/>
<path opacity="0.1" d="M140.439 161.938C144.163 161.938 147.181 161.601 147.181 161.184C147.181 160.768 144.163 160.431 140.439 160.431C136.715 160.431 133.696 160.768 133.696 161.184C133.696 161.601 136.715 161.938 140.439 161.938Z" fill="#C02F33"/>
<path opacity="0.1" d="M236.929 123.225C240.653 123.225 243.672 122.888 243.672 122.472C243.672 122.055 240.653 121.718 236.929 121.718C233.205 121.718 230.187 122.055 230.187 122.472C230.187 122.888 233.205 123.225 236.929 123.225Z" fill="#C02F33"/>
<g opacity="0.1">
<path opacity="0.1" d="M145.633 82.6053C170.273 82.6053 190.248 73.6908 190.248 62.6942C190.248 51.6977 170.273 42.7832 145.633 42.7832C120.994 42.7832 101.019 51.6977 101.019 62.6942C101.019 73.6908 120.994 82.6053 145.633 82.6053Z" fill="black"/>
<path opacity="0.1" d="M191.022 69.8118C189.048 80.1941 169.545 88.3444 145.771 88.3444C121.789 88.3444 102.151 80.0503 100.467 69.542H100.3V86.4615C108.143 94.6559 125.505 100.354 145.66 100.354C165.814 100.354 183.176 94.6559 191.022 86.4615V69.8118Z" fill="black"/>
<path opacity="0.1" d="M191.022 90.4007C189.048 100.78 169.545 108.933 145.771 108.933C121.789 108.933 102.151 100.639 100.467 90.1279H100.3V107.05C108.143 115.245 125.505 120.94 145.66 120.94C165.814 120.94 183.176 115.245 191.022 107.05V90.4007Z" fill="black"/>
<path opacity="0.1" d="M191.022 113.045C189.048 123.427 169.545 131.578 145.771 131.578C121.789 131.578 102.151 123.287 100.467 112.775H100.3V131.024C100.3 131.412 100.379 131.797 100.535 132.153C100.69 132.51 100.918 132.83 101.204 133.094C109.416 140.634 126.247 143.588 145.66 143.588C165.072 143.588 181.895 140.634 190.118 133.094C190.404 132.83 190.632 132.51 190.787 132.153C190.943 131.797 191.022 131.412 191.022 131.024V113.045Z" fill="black"/>
</g>
<path d="M145.633 81.4324C170.273 81.4324 190.247 72.5179 190.247 61.5214C190.247 50.5248 170.273 41.6104 145.633 41.6104C120.993 41.6104 101.019 50.5248 101.019 61.5214C101.019 72.5179 120.993 81.4324 145.633 81.4324Z" fill="#C02F33"/>
<path d="M191.021 68.639C189.047 79.0212 169.544 87.1716 145.771 87.1716C121.789 87.1716 102.15 78.8775 100.467 68.3691H100.3V85.2887C108.142 93.483 125.505 99.1815 145.659 99.1815C165.814 99.1815 183.176 93.483 191.021 85.2887V68.639Z" fill="#C02F33"/>
<path d="M191.021 89.2278C189.047 99.6071 169.544 107.76 145.771 107.76C121.789 107.76 102.15 99.4664 100.467 88.9551H100.3V105.878C108.142 114.072 125.505 119.767 145.659 119.767C165.814 119.767 183.176 114.072 191.021 105.878V89.2278Z" fill="#C02F33"/>
<path d="M191.021 111.871C189.047 122.254 169.544 130.404 145.771 130.404C121.789 130.404 102.15 122.113 100.467 111.602H100.3V129.85C100.299 130.238 100.379 130.623 100.534 130.98C100.69 131.336 100.918 131.656 101.203 131.92C109.415 139.461 126.247 142.414 145.659 142.414C165.072 142.414 181.894 139.461 190.118 131.92C190.403 131.656 190.631 131.336 190.787 130.98C190.942 130.623 191.022 130.238 191.021 129.85V111.871Z" fill="#C02F33"/>
<path opacity="0.1" d="M211.396 163C220.629 163 228.113 161.652 228.113 159.991C228.113 158.329 220.629 156.981 211.396 156.981C202.163 156.981 194.679 158.329 194.679 159.991C194.679 161.652 202.163 163 211.396 163Z" fill="#C02F33"/>
<path d="M202.011 121.65C202.855 122.148 204.181 122.474 205.85 121.4L205.835 123.779C205.952 125.41 207.97 131.354 207.97 131.354L209.393 136.243C210.413 139.699 210.94 143.281 210.956 146.884C210.956 148.075 211.067 149.306 211.41 150.233C212.17 152.286 211.117 154.926 210.657 155.899C209.886 156.16 209.103 156.38 208.31 156.559C208.24 156.576 208.17 156.598 208.102 156.624V156.609C208.102 156.609 205.967 157.457 205.017 157.339C204.31 157.254 203.867 158.137 204.43 158.785C203.971 158.926 203.491 158.989 203.011 158.973C202.06 158.856 201.585 160.486 203.366 160.953C205.146 161.419 215.232 160.953 215.232 160.953C215.515 160.811 215.743 160.579 215.88 160.293C216.017 160.008 216.055 159.684 215.989 159.375L217.25 159.322C217.25 159.322 219.03 158.507 217.25 156.292L217.153 156.363L216.775 155.242V153.732C216.775 153.732 219.03 142.88 218.317 141.611C217.604 140.341 217.226 133.789 217.226 133.789L217.475 126.691C218.118 125.366 218.446 123.283 218.613 121.656C218.856 120.88 219.009 120.079 219.068 119.268C219.097 118.884 219.121 118.485 219.135 118.069C219.145 117.155 218.998 116.246 218.701 115.382C219.506 114.188 220.406 113.06 221.391 112.009C221.8 111.628 222.112 111.154 222.298 110.626C222.485 110.099 222.541 109.534 222.461 108.98L221.875 105.018L220.449 98.272C220.628 96.3979 220.238 95.3187 219.804 94.7086C219.907 94.1015 220.004 93.4974 220.077 92.8873C220.391 90.2434 220.25 87.5652 219.66 84.9687C219.455 84.0654 219.174 83.1357 218.537 82.4494C217.819 81.6692 216.651 81.1971 216.382 80.1794C216.343 79.9199 216.289 79.6633 216.217 79.411C215.956 78.7452 215.135 78.5018 214.414 78.4138C213.129 78.2584 211.273 78.141 210.038 78.6455C208.954 79.1246 208.062 79.9526 207.504 80.9976C207.226 81.427 207.121 81.9458 207.211 82.4494C207.254 82.6242 207.323 82.792 207.413 82.948C207.002 84.0623 207.047 85.2937 207.537 86.3752C208.028 87.4568 208.926 88.3013 210.035 88.7256C210.064 88.8166 210.091 88.9046 210.111 88.9896C210.165 89.1987 210.205 89.4114 210.228 89.626C210.205 90.0366 210.179 90.4502 210.161 90.8637L210.117 91.0309C209.096 91.4829 208.1 91.99 207.134 92.5501C207.844 93.6 207.014 98.0286 207.014 98.0286C205.234 99.0756 203.456 101.756 205.354 104.554C207.252 107.352 206.184 110.379 206.184 110.379L205.891 114.936L205.832 115.849H205.853L205.832 116.195H205.882V116.567C205.049 116.875 203.829 117.491 203.105 118.635C202.761 119.196 202.344 119.708 201.864 120.157C201.752 120.253 201.665 120.374 201.61 120.511C201.555 120.647 201.534 120.795 201.548 120.941C201.563 121.088 201.612 121.229 201.693 121.352C201.773 121.475 201.882 121.578 202.011 121.65V121.65ZM216.338 109.543C216.266 108.754 216.412 107.961 216.76 107.249H217.599C217.623 107.435 217.658 107.619 217.701 107.801C217.942 108.842 216.98 109.332 216.338 109.543V109.543Z" fill="url(#paint0_linear)"/>
<path d="M216.572 154.709L217.03 156.079L215.546 157.563L210.636 158.718L207.096 158.375L207.325 157.12C207.392 156.85 207.533 156.603 207.731 156.408C207.929 156.212 208.177 156.075 208.448 156.011C209.915 155.671 212.677 154.891 213.261 153.809L216.572 154.709Z" fill="#DB8B8B"/>
<path opacity="0.1" d="M216.572 154.709L217.03 156.079L215.546 157.563L210.636 158.718L207.096 158.375L207.325 157.12C207.392 156.85 207.533 156.603 207.731 156.408C207.929 156.212 208.177 156.075 208.448 156.011C209.915 155.671 212.677 154.891 213.261 153.809L216.572 154.709Z" fill="black"/>
<path d="M208.237 158.02L208.923 157.108L208.237 156.049C208.237 156.049 206.184 156.879 205.269 156.765C204.354 156.65 203.899 158.249 205.612 158.706C207.325 159.164 217.03 158.706 217.03 158.706C217.03 158.706 218.742 157.906 217.03 155.735L215.546 156.879C215.546 156.879 213.032 158.249 211.777 158.02H208.237Z" fill="#C17174"/>
<path d="M205.158 159.962L208.698 160.305L213.607 159.161L215.091 157.677L214.971 157.317L214.801 156.806L214.634 156.308L211.317 155.396C211.148 155.669 210.918 155.899 210.645 156.067C209.569 156.803 207.639 157.334 206.504 157.598C206.456 157.61 206.409 157.624 206.363 157.642C206.142 157.712 205.941 157.834 205.777 157.997C205.578 158.191 205.438 158.437 205.372 158.707L205.158 159.962Z" fill="#DB8B8B"/>
<path opacity="0.1" d="M205.158 159.962L208.698 160.305L213.607 159.161L215.091 157.677L214.971 157.316L213.607 158.363C213.607 158.363 211.094 159.733 209.839 159.504H206.296L206.982 158.592L206.366 157.642C206.145 157.712 205.944 157.834 205.779 157.997C205.581 158.191 205.441 158.437 205.375 158.707L205.158 159.962Z" fill="black"/>
<path d="M206.296 159.619L206.982 158.707L206.296 157.648C206.296 157.648 204.243 158.478 203.327 158.363C202.412 158.249 201.958 159.847 203.671 160.305C205.383 160.762 215.088 160.305 215.088 160.305C215.088 160.305 216.801 159.504 215.088 157.337L213.604 158.478C213.604 158.478 211.091 159.847 209.835 159.619H206.296Z" fill="#C17174"/>
<path d="M209.149 93.3952C209.149 93.3952 214.631 93.9817 213.842 91.6824C213.617 91.0348 213.558 90.3408 213.672 89.6646C213.813 88.8275 214.144 88.0339 214.64 87.3447L209.501 88.1424C209.81 88.6574 210.045 89.2133 210.199 89.7936C210.801 92.2162 209.149 93.3952 209.149 93.3952Z" fill="#DB8B8B"/>
<path d="M218.514 119.418C218.514 119.418 218.4 124.328 217.259 126.727L217.03 133.692C217.03 133.692 217.37 140.086 218.056 141.341C218.743 142.596 216.572 153.216 216.572 153.216V155.043C216.572 155.043 212.918 156.413 211.88 154.814L212.906 141.227L212.449 122.389L218.514 119.418Z" fill="#474463"/>
<path opacity="0.1" d="M218.514 119.418C218.514 119.418 218.4 124.328 217.259 126.727L217.03 133.692C217.03 133.692 217.37 140.086 218.056 141.341C218.743 142.596 216.572 153.216 216.572 153.216V155.043C216.572 155.043 212.918 156.413 211.88 154.814L212.906 141.227L212.449 122.389L218.514 119.418Z" fill="black"/>
<path d="M220.796 103.672L221.482 105.499L222.068 109.379C222.145 109.921 222.091 110.472 221.912 110.989C221.733 111.505 221.434 111.972 221.039 112.35C219.669 113.72 217.842 116.573 217.842 116.573L215.675 110.065C215.675 110.065 217.842 109.722 217.499 108.238C217.156 106.754 217.273 104.015 217.273 104.015L220.796 103.672Z" fill="#FF748E"/>
<path opacity="0.05" d="M220.822 103.646L221.505 105.473L222.092 109.356C222.169 109.896 222.117 110.448 221.938 110.964C221.76 111.48 221.46 111.946 221.065 112.324C219.693 113.693 217.869 116.55 217.869 116.55L215.684 110.033C215.684 110.033 217.854 109.69 217.511 108.206C217.168 106.722 217.282 103.98 217.282 103.98L220.822 103.646Z" fill="black"/>
<path opacity="0.1" d="M210.648 156.079C212.114 158.384 214.393 157.076 214.798 156.818L214.631 156.319L211.317 155.396C211.151 155.673 210.922 155.907 210.648 156.079V156.079Z" fill="black"/>
<path d="M206.067 123.882C206.181 125.48 208.12 131.302 208.12 131.302L209.49 136.094C210.469 139.483 210.976 142.99 210.994 146.517C210.96 147.628 211.107 148.736 211.431 149.799C212.346 152.313 210.519 155.735 210.519 155.735C212.117 158.592 214.857 156.65 214.857 156.65V154.823C214.857 154.823 217.027 144.89 216.455 142.948C215.883 141.007 215.657 135.757 215.657 135.757V126.278C217.486 124.455 218.597 122.036 218.79 119.462C218.816 119.087 218.839 118.694 218.854 118.289C218.945 115.714 217.182 112.693 216.508 111.617C216.344 111.356 216.238 111.209 216.238 111.209L206.158 115.209H206.134V115.605V116.468L206.067 123.882Z" fill="#474463"/>
<path opacity="0.1" d="M209.493 88.1424C209.802 88.6574 210.036 89.2133 210.191 89.7936C210.749 90.0054 211.344 90.1031 211.94 90.0809C212.536 90.0587 213.122 89.9172 213.663 89.6646C213.804 88.8275 214.135 88.0339 214.631 87.3447L209.493 88.1424Z" fill="black"/>
<path d="M211.777 89.8553C214.236 89.8553 216.229 87.862 216.229 85.4032C216.229 82.9444 214.236 80.9512 211.777 80.9512C209.318 80.9512 207.325 82.9444 207.325 85.4032C207.325 87.862 209.318 89.8553 211.777 89.8553Z" fill="#DB8B8B"/>
<path opacity="0.1" d="M206.067 116.459H206.117C210.903 117.444 216.915 112.455 216.915 112.455C216.754 112.183 216.615 111.899 216.499 111.605C216.335 111.344 216.229 111.197 216.229 111.197L206.149 115.198L206.123 115.597L206.067 116.459Z" fill="black"/>
<path d="M207.325 93.28C207.325 93.28 213.719 89.3969 215.772 90.9953L218.628 94.6496C218.628 94.6496 220.455 95.2215 220.115 98.8876L221.485 105.51L217.379 106.536C217.379 106.536 214.983 108.821 216.924 112.132C216.924 112.132 210.871 117.156 206.073 116.127L206.416 110.763C206.416 110.763 207.442 107.792 205.618 105.052C203.794 102.313 205.504 99.6853 207.216 98.6588C207.211 98.6471 208.008 94.3065 207.325 93.28Z" fill="#FF748E"/>
<path d="M206.982 116.573C206.982 116.573 204.583 117.031 203.442 118.858C203.112 119.407 202.71 119.909 202.246 120.351C202.141 120.446 202.061 120.563 202.01 120.695C201.96 120.827 201.941 120.968 201.955 121.108C201.969 121.249 202.015 121.384 202.091 121.503C202.166 121.622 202.268 121.721 202.389 121.794C203.295 122.339 204.771 122.674 206.639 121.14C209.85 118.515 206.982 116.573 206.982 116.573Z" fill="#DB8B8B"/>
<path opacity="0.1" d="M210.522 95.4512C210.522 95.4512 212.804 95.2224 213.375 101.158C213.947 107.095 214.859 108.467 214.859 108.467C214.859 108.467 215.431 111.55 214.059 113.377C212.686 115.204 210.064 119.087 210.064 119.087C210.064 119.087 207.211 119.885 206.639 117.034L210.179 110.412C210.179 110.412 210.748 108.127 209.378 106.529C208.008 104.93 206.982 94.3074 210.522 95.4512Z" fill="black"/>
<path d="M210.293 95.108C210.293 95.108 212.575 94.8792 213.147 100.818C213.719 106.757 214.631 108.124 214.631 108.124C214.631 108.124 215.217 111.206 213.833 113.034C212.449 114.861 209.85 118.744 209.85 118.744C209.85 118.744 206.997 119.541 206.425 116.691L209.965 110.068C209.965 110.068 210.537 107.784 209.164 106.185C207.791 104.587 206.753 93.9671 210.293 95.108Z" fill="#FF748E"/>
<path opacity="0.1" d="M208.407 99.3896C208.407 99.3896 208.181 102.93 209.208 104.871C210.234 106.813 210.234 109.323 209.208 110.693" fill="black"/>
<path opacity="0.1" d="M207.838 95.049C207.838 95.049 208.75 94.1368 211.378 94.0225C214.006 93.9081 215.144 93.1104 215.144 93.1104" fill="black"/>
<path opacity="0.1" d="M214.188 79.6484C214.883 79.7335 215.675 79.9711 215.924 80.6222C215.993 80.87 216.047 81.1217 216.086 81.3759C216.344 82.3731 217.467 82.8423 218.159 83.599C218.769 84.2735 219.039 85.1827 219.238 86.0714C219.807 88.6162 219.943 91.2387 219.64 93.8287C219.417 95.7204 218.96 97.5857 218.834 99.4862C218.708 101.387 218.939 103.39 219.977 104.988C220.426 105.674 221.016 106.279 221.332 107.041C220.678 107.572 219.775 107.648 218.93 107.678C217.953 107.711 216.97 107.711 215.983 107.678C215.466 107.698 214.952 107.59 214.487 107.364C214.158 107.154 213.888 106.865 213.701 106.522C213.138 105.569 212.997 104.422 213.021 103.316C213.044 102.211 213.22 101.111 213.241 100.002C213.299 99.3976 213.165 98.7898 212.857 98.2661C212.573 97.9367 212.252 97.6414 211.9 97.3862C210.677 96.3011 210.258 94.5649 210.217 92.9313C210.176 91.2977 210.446 89.6641 210.308 88.0364C210.255 87.3999 210.015 86.6345 209.39 86.5113C209.193 86.5033 208.996 86.4778 208.803 86.435C208.302 86.2415 208.352 85.5347 208.217 85.0155C208.056 84.429 207.557 83.9803 207.416 83.3937C207.088 82.0123 208.847 80.3611 210 79.8743C211.153 79.3874 212.953 79.4959 214.188 79.6484Z" fill="black"/>
<path d="M214.302 79.4199C214.997 79.5049 215.789 79.7425 216.039 80.3965C216.107 80.6433 216.161 80.894 216.2 81.1473C216.458 82.1445 217.581 82.6137 218.273 83.3704C218.883 84.045 219.153 84.9541 219.353 85.8428C219.921 88.3907 220.056 91.0162 219.752 93.6089C219.532 95.5006 219.074 97.3659 218.948 99.2693C218.822 101.173 219.054 103.17 220.092 104.768C220.54 105.458 221.13 106.059 221.447 106.821C220.793 107.355 219.889 107.428 219.045 107.458C218.067 107.489 217.085 107.489 216.097 107.458C215.581 107.479 215.067 107.373 214.601 107.147C214.272 106.936 214.002 106.646 213.815 106.302C213.252 105.349 213.112 104.202 213.135 103.097C213.159 101.991 213.334 100.891 213.355 99.7855C213.355 99.1813 213.32 98.542 212.971 98.0493C212.688 97.7192 212.367 97.4238 212.015 97.1694C210.792 96.0843 210.372 94.348 210.331 92.7144C210.29 91.0808 210.56 89.4473 210.422 87.8195C210.369 87.1831 210.129 86.4176 209.504 86.2944C209.307 86.2864 209.111 86.2609 208.918 86.2182C208.416 86.0246 208.466 85.3178 208.331 84.7987C208.17 84.2121 207.671 83.7663 207.53 83.1768C207.202 81.7955 208.962 80.1443 210.114 79.6574C211.267 79.1706 213.076 79.2674 214.302 79.4199Z" fill="#464353"/>
<path opacity="0.7" d="M89.22 29.3975C88.0019 29.3975 86.8111 29.7587 85.7983 30.4354C84.7854 31.1122 83.996 32.0741 83.5299 33.1995C83.0637 34.3249 82.9417 35.5632 83.1794 36.758C83.417 37.9527 84.0036 39.0501 84.865 39.9115C85.7263 40.7728 86.8237 41.3594 88.0184 41.597C89.2132 41.8347 90.4515 41.7127 91.5769 41.2466C92.7023 40.7804 93.6642 39.991 94.341 38.9782C95.0177 37.9653 95.379 36.7745 95.379 35.5564C95.379 33.923 94.7301 32.3564 93.575 31.2014C92.42 30.0463 90.8535 29.3975 89.22 29.3975V29.3975ZM89.22 30.5911C90.2061 30.5911 91.1701 30.8835 91.99 31.4314C92.8099 31.9792 93.4489 32.7579 93.8263 33.669C94.2037 34.58 94.3024 35.5825 94.11 36.5496C93.9176 37.5168 93.4428 38.4052 92.7455 39.1025C92.0482 39.7997 91.1598 40.2746 90.1927 40.467C89.2255 40.6593 88.223 40.5606 87.312 40.1832C86.401 39.8059 85.6223 39.1668 85.0744 38.3469C84.5266 37.527 84.2342 36.5631 84.2342 35.577C84.2342 34.2546 84.7595 32.9865 85.6945 32.0514C86.6295 31.1164 87.8977 30.5911 89.22 30.5911ZM92.7071 33.8319L92.147 33.2659C92.1196 33.2375 92.0868 33.2149 92.0505 33.1995C92.0142 33.1841 91.9752 33.1761 91.9358 33.1761C91.8964 33.1761 91.8574 33.1841 91.8211 33.1995C91.7848 33.2149 91.752 33.2375 91.7246 33.2659L88.2052 36.753L86.7212 35.2455C86.6939 35.2172 86.6611 35.1946 86.6248 35.1792C86.5885 35.1637 86.5495 35.1558 86.5101 35.1558C86.4706 35.1558 86.4316 35.1637 86.3953 35.1792C86.3591 35.1946 86.3263 35.2172 86.2989 35.2455L85.7358 35.8057C85.7074 35.8331 85.6848 35.8659 85.6694 35.9022C85.654 35.9384 85.646 35.9775 85.646 36.0169C85.646 36.0563 85.654 36.0953 85.6694 36.1316C85.6848 36.1679 85.7074 36.2007 85.7358 36.228L87.9941 38.5039C88.0214 38.5323 88.0542 38.5549 88.0905 38.5703C88.1268 38.5857 88.1658 38.5937 88.2052 38.5937C88.2447 38.5937 88.2837 38.5857 88.32 38.5703C88.3562 38.5549 88.389 38.5323 88.4164 38.5039L92.7071 34.2454C92.7355 34.2181 92.7581 34.1853 92.7735 34.149C92.7889 34.1127 92.7969 34.0737 92.7969 34.0343C92.7969 33.9949 92.7889 33.9558 92.7735 33.9196C92.7581 33.8833 92.7355 33.8505 92.7071 33.8231V33.8319Z" fill="#3ACC6C"/>
<path opacity="0.7" d="M21.0374 60.5797C19.8515 60.8551 18.7739 61.4758 17.9407 62.3634C17.1074 63.251 16.5559 64.3656 16.3558 65.5664C16.1556 66.7672 16.3159 68.0005 16.8162 69.1103C17.3166 70.2201 18.1347 71.1568 19.1671 71.8019C20.1995 72.4471 21.3999 72.7718 22.6168 72.735C23.8336 72.6983 25.0123 72.3018 26.0039 71.5955C26.9955 70.8893 27.7556 69.905 28.1881 68.767C28.6206 67.629 28.7062 66.3884 28.434 65.2018C28.2528 64.4121 27.9176 63.6659 27.4476 63.0059C26.9775 62.346 26.3819 61.7852 25.6948 61.3559C25.0077 60.9265 24.2426 60.6369 23.4434 60.5037C22.6442 60.3705 21.8266 60.3963 21.0374 60.5797V60.5797ZM21.3072 61.7528C22.2685 61.5285 23.2747 61.5945 24.1984 61.9426C25.1221 62.2907 25.9217 62.9051 26.4958 63.7081C27.07 64.511 27.3929 65.4663 27.4236 66.453C27.4544 67.4396 27.1915 68.4132 26.6684 69.2503C26.1453 70.0874 25.3855 70.7504 24.4853 71.1553C23.585 71.5602 22.5849 71.6887 21.6115 71.5246C20.6381 71.3605 19.7353 70.9112 19.0176 70.2336C18.2998 69.556 17.7993 68.6805 17.5795 67.7182C17.2861 66.433 17.5135 65.084 18.212 63.966C18.9106 62.8481 20.0234 62.0524 21.3072 61.7528V61.7528ZM25.4337 64.1284L24.7591 63.6943C24.7262 63.6729 24.6893 63.6584 24.6506 63.6515C24.6119 63.6446 24.5723 63.6456 24.534 63.6543C24.4957 63.6631 24.4595 63.6794 24.4277 63.7024C24.3958 63.7254 24.3689 63.7546 24.3485 63.7882L21.709 67.9763L19.9229 66.8471C19.8899 66.8257 19.853 66.8112 19.8144 66.8043C19.7757 66.7974 19.736 66.7984 19.6977 66.8071C19.6594 66.8159 19.6233 66.8322 19.5914 66.8552C19.5596 66.8782 19.5326 66.9074 19.5123 66.941L19.087 67.6155C19.0656 67.6485 19.051 67.6854 19.0442 67.7241C19.0373 67.7627 19.0383 67.8024 19.047 67.8407C19.0558 67.879 19.0721 67.9151 19.0951 67.947C19.1181 67.9788 19.1473 68.0058 19.1809 68.0261L21.8908 69.736C21.9239 69.7579 21.961 69.7728 22 69.7799C22.039 69.7871 22.079 69.7862 22.1176 69.7774C22.1563 69.7687 22.1928 69.7522 22.2248 69.7289C22.2569 69.7056 22.284 69.6761 22.3043 69.6421L25.5305 64.5302C25.552 64.4974 25.5667 64.4607 25.5738 64.4221C25.5809 64.3836 25.5802 64.344 25.5717 64.3057C25.5633 64.2674 25.5472 64.2312 25.5245 64.1993C25.5018 64.1673 25.4729 64.1402 25.4395 64.1196L25.4337 64.1284Z" fill="#3ACC6C"/>
<path opacity="0.7" d="M178.985 30.2891C177.767 30.2891 176.576 30.6503 175.563 31.327C174.551 32.0038 173.761 32.9657 173.295 34.0911C172.829 35.2165 172.707 36.4549 172.945 37.6496C173.182 38.8443 173.769 39.9417 174.63 40.8031C175.491 41.6644 176.589 42.251 177.784 42.4886C178.978 42.7263 180.217 42.6043 181.342 42.1382C182.467 41.672 183.429 40.8826 184.106 39.8697C184.783 38.8569 185.144 37.6661 185.144 36.448C185.144 34.8146 184.495 33.248 183.34 32.093C182.185 30.938 180.619 30.2891 178.985 30.2891ZM178.985 31.4827C179.971 31.4827 180.935 31.7751 181.755 32.323C182.575 32.8708 183.214 33.6495 183.591 34.5606C183.969 35.4716 184.068 36.4741 183.875 37.4412C183.683 38.4084 183.208 39.2968 182.511 39.9941C181.813 40.6913 180.925 41.1662 179.958 41.3586C178.991 41.551 177.988 41.4522 177.077 41.0748C176.166 40.6975 175.387 40.0584 174.84 39.2385C174.292 38.4186 173.999 37.4547 173.999 36.4685C173.999 35.1462 174.525 33.8781 175.46 32.943C176.395 32.008 177.663 31.4827 178.985 31.4827ZM182.472 34.7235L181.912 34.1575C181.885 34.1291 181.852 34.1065 181.816 34.0911C181.779 34.0757 181.74 34.0677 181.701 34.0677C181.662 34.0677 181.623 34.0757 181.586 34.0911C181.55 34.1065 181.517 34.1291 181.49 34.1575L177.97 37.6446L176.483 36.1459C176.456 36.1176 176.423 36.095 176.387 36.0796C176.351 36.0641 176.312 36.0562 176.272 36.0562C176.233 36.0562 176.194 36.0641 176.158 36.0796C176.121 36.095 176.088 36.1176 176.061 36.1459L175.501 36.712C175.473 36.7393 175.45 36.7721 175.435 36.8084C175.419 36.8447 175.411 36.8837 175.411 36.9231C175.411 36.9626 175.419 37.0016 175.435 37.0379C175.45 37.0741 175.473 37.1069 175.501 37.1343L177.759 39.4102C177.787 39.4386 177.819 39.4611 177.856 39.4766C177.892 39.492 177.931 39.4999 177.97 39.4999C178.01 39.4999 178.049 39.492 178.085 39.4766C178.121 39.4611 178.154 39.4386 178.182 39.4102L182.472 35.1517C182.501 35.1243 182.523 35.0915 182.539 35.0553C182.554 35.019 182.562 34.98 182.562 34.9405C182.562 34.9011 182.554 34.8621 182.539 34.8258C182.523 34.7895 182.501 34.7567 182.472 34.7294V34.7235Z" fill="#3ACC6C"/>
<path opacity="0.7" d="M249.646 60.706C248.432 60.6117 247.217 60.8796 246.155 61.4756C245.093 62.0716 244.231 62.969 243.679 64.0545C243.127 65.1399 242.91 66.3647 243.053 67.5739C243.197 68.7832 243.696 69.9227 244.488 70.8483C245.279 71.774 246.327 72.4443 247.499 72.7746C248.671 73.1049 249.915 73.0802 251.073 72.7038C252.231 72.3274 253.252 71.6161 254.006 70.6599C254.76 69.7036 255.213 68.5452 255.309 67.3312C255.373 66.5243 255.277 65.7126 255.027 64.9428C254.776 64.1729 254.377 63.4599 253.851 62.8446C253.325 62.2293 252.683 61.7237 251.961 61.3567C251.24 60.9897 250.453 60.7686 249.646 60.706V60.706ZM249.552 61.8938C250.536 61.9677 251.476 62.3322 252.253 62.941C253.03 63.5498 253.609 64.3755 253.916 65.3136C254.224 66.2516 254.246 67.2598 253.979 68.2103C253.713 69.1608 253.171 70.0109 252.421 70.6528C251.671 71.2948 250.748 71.6998 249.768 71.8165C248.787 71.9331 247.795 71.7562 246.915 71.3081C246.036 70.8601 245.309 70.161 244.827 69.2995C244.345 68.4381 244.13 67.4529 244.208 66.469C244.258 65.8176 244.436 65.1824 244.732 64.5998C245.028 64.0172 245.435 63.4986 245.932 63.0737C246.428 62.6488 247.003 62.3258 247.624 62.1234C248.246 61.9209 248.901 61.8429 249.552 61.8938ZM252.778 65.3956L252.262 64.7885C252.237 64.7581 252.206 64.7331 252.172 64.7148C252.137 64.6966 252.099 64.6855 252.06 64.6822C252.02 64.6789 251.981 64.6835 251.944 64.6957C251.907 64.7079 251.872 64.7275 251.842 64.7533L248.068 67.9589L246.701 66.3487C246.676 66.318 246.645 66.2925 246.61 66.274C246.575 66.2555 246.537 66.2442 246.498 66.2409C246.458 66.2377 246.418 66.2424 246.381 66.2549C246.343 66.2673 246.309 66.2873 246.279 66.3135L245.672 66.8297C245.642 66.8548 245.617 66.8857 245.599 66.9206C245.581 66.9554 245.57 66.9935 245.567 67.0326C245.564 67.0717 245.569 67.111 245.581 67.1482C245.594 67.1854 245.614 67.2197 245.64 67.2491L247.713 69.6922C247.738 69.7225 247.769 69.7476 247.803 69.7658C247.838 69.7841 247.876 69.7952 247.915 69.7985C247.954 69.8017 247.994 69.7971 248.031 69.7849C248.068 69.7727 248.103 69.7532 248.132 69.7274L252.743 65.815C252.773 65.7901 252.798 65.7594 252.816 65.7246C252.835 65.6899 252.846 65.6518 252.849 65.6127C252.852 65.5736 252.848 65.5342 252.836 65.4969C252.823 65.4596 252.804 65.4252 252.778 65.3956V65.3956Z" fill="#3ACC6C"/>
<defs>
<linearGradient id="paint0_linear" x1="212.02" y1="161.161" x2="212.02" y2="78.2672" gradientUnits="userSpaceOnUse">
<stop stop-color="#808080" stop-opacity="0.25"/>
<stop offset="0.54" stop-color="#808080" stop-opacity="0.12"/>
<stop offset="1" stop-color="#808080" stop-opacity="0.1"/>
</linearGradient>
</defs>
</svg>
