<svg width="158" height="176" viewBox="0 0 158 176" fill="none" xmlns="http://www.w3.org/2000/svg">
<path d="M15.1875 141.857C15.1875 141.857 19.7327 141.13 22.4598 144.341C22.4598 144.341 20.4599 145.917 16.1571 143.735L15.1875 141.857Z" fill="#C02F33"/>
<path d="M14.7115 141.785C14.7115 141.785 11.8113 145.354 13.2398 149.328C13.2398 149.328 15.6033 148.382 15.8608 143.564L14.7115 141.785Z" fill="#C02F33"/>
<path d="M12.1055 135.918C12.1055 135.918 13.9236 132.583 21.1959 137.251C21.1959 137.251 20.2263 139.494 17.0143 139.312C13.8024 139.13 12.9539 137.675 12.1055 135.918Z" fill="#C02F33"/>
<path d="M11.6359 135.677C11.6359 135.677 7.86334 135.245 7.49756 143.88C7.49756 143.88 9.88921 144.376 11.5883 141.645C13.2873 138.913 12.5904 137.381 11.6359 135.677Z" fill="#C02F33"/>
<path d="M130.4 135.692C130.4 135.692 125.494 141.681 129.39 150.735L90.2142 167.725L86.4547 168.513L84.7231 160.938L85.8811 151.378V146.153L130.4 135.692Z" fill="#D5D6DB"/>
<path d="M6.68994 131.822L60.9122 121.938L132.759 133.383L88.1337 149.449L6.68994 131.822Z" fill="#C02F33"/>
<path d="M6.68994 131.822L60.9122 121.938L132.759 133.383L88.1337 149.449L6.68994 131.822Z" fill="#C02F33"/>
<path d="M6.69016 131.82C6.69016 131.82 1.619 141.428 7.46285 150.302L87.8699 167.725C87.8699 167.725 82.8788 160.072 88.1274 149.449L6.69016 131.82Z" fill="#C02F33"/>
<path opacity="0.1" d="M6.69016 131.82C6.69016 131.82 1.619 141.428 7.46285 150.302L87.8699 167.725C87.8699 167.725 82.8788 160.072 88.1274 149.449L6.69016 131.82Z" fill="black"/>
<path opacity="0.1" d="M9.0859 135.151C9.0859 135.151 6.18779 142.181 9.0859 146.731V135.151Z" fill="black"/>
<path d="M87.8699 167.725L132.759 148.57C132.759 148.57 135.27 149.111 133.647 150.951C132.023 152.791 88.7357 169.565 88.7357 169.565L7.46289 150.302L87.8699 167.725Z" fill="#C02F33"/>
<path opacity="0.1" d="M87.8699 167.725L132.759 148.57C132.759 148.57 135.27 149.111 133.647 150.951C132.023 152.791 88.7357 169.565 88.7357 169.565L7.46289 150.302L87.8699 167.725Z" fill="black"/>
<path opacity="0.1" d="M84.1905 151.384C84.1905 151.384 79.8617 156.578 84.1905 164.37V151.384Z" fill="black"/>
<path opacity="0.1" d="M105.148 151.297L85.7314 157.774L85.7999 157.98L105.216 151.502L105.148 151.297Z" fill="black"/>
<path opacity="0.1" d="M109.037 150.652L85.7251 159.517L85.802 159.719L109.114 150.854L109.037 150.652Z" fill="black"/>
<path opacity="0.1" d="M112.608 150.621L85.855 161.571L85.937 161.772L112.69 150.821L112.608 150.621Z" fill="black"/>
<path opacity="0.1" d="M116.492 149.683L86.167 163.382L86.2561 163.579L116.581 149.881L116.492 149.683Z" fill="black"/>
<path opacity="0.1" d="M119.755 149.687L86.4072 164.264L86.4939 164.462L119.842 149.886L119.755 149.687Z" fill="black"/>
<path opacity="0.1" d="M126.892 148.476L86.9102 165.744L86.996 165.943L126.978 148.674L126.892 148.476Z" fill="black"/>
<path opacity="0.3" d="M26.834 132.878L64.9272 124.87L88.1338 129.307L56.919 139.372L26.834 132.878Z" fill="white"/>
<path d="M132.759 133.383C132.759 133.383 134.729 134.177 133.573 135.404C132.417 136.632 88.1274 149.449 88.1274 149.449L132.759 133.383Z" fill="#C02F33"/>
<path d="M151.89 114.875C151.89 114.875 146.986 120.862 150.882 129.917L111.706 146.908L107.947 147.7L106.215 140.125L107.391 130.567V125.335L151.89 114.875Z" fill="#D5D6DB"/>
<path d="M28.1826 111.004L82.4027 101.121L154.252 112.566L109.626 128.633L28.1826 111.004Z" fill="#3A3768"/>
<path d="M28.1741 111.003C28.1741 111.003 23.1008 120.611 28.9446 129.485L109.352 146.908C109.352 146.908 104.363 139.248 109.618 128.63L28.1741 111.003Z" fill="#3A3768"/>
<path opacity="0.1" d="M28.1741 111.003C28.1741 111.003 23.1008 120.611 28.9446 129.485L109.352 146.908C109.352 146.908 104.363 139.248 109.618 128.63L84.1906 123.126L28.1741 111.003Z" fill="black"/>
<path opacity="0.1" d="M30.5762 114.334C30.5762 114.334 27.6802 121.362 30.5762 125.913V114.334Z" fill="black"/>
<path d="M109.36 146.908L154.252 127.753C154.252 127.753 156.76 128.294 155.137 130.134C153.514 131.973 110.226 148.747 110.226 148.747L28.9531 129.484L109.36 146.908Z" fill="#3A3768"/>
<path opacity="0.1" d="M109.36 146.908L154.252 127.753C154.252 127.753 156.76 128.294 155.137 130.134C153.514 131.973 110.226 148.747 110.226 148.747L28.9531 129.484L109.36 146.908Z" fill="black"/>
<path opacity="0.1" d="M105.681 130.567C105.681 130.567 101.352 135.762 105.681 143.554V130.567Z" fill="black"/>
<path opacity="0.1" d="M126.64 130.482L107.223 136.96L107.292 137.165L126.708 130.687L126.64 130.482Z" fill="black"/>
<path opacity="0.1" d="M130.531 129.836L107.219 138.7L107.296 138.903L130.608 130.038L130.531 129.836Z" fill="black"/>
<path opacity="0.1" d="M134.099 129.802L107.346 140.753L107.428 140.953L134.181 130.003L134.099 129.802Z" fill="black"/>
<path opacity="0.1" d="M137.986 128.865L107.661 142.563L107.75 142.761L138.075 129.062L137.986 128.865Z" fill="black"/>
<path opacity="0.1" d="M141.246 128.866L107.898 143.442L107.985 143.641L141.332 129.065L141.246 128.866Z" fill="black"/>
<path opacity="0.1" d="M148.385 127.654L108.403 144.923L108.489 145.122L148.471 127.853L148.385 127.654Z" fill="black"/>
<path opacity="0.45" d="M48.3267 112.061L86.4199 104.053L109.626 108.49L78.4117 118.554L48.3267 112.061Z" fill="white"/>
<path d="M154.252 112.566C154.252 112.566 156.219 113.361 155.066 114.586C153.912 115.811 109.626 128.63 109.626 128.63L154.252 112.566Z" fill="#3A3768"/>
<path d="M153.924 91.0605C153.924 91.0605 149.018 101.811 152.914 110.865L113.738 123.094L109.987 123.888L108.256 116.312L109.414 106.752V101.521L153.924 91.0605Z" fill="#D5D6DB"/>
<path d="M30.2236 87.1904L84.4459 77.3057L156.295 88.751L111.667 104.817L30.2236 87.1904Z" fill="#C02F33"/>
<path d="M30.2235 87.1885C30.2235 87.1885 25.1437 96.7962 30.9876 105.67L111.395 123.094C111.395 123.094 106.404 115.434 111.659 104.817L30.2235 87.1885Z" fill="#C02F33"/>
<path opacity="0.1" d="M30.2235 87.1885C30.2235 87.1885 25.1437 96.7962 30.9876 105.67L111.395 123.094C111.395 123.094 106.404 115.434 111.659 104.817L30.2235 87.1885Z" fill="black"/>
<path opacity="0.1" d="M32.6196 90.5195C32.6196 90.5195 29.7215 97.5495 32.6196 102.099V90.5195Z" fill="black"/>
<path d="M111.403 123.093L156.293 108.7C156.293 108.7 158.803 109.241 157.18 111.081C155.557 112.921 112.269 124.933 112.269 124.933L30.9961 105.67L111.403 123.093Z" fill="#C02F33"/>
<path opacity="0.1" d="M111.403 123.093L156.293 108.7C156.293 108.7 158.803 109.241 157.18 111.081C155.557 112.921 112.269 124.933 112.269 124.933L30.9961 105.67L111.403 123.093Z" fill="black"/>
<path opacity="0.1" d="M107.724 106.752C107.724 106.752 103.395 111.946 107.724 119.738V106.752Z" fill="black"/>
<path opacity="0.1" d="M128.683 106.666L109.267 113.144L109.335 113.349L128.752 106.871L128.683 106.666Z" fill="black"/>
<path opacity="0.1" d="M132.573 106.022L109.262 114.887L109.339 115.089L132.65 106.224L132.573 106.022Z" fill="black"/>
<path opacity="0.1" d="M136.14 105.989L109.387 116.939L109.469 117.14L136.222 106.189L136.14 105.989Z" fill="black"/>
<path opacity="0.1" d="M140.029 105.049L109.705 118.748L109.794 118.945L140.119 105.247L140.029 105.049Z" fill="black"/>
<path opacity="0.1" d="M143.29 105.054L109.942 119.63L110.029 119.828L143.377 105.252L143.29 105.054Z" fill="black"/>
<path opacity="0.1" d="M150.428 103.843L110.446 121.111L110.532 121.31L150.514 104.041L150.428 103.843Z" fill="black"/>
<path opacity="0.3" d="M50.3672 88.2465L88.4604 80.2383L111.667 84.6753L80.4522 94.7397L50.3672 88.2465Z" fill="white"/>
<path d="M156.292 88.751C156.292 88.751 158.262 89.5453 157.106 90.7725C155.95 91.9997 111.667 104.817 111.667 104.817L156.292 88.751Z" fill="#C02F33"/>
<path opacity="0.1" d="M37.5956 169.721C40.3437 169.721 42.5715 169.472 42.5715 169.165C42.5715 168.857 40.3437 168.608 37.5956 168.608C34.8474 168.608 32.6196 168.857 32.6196 169.165C32.6196 169.472 34.8474 169.721 37.5956 169.721Z" fill="#C02F33"/>
<path opacity="0.1" d="M4.97593 160.267C7.72406 160.267 9.95186 160.018 9.95186 159.711C9.95186 159.403 7.72406 159.154 4.97593 159.154C2.2278 159.154 0 159.403 0 159.711C0 160.018 2.2278 160.267 4.97593 160.267Z" fill="#C02F33"/>
<path opacity="0.1" d="M62.4603 176C65.2084 176 67.4362 175.751 67.4362 175.444C67.4362 175.137 65.2084 174.888 62.4603 174.888C59.7122 174.888 57.4844 175.137 57.4844 175.444C57.4844 175.751 59.7122 176 62.4603 176Z" fill="#C02F33"/>
<path opacity="0.1" d="M148.471 159.624C151.219 159.624 153.446 159.375 153.446 159.068C153.446 158.761 151.219 158.512 148.471 158.512C145.722 158.512 143.495 158.761 143.495 159.068C143.495 159.375 145.722 159.624 148.471 159.624Z" fill="#C02F33"/>
<path opacity="0.1" d="M121.684 172.788C124.934 172.788 127.569 172.336 127.569 171.777C127.569 171.219 124.934 170.767 121.684 170.767C118.434 170.767 115.799 171.219 115.799 171.777C115.799 172.336 118.434 172.788 121.684 172.788Z" fill="#C02F33"/>
<path d="M148.631 81.6586C147.215 77.8125 139.423 77.451 136.043 78.4315C133.64 79.1306 128.576 79.9184 125.87 80.3145L125.695 80.1478C126.045 80.0439 126.054 79.7885 126.011 79.4098C125.986 78.9106 125.993 78.4103 126.032 77.912C127.69 78.4271 129.166 77.2086 129.166 77.2086C131.114 76.3428 130.591 72.6374 130.963 71.6245C131.242 70.8669 131.543 66.404 131.677 64.179H131.705L131.72 63.4323C131.74 63.1098 131.749 62.9215 131.749 62.9215C131.749 62.9215 131.939 57.4802 132.311 56.3785C132.658 55.3656 132.939 50.262 132.982 49.4525C132.982 49.3832 132.982 49.3464 132.982 49.3464L132.954 48.8746C132.974 48.5304 132.982 48.1474 132.98 47.7448C132.98 45.8942 132.787 43.5632 132.764 43.1866C132.764 43.1325 132.764 43.0675 132.764 42.9896C132.779 42.1996 132.679 38.2431 129.314 36.7475C128.073 36.1934 126.582 35.5333 125.138 34.8905C124.766 31.6764 123.916 28.4796 123.989 25.2416C123.989 24.7546 124.032 24.2677 124.08 23.7828C124.08 23.9235 124.065 24.0664 124.063 24.2157C124.063 24.5295 124.063 24.8455 124.063 25.1594C124.19 21.1098 125.721 17.0386 125.578 13.0756C125.565 13.463 125.537 13.8526 125.5 14.2422C125.575 12.9018 125.434 11.558 125.084 10.2619C124.955 9.80521 124.779 9.33338 124.405 9.0282C124.051 8.78242 123.645 8.62168 123.219 8.55853C122.194 8.29637 121.154 8.10259 120.104 7.97847C119.945 7.49013 119.708 7.0305 119.403 6.61707C117.208 3.60424 113.957 0.77322 110.113 0.123903C108.185 -0.200755 105.966 0.0697935 104.655 1.44851C104.518 1.56963 104.389 1.69978 104.269 1.8381C103.564 2.68005 103.261 3.78605 102.538 4.62583C102.49 4.68211 102.436 4.73405 102.384 4.78816C100.969 6.05433 98.7632 6.31838 97.1897 7.45469C96.9125 7.65867 96.6526 7.88526 96.4127 8.13214C95.7787 8.76045 95.2101 9.45155 94.7158 10.1948C94.0081 11.1904 93.2809 12.2272 93.0558 13.4154C92.6034 15.7962 94.2245 18.0537 94.5254 20.4497C95.1963 25.8109 89.2637 30.5682 90.3871 35.858C90.6868 37.1575 91.3487 38.3455 92.2961 39.2842C89.9823 41.3793 88.0127 43.4117 88.0127 43.4117V43.5329H87.647L87.6837 43.9658H87.647L87.8482 46.3141L87.647 49.7338C87.647 49.7338 87.647 49.7706 87.647 49.8399V49.8572V49.9503C87.647 49.9503 87.647 49.9871 87.647 50.0563H87.6599C87.727 51.3095 87.9933 55.8158 88.3093 56.7659C88.6815 57.8676 88.8698 63.3089 88.8698 63.3089C88.8698 63.3089 89.2811 70.999 89.6577 72.0162C90.0343 73.0335 89.4997 76.7281 91.4541 77.6003C92.0259 78.0389 92.7028 78.3196 93.4172 78.4142C93.3176 79.2236 93.3804 79.8102 93.7029 79.9942C93.8409 80.0753 93.9974 80.12 94.1574 80.124C94.0248 80.3207 93.9069 80.5269 93.8046 80.7409C93.0289 80.6599 92.2666 80.4802 91.5364 80.2063C89.4369 79.3405 82.4697 77.3926 80.446 78.7626C78.4223 80.1327 73.5524 81.375 75.8012 86.8899C78.05 92.4048 79.0976 92.5433 79.0976 92.5433C79.7898 93.0458 80.397 93.6559 80.8962 94.3506C81.5715 95.3657 87.8634 97.688 89.4369 97.688C90.1057 97.6777 90.7745 97.711 91.439 97.7876C91.439 97.7876 89.7313 99.2854 89.9585 100.155C90.1858 101.026 89.4391 107.991 89.4391 107.991C89.4391 107.991 91.1706 109.735 91.9108 107.447L91.9368 107.482C92.0753 107.67 92.8242 108.521 94.2332 107.447C94.8098 107.01 95.4224 106.622 96.0643 106.287L102.886 105.322C103.598 105.277 104.311 105.272 105.023 105.307C106.105 105.395 107.168 104.755 107.836 104.259C109.25 104.796 110.838 105.382 111.594 105.597C113.126 106.03 120.169 107.919 121.816 107.328C122.159 107.192 122.463 106.975 122.704 106.696L124.275 106.746L123.539 106.893C123.539 106.893 124.972 106.917 126.92 106.943L126.838 106.991L129.281 106.969C132.857 107.001 136.874 107.012 137.402 106.893C138.229 106.709 142.525 106.839 143.791 106.893H144.144C144.144 106.893 148.865 105.952 146.917 101.162C145.419 97.4824 140.815 96.4132 138.772 96.1189C139.348 96.0041 139.843 95.9154 140.172 95.8635C141.599 95.647 144.369 94.3484 144.594 93.9047C144.819 93.461 147.142 92.1732 147.741 91.4394C148.341 90.7057 150.053 85.5047 148.631 81.6586ZM109.531 92.4221L109.299 92.4978L109.144 92.5498L108.845 92.8441C108.607 92.684 108.351 92.5152 108.085 92.342C108.555 92.3701 109.038 92.3983 109.531 92.4221Z" fill="url(#paint0_linear)"/>
<path d="M123.331 69.6006C123.331 69.6006 126.643 78.2582 128.526 77.3924C130.409 76.5267 129.898 72.8472 130.257 71.8386C130.616 70.83 131.015 63.181 131.015 63.181C131.015 63.181 131.196 57.7701 131.556 56.6749C131.889 55.6685 132.16 50.593 132.205 49.7943C132.205 49.725 132.205 49.6883 132.205 49.6883L131.848 43.4115L129.826 42.9072L125.138 44.6387L124.489 48.3463L124.236 49.7943L124.128 50.4112L123.331 69.6006Z" fill="#BE6F72"/>
<path opacity="0.1" d="M124.422 68.1504C124.422 68.1504 127.582 70.7368 128.534 70.9641C129.487 71.1914 130.071 73.2086 130.071 73.2086" fill="black"/>
<path d="M97.4345 69.9795C97.4345 69.9795 94.123 78.6371 92.24 77.7713C90.357 76.9056 90.8678 73.2261 90.5085 72.2175C90.1492 71.2089 89.751 63.56 89.751 63.56C89.751 63.56 89.5692 58.149 89.2099 57.0538C88.8765 56.0474 88.606 50.9719 88.5605 50.1732C88.5605 50.104 88.5605 50.0672 88.5605 50.0672L88.9198 43.7904L90.9414 43.2861L95.6294 45.0176L96.2788 48.7252L96.532 50.1732L96.6402 50.7901L97.4345 69.9795Z" fill="#BE6F72"/>
<path d="M118.998 23.6484H111.607V35.1695H118.998V23.6484Z" fill="#3E373A"/>
<path opacity="0.1" d="M118.998 23.6484H111.607V35.1695H118.998V23.6484Z" fill="black"/>
<path d="M96.1356 78.6018C96.1356 78.6018 93.6097 81.3788 94.5469 81.8831C95.4841 82.3874 101.547 91.8392 101.547 91.8392C101.547 91.8392 121.459 94.2915 125.214 90.612C128.969 86.9326 128.894 80.3593 128.894 80.3593C128.894 80.3593 125.876 81.0086 125.547 80.6558C125.218 80.303 123.411 78.6018 123.411 78.6018C123.411 78.6018 97.8671 77.0521 96.1356 78.6018Z" fill="#4B4B5B"/>
<path opacity="0.02" d="M96.1356 78.6018C96.1356 78.6018 93.6097 81.3788 94.5469 81.8831C95.4841 82.3874 101.547 91.8392 101.547 91.8392C101.547 91.8392 121.459 94.2915 125.214 90.612C128.969 86.9326 128.894 80.3593 128.894 80.3593C128.894 80.3593 125.876 81.0086 125.547 80.6558C125.218 80.303 123.411 78.6018 123.411 78.6018C123.411 78.6018 97.8671 77.0521 96.1356 78.6018Z" fill="black"/>
<path d="M131.982 43.5027L125.489 48.6972L123.526 48.8401L122.805 48.892L110.7 49.7794L98.1462 48.8617L96.2784 48.7254L93.8975 48.5522L88.9194 43.7906C88.9194 43.7906 92.4431 40.0159 95.5295 37.4684C96.7459 36.4619 97.8952 35.6481 98.7328 35.3278L98.8756 35.278C99.4025 35.0726 99.8728 34.7446 100.248 34.3214C102.685 31.8085 104.938 25.6075 104.938 25.6075C104.938 25.6075 115.689 20.0537 114.39 27.339C113.091 34.6244 119.223 32.8236 119.223 32.8236L121.245 33.7456L122.043 34.1114L124.08 35.0443L128.675 37.1524C132.281 38.8125 131.982 43.5027 131.982 43.5027Z" fill="#BE6F72"/>
<path opacity="0.1" d="M110.196 31.5398C115.535 31.5398 119.864 27.2111 119.864 21.8714C119.864 16.5318 115.535 12.2031 110.196 12.2031C104.856 12.2031 100.527 16.5318 100.527 21.8714C100.527 27.2111 104.856 31.5398 110.196 31.5398Z" fill="black"/>
<path opacity="0.1" d="M131.998 50.3894H88.5605C88.5605 50.3201 88.5605 50.2833 88.5605 50.2833L88.9198 44.0066C88.9198 44.0066 92.4435 40.2319 95.5299 37.6844L122.801 36.6022L124.069 35.2646L128.664 37.3728C132.273 39.0307 131.983 43.7209 131.983 43.7209C131.983 43.7209 132.476 49.1557 131.998 50.3894Z" fill="black"/>
<path d="M131.998 50.1726H88.5605C88.5605 50.1033 88.5605 50.0665 88.5605 50.0665L88.9198 43.7898C88.9198 43.7898 92.4435 40.0151 95.5299 37.4676L122.801 36.3854L124.069 35.0479L128.664 37.156C132.273 38.8139 131.983 43.5041 131.983 43.5041C131.983 43.5041 132.476 48.9389 131.998 50.1726Z" fill="#E7C7CA"/>
<path opacity="0.1" d="M103.233 32.5727C103.233 32.5727 110.085 41.3039 119.213 32.3931C128.34 23.4823 120.223 52.2687 120.223 52.2687L100.527 54.6062L103.233 32.5727Z" fill="black"/>
<path d="M103.233 33.0053C103.233 33.0053 110.085 41.7365 119.213 32.8257C128.34 23.9149 120.223 52.7013 120.223 52.7013L100.527 55.0388L103.233 33.0053Z" fill="#E7C7CA"/>
<path opacity="0.1" d="M122.033 34.5378L122.758 45.5956L123.535 49.2751L124.128 52.0888C124.128 52.0888 125.643 73.7327 125.21 74.8149C124.777 75.8971 125.427 76.7628 125.517 77.3386C125.608 77.9143 125.427 79.3601 125.498 80.0094C125.569 80.6587 125.498 80.9466 123.84 80.715C122.182 80.4834 119.871 80.0809 119.871 80.0809C119.871 80.0809 114.027 80.5137 112.007 79.793C109.988 79.0722 106.163 79.0701 106.163 79.0701C106.163 79.0701 100.391 79.2151 98.5167 78.9987C96.6423 78.7822 95.6294 81.3081 94.4044 80.5852C93.1793 79.8622 95.8458 72.8669 96.7116 70.8454C97.5774 68.8239 95.558 63.7029 95.558 63.7029L98.1553 49.2946L98.7331 46.0285V35.7607L98.876 35.7109C99.4028 35.5054 99.8732 35.1775 100.248 34.7542L100.898 45.087L121.243 45.8099V34.1807" fill="black"/>
<path d="M122.033 34.1042L122.758 45.1621L123.535 48.8415L124.128 51.6552C124.128 51.6552 125.643 73.2991 125.21 74.3813C124.777 75.4635 125.427 76.3292 125.517 76.905C125.608 77.4807 125.427 78.9265 125.498 79.5758C125.569 80.2251 125.498 80.513 123.84 80.2814C122.182 80.0498 119.871 79.6473 119.871 79.6473C119.871 79.6473 114.027 80.0801 112.007 79.3594C109.988 78.6386 106.163 78.6365 106.163 78.6365C106.163 78.6365 100.391 78.7815 98.5167 78.5651C96.6423 78.3486 95.6294 80.8745 94.4044 80.1516C93.1793 79.4286 95.8458 72.4333 96.7116 70.4118C97.5774 68.3903 95.558 63.2693 95.558 63.2693L98.1553 48.861L98.7331 45.5949V35.3271L98.876 35.2773C99.4028 35.0718 99.8732 34.7439 100.248 34.3206L100.898 44.6534L121.243 45.3763V33.7471" fill="#E7C7CA"/>
<path opacity="0.1" d="M124.372 11.0288C124.249 10.5764 124.078 10.1068 123.723 9.80376C123.384 9.56037 122.992 9.40021 122.58 9.33625C121.593 9.07665 120.589 8.8843 119.576 8.76052C119.431 8.27992 119.212 7.82494 118.926 7.41211C116.805 4.41659 113.667 1.59207 109.975 0.953571C108.042 0.618091 105.802 0.91894 104.564 2.44267C103.884 3.28029 103.592 4.39062 102.906 5.21309C101.583 6.81041 99.1959 7.00737 97.5293 8.24323C96.6398 8.89255 95.9948 9.83406 95.365 10.7474C94.6832 11.7366 93.9819 12.7668 93.7655 13.9486C93.3326 16.3099 94.8931 18.5609 95.181 20.9439C95.8303 26.2748 90.1163 31.0039 91.1963 36.2634C91.8262 39.3303 94.6594 41.4904 97.5899 42.5856C98.6224 42.973 99.8019 43.3583 100.285 44.3496C100.501 44.7824 100.538 45.2824 100.741 45.7196C101.425 47.1784 103.674 47.2347 104.882 46.172C106.089 45.1093 106.47 43.3907 106.613 41.7869C107.193 34.783 104.388 27.8634 104.715 20.8421C104.813 18.7189 105.41 16.3099 107.312 15.3489C109.873 14.0503 112.953 16.2147 115.771 15.8013C117.104 19.046 117.387 22.6271 116.58 26.041C116.132 27.9089 115.357 29.7205 115.301 31.6468C115.217 34.5795 116.799 37.259 118.167 39.852C118.46 40.3368 118.657 40.8742 118.745 41.4341C118.766 42.0022 118.66 42.5679 118.435 43.0899C117.662 45.1699 116.329 47.1005 116.178 49.3147C116.133 49.5731 116.192 49.8387 116.34 50.0549C116.493 50.1992 116.689 50.2876 116.898 50.306C119.236 50.7064 121.258 48.635 122.398 46.5551C123.67 44.2578 124.411 41.7048 124.567 39.0836C124.803 34.6769 123.223 30.3416 123.32 25.9306C123.433 20.9157 125.699 15.8662 124.372 11.0288Z" fill="black"/>
<path d="M124.588 10.812C124.465 10.3596 124.294 9.88997 123.939 9.58696C123.6 9.34357 123.209 9.18342 122.796 9.11945C121.809 8.85985 120.805 8.6675 119.792 8.54372C119.647 8.06312 119.428 7.60814 119.143 7.19531C117.022 4.1998 113.883 1.37527 110.191 0.736774C108.258 0.401294 106.018 0.702144 104.78 2.22587C104.1 3.06349 103.808 4.17382 103.122 4.99629C101.8 6.59361 99.4122 6.79057 97.7457 8.02643C96.8561 8.67575 96.2111 9.61726 95.5813 10.5306C94.8995 11.5198 94.1982 12.55 93.9818 13.7318C93.5489 16.0931 95.1094 18.3441 95.3973 20.7271C96.0466 26.058 90.3326 30.7871 91.4126 36.0466C92.0425 39.1135 94.8757 41.2736 97.8062 42.3688C98.8387 42.7562 100.018 43.1415 100.501 44.1328C100.717 44.5656 100.754 45.0656 100.958 45.5028C101.642 46.9616 103.89 47.0179 105.098 45.9552C106.306 44.8925 106.687 43.1739 106.83 41.5701C107.41 34.5662 104.605 27.6466 104.931 20.6253C105.029 18.5021 105.626 16.0931 107.529 15.1321C110.089 13.8335 113.169 15.9979 115.987 15.5845C117.321 18.8292 117.604 22.4103 116.797 25.8242C116.349 27.6921 115.574 29.5037 115.517 31.43C115.433 34.3627 117.015 37.0422 118.383 39.6352C118.677 40.12 118.873 40.6574 118.961 41.2173C118.983 41.7854 118.877 42.3511 118.651 42.8731C117.879 44.9531 116.546 46.8837 116.394 49.0979C116.35 49.3563 116.408 49.6219 116.556 49.8381C116.709 49.9824 116.906 50.0708 117.115 50.0892C119.452 50.4896 121.474 48.4183 122.614 46.3383C123.886 44.041 124.627 41.488 124.783 38.8668C125.019 34.4601 123.439 30.1248 123.536 25.7138C123.649 20.6989 125.915 15.6494 124.588 10.812Z" fill="#3E373A"/>
<path d="M119.808 106.645L128.394 106.919L127.162 100.552L120.585 101.177L119.808 106.645Z" fill="#C3C7D9"/>
<path d="M146.412 91.5519C145.834 92.2726 143.599 93.5713 143.382 94.0041C143.166 94.437 140.497 95.7356 139.125 95.9521C137.753 96.1685 133.426 97.1079 132.632 97.6122C132.062 97.9758 127.493 99.1272 124.491 99.7657C123.678 99.9581 122.855 100.106 122.026 100.209C120.727 100.281 106.516 95.4478 106.516 95.4478L109.256 92.6341L109.408 92.5821C110.183 92.3202 113.762 91.1103 115.749 90.5346C117.987 89.8853 120.585 87.2166 120.585 87.2166C120.585 87.2166 124.407 85.918 124.913 85.773C125.42 85.6279 123.615 80.7234 123.615 80.7234C123.615 80.7234 131.911 79.572 135.157 78.5958C138.404 77.6197 145.908 77.9812 147.278 81.8056C148.648 85.6301 146.999 90.8311 146.412 91.5519Z" fill="#4B4B5B"/>
<path d="M108.607 103.744C108.607 103.744 106.949 105.476 105.289 105.333C103.629 105.19 97.8239 105.766 97.8239 105.766C96.772 106.186 95.7869 106.757 94.8998 107.461C93.5428 108.53 92.822 107.677 92.6878 107.495L92.664 107.461C91.9411 109.735 90.2832 108.002 90.2832 108.002C90.2832 108.002 91.0039 101.076 90.7832 100.21C90.5624 99.3442 92.2095 97.8573 92.2095 97.8573L94.1575 97.3617L99.0923 96.0977L106.163 98.5499L108.607 103.744Z" fill="#E7C7CA"/>
<path opacity="0.1" d="M94.1488 97.3613L92.6878 107.495L92.664 107.46C91.9411 109.735 90.2832 108.001 90.2832 108.001C90.2832 108.001 91.0039 101.075 90.7832 100.21C90.5624 99.3439 92.2095 97.857 92.2095 97.857L94.1488 97.3613Z" fill="black"/>
<path opacity="0.1" d="M104.36 68.5361C104.36 68.5361 108.183 69.8348 111.503 68.5361H104.36Z" fill="black"/>
<path opacity="0.1" d="M117.41 70.9902C117.41 70.9902 118.996 71.7824 120.223 70.9902H117.41Z" fill="black"/>
<path opacity="0.1" d="M117.41 72.8685C117.41 72.8685 120.078 73.2256 120.585 72.5049L117.41 72.8685Z" fill="black"/>
<path opacity="0.1" d="M116.544 76.9057C116.544 76.9057 121.557 76.2564 122.801 75.3906L116.544 76.9057Z" fill="black"/>
<path opacity="0.1" d="M101.248 75.3906C101.248 75.3906 104.061 76.9771 106.154 76.9057L101.248 75.3906Z" fill="black"/>
<path opacity="0.1" d="M124.489 99.7656C123.676 99.958 122.853 100.106 122.024 100.209C120.725 100.281 106.514 95.4477 106.514 95.4477L109.254 92.634L109.405 92.582C109.838 92.8872 110.193 93.1491 110.446 93.3482C111.639 94.2876 112.79 93.0604 113.223 93.0604C113.656 93.0604 117.407 96.1619 117.407 96.1619C117.407 96.1619 120.87 96.9563 121.448 97.677C122.026 98.3977 124.045 98.2549 124.405 98.7592C124.513 98.915 124.526 99.2981 124.489 99.7656Z" fill="black"/>
<path d="M97.8238 81.0184C97.8238 81.0184 94.3218 81.2197 92.3025 80.3691C90.2831 79.5185 83.5735 77.5554 81.6255 78.9341C79.6776 80.3129 74.9874 81.5314 77.1517 87.016C79.3161 92.5005 80.3269 92.6434 80.3269 92.6434C80.9966 93.1456 81.5812 93.7521 82.0584 94.4398C82.7077 95.4506 88.768 97.7578 90.2831 97.7578C91.7982 97.7578 94.4668 97.7578 98.2177 100.355C101.969 102.952 105.36 103.242 105.36 103.242C105.36 103.242 110.122 105.19 111.604 105.623C113.087 106.056 119.862 107.93 121.45 107.355C123.039 106.779 124.048 103.169 124.048 103.169C124.048 103.169 124.768 99.9222 124.407 99.4179C124.045 98.9136 122.026 99.0565 121.45 98.3357C120.875 97.615 117.409 96.8207 117.409 96.8207C117.409 96.8207 113.667 93.7169 113.234 93.7169C112.801 93.7169 111.65 94.942 110.457 94.0048C108.082 92.2452 105.586 90.6541 102.988 89.2431C100.248 87.7995 97.8238 81.0184 97.8238 81.0184Z" fill="#4B4B5B"/>
<path opacity="0.1" d="M90.7832 83.111C91.4067 82.9836 92.0513 83.0019 92.6666 83.1645C93.2819 83.327 93.8514 83.6294 94.3306 84.0482C96.0621 85.4918 101.889 88.3899 101.889 88.3899" fill="black"/>
<path opacity="0.1" d="M134.075 83.0195C134.075 83.0195 126.355 84.1883 124.913 85.7748L134.075 83.0195Z" fill="black"/>
<path d="M142.949 106.92H142.609C141.388 106.876 137.252 106.746 136.456 106.92C135.519 107.136 123.108 106.92 123.108 106.92L125.534 106.415C125.534 106.415 124.634 103.26 125.205 102.998C125.205 102.998 121.959 100.859 124.407 99.4157C126.854 97.972 129.493 98.5802 129.493 98.5802L135.638 96.4981L136.817 96.0977C136.817 96.0977 143.743 96.4591 145.618 101.221C147.492 105.982 142.949 106.92 142.949 106.92Z" fill="#E7C7CA"/>
<path opacity="0.1" d="M142.949 106.919H142.609C144.624 105.256 149.182 100.196 135.638 96.5078L136.817 96.1074C136.817 96.1074 143.743 96.4689 145.618 101.231C147.492 105.992 142.949 106.919 142.949 106.919Z" fill="black"/>
<path d="M130.216 101.309C130.425 101.309 130.595 101.14 130.595 100.931C130.595 100.721 130.425 100.552 130.216 100.552C130.007 100.552 129.837 100.721 129.837 100.931C129.837 101.14 130.007 101.309 130.216 101.309Z" fill="#4B4B5B"/>
<path d="M128.015 101.934C128.224 101.934 128.394 101.765 128.394 101.556C128.394 101.346 128.224 101.177 128.015 101.177C127.806 101.177 127.636 101.346 127.636 101.556C127.636 101.765 127.806 101.934 128.015 101.934Z" fill="#4B4B5B"/>
<g opacity="0.1">
<path opacity="0.1" d="M117.291 21.5146C117.375 19.134 116.951 16.7627 116.048 14.5583C113.235 14.9781 110.153 12.8073 107.59 14.1059C105.694 15.0669 105.099 17.4759 104.993 19.5991C104.967 20.1597 104.962 20.7203 104.973 21.2808C104.973 21.0817 104.973 20.8804 104.993 20.6813C105.092 18.558 105.688 16.1491 107.59 15.1881C110.153 13.8895 113.23 16.0539 116.048 15.6405C116.813 17.5077 117.234 19.4977 117.291 21.5146Z" fill="black"/>
<path opacity="0.1" d="M95.4867 21.1186C95.5238 20.6469 95.5144 20.1728 95.4586 19.7031C95.2291 17.7984 94.1881 15.9781 93.9998 14.1211C93.7574 16.3612 95.1837 18.5126 95.4586 20.7852C95.4867 20.9021 95.4867 21.006 95.4867 21.1186Z" fill="black"/>
<path opacity="0.1" d="M106.891 40.5412C106.757 42.1472 106.378 43.8636 105.159 44.9285C103.941 45.9933 101.696 45.9349 101.019 44.4761C100.802 44.0432 100.77 43.5389 100.56 43.106C100.079 42.1148 98.8977 41.7295 97.8652 41.3421C94.9325 40.2447 92.1037 38.0955 91.4738 35.0199C91.4176 34.7413 91.3792 34.4593 91.3591 34.1758C91.3059 34.8201 91.3445 35.4687 91.4738 36.1021C92.1037 39.169 94.9368 41.3269 97.8652 42.4243C98.8977 42.8117 100.079 43.197 100.56 44.1882C100.776 44.6211 100.813 45.1211 101.019 45.5583C101.701 47.0171 103.949 47.0734 105.159 46.0107C106.369 44.9479 106.746 43.2294 106.891 41.6234C106.957 40.7782 106.979 39.93 106.958 39.0824C106.958 39.5738 106.93 40.0586 106.891 40.5412Z" fill="black"/>
<path opacity="0.1" d="M123.608 24.6877C123.608 25.0015 123.608 25.3132 123.608 25.6249C123.73 21.5991 125.206 17.5517 125.061 13.6104C124.948 17.2552 123.691 20.9823 123.608 24.6877Z" fill="black"/>
<path opacity="0.1" d="M118.964 40.9726C119.017 40.7158 119.034 40.4527 119.014 40.1913C118.926 39.6311 118.73 39.0935 118.436 38.6091C117.185 36.2283 115.758 33.7912 115.59 31.1484C115.59 31.261 115.574 31.3649 115.572 31.4861C115.486 34.4167 117.068 37.0983 118.436 39.6913C118.668 40.0929 118.846 40.5238 118.964 40.9726Z" fill="black"/>
<path opacity="0.1" d="M124.853 37.8411C124.691 40.4633 123.945 43.0161 122.669 45.3126C121.526 47.3925 119.507 49.4638 117.167 49.0634C116.957 49.0454 116.76 48.956 116.609 48.8102C116.565 48.7606 116.53 48.7034 116.507 48.6414C116.481 48.8102 116.459 48.9812 116.446 49.1543C116.402 49.4121 116.46 49.6772 116.609 49.8924C116.76 50.0382 116.957 50.1276 117.167 50.1456C119.507 50.546 121.526 48.4747 122.669 46.3947C123.945 44.0983 124.691 41.5455 124.853 38.9233C124.879 38.4168 124.881 37.9125 124.866 37.4082C124.861 37.5532 124.861 37.6961 124.853 37.8411Z" fill="black"/>
</g>
<path opacity="0.1" d="M125.206 102.998C125.206 102.998 130.684 105.296 134.296 100.21" stroke="black" stroke-miterlimit="10"/>
<path opacity="0.1" d="M126.283 107.015C126.283 107.015 130.757 104.106 136.456 106.92" stroke="black" stroke-miterlimit="10"/>
<path opacity="0.1" d="M96.3369 106.354C96.3369 106.354 98.2156 102.116 103.233 105.348" stroke="black" stroke-miterlimit="10"/>
<path opacity="0.1" d="M90.2466 43.6819L94.0776 40.2188C94.0776 40.2188 108.932 39.2449 109.546 44.2944C109.546 44.2944 114.812 38.3077 125.888 39.641L130.573 43.3724L117.622 49.056L105.036 53.4216L95.7658 49.2725L90.2466 43.6819Z" fill="black"/>
<path d="M90.2466 43.8987L94.0776 40.4356C94.0776 40.4356 108.932 39.4617 109.546 44.5112C109.546 44.5112 114.812 38.5245 125.888 39.8577L130.573 43.5892L117.622 49.2728L105.036 53.6384L95.7658 49.4893L90.2466 43.8987Z" fill="#D5D6DB"/>
<path opacity="0.1" d="M88.5518 44.332L90.2465 64.6059L108.211 65.5084L107.432 45.3212L107.417 44.9813L88.5518 44.332Z" fill="black"/>
<path d="M88.5518 43.8984L90.2465 64.1723L108.211 65.0748L107.432 44.8876L107.417 44.5478L88.5518 43.8984Z" fill="#C02F33"/>
<path opacity="0.1" d="M131.395 43.8984L112.864 46.6775V67.0422L130.973 64.4255L131.395 43.8984Z" fill="black"/>
<path d="M131.395 43.4658L112.864 46.2449V66.6096L130.973 63.9929L131.395 43.4658Z" fill="#C02F33"/>
<path opacity="0.3" d="M127.026 48.4355L117.016 49.548L117.234 52.9591L127.019 51.8899L127.026 48.4355Z" fill="white"/>
<path d="M91.2201 75.0291L92.2396 77.7714C92.2396 77.7714 93.7546 79.07 95.4126 78.4207C97.0705 77.7714 98.5163 77.4489 99.2371 76.8169C99.9578 76.1849 100.969 73.0097 100.969 73.0097C100.969 73.0097 101.979 69.5467 102.988 68.681C103.997 67.8152 106.667 55.8873 102.988 57.0539C99.3085 58.2205 96.4948 69.0424 96.4948 69.0424C96.4948 69.0424 95.8455 69.8346 94.9083 69.9082C93.9711 69.9818 92.0946 69.7632 91.7331 70.5575C91.3717 71.3518 90.138 73.4426 91.2201 75.0291Z" fill="#BE6F72"/>
<path opacity="0.1" d="M112.864 46.6752C111.915 46.889 110.93 46.8778 109.986 46.6426C109.042 46.4073 108.167 45.9545 107.429 45.3203L108.211 65.5054C108.211 65.5054 110.05 67.4966 112.864 67.0421V46.6752Z" fill="black"/>
<path d="M112.864 46.2426C111.915 46.4564 110.93 46.4452 109.986 46.21C109.042 45.9747 108.167 45.5219 107.429 44.8877L108.211 65.0728C108.211 65.0728 110.05 67.064 112.864 66.6095V46.2426Z" fill="#C02F33"/>
<path opacity="0.1" d="M112.864 46.2426C111.915 46.4564 110.93 46.4452 109.986 46.21C109.042 45.9747 108.167 45.5219 107.429 44.8877L108.211 65.0728C108.211 65.0728 110.05 67.064 112.864 66.6095V46.2426Z" fill="black"/>
<path opacity="0.1" d="M113.297 43.9678C113.297 43.9678 120.835 41.6627 122.801 41.9874L113.297 43.9678Z" fill="black"/>
<path opacity="0.1" d="M104.865 42.9618C104.865 42.9618 97.5576 41.2302 96.3369 41.7216L104.865 42.9618Z" fill="black"/>
<path opacity="0.1" d="M118.05 44.2554C118.05 44.2554 123.091 42.407 124.913 43.2858L118.05 44.2554Z" fill="black"/>
<path opacity="0.1" d="M115.511 90.624C116.292 90.0374 117.124 89.521 117.996 89.0808C119.295 88.4553 121.675 86.832 121.675 86.832" fill="black"/>
<path opacity="0.1" d="M96.337 68.5361C96.337 68.5361 93.1749 71.1226 92.2247 71.3498C91.2745 71.5771 90.688 73.5943 90.688 73.5943" fill="black"/>
<path d="M129.537 74.6437L128.528 77.3925C128.528 77.3925 127.013 78.6911 125.353 78.0418C123.693 77.3925 122.251 77.07 121.528 76.438C120.805 75.806 119.797 72.6308 119.797 72.6308C119.797 72.6308 118.788 69.1678 117.777 68.302C116.767 67.4363 114.098 55.5084 117.777 56.675C121.457 57.8416 124.271 68.6635 124.271 68.6635C124.271 68.6635 124.92 69.4557 125.857 69.5293C126.794 69.6028 128.671 69.3842 129.032 70.1786C129.394 70.9729 130.619 73.0637 129.537 74.6437Z" fill="#BE6F72"/>
<path opacity="0.1" d="M127.768 69.5879C127.768 69.5879 129.835 70.9168 129.826 72.5055L127.768 69.5879Z" fill="black"/>
<path d="M110.23 31.0661C115.57 31.0661 119.899 26.7375 119.899 21.3978C119.899 16.0581 115.57 11.7295 110.23 11.7295C104.891 11.7295 100.562 16.0581 100.562 21.3978C100.562 26.7375 104.891 31.0661 110.23 31.0661Z" fill="#BE6F72"/>
<path d="M104.159 18.8025C105.332 18.6186 106.36 17.9368 107.481 17.545C109.99 16.6641 112.765 17.268 115.303 18.0623C116.277 18.3675 117.267 18.7116 118.288 18.7116C119.31 18.7116 120.394 18.2939 120.916 17.413C121.396 16.6035 121.303 15.5516 120.898 14.701C120.494 13.8504 119.816 13.1665 119.132 12.5215C116.881 10.396 114.089 8.40914 111.001 8.62557C109.758 8.71431 108.57 9.15801 107.427 9.64933C105.988 10.2694 104.588 10.9748 103.233 11.7618C102.192 12.3656 100.263 13.173 99.6636 14.2768C98.3 16.7637 102.038 19.1358 104.159 18.8025Z" fill="#3E373A"/>
<path opacity="0.1" d="M120.916 16.5042C120.394 17.3851 119.31 17.8029 118.289 17.8029C117.267 17.8029 116.278 17.4717 115.302 17.1665C112.763 16.3722 109.99 15.7662 107.48 16.6492C106.361 17.041 105.33 17.7314 104.157 17.9046C102.447 18.173 99.6943 16.6839 99.3956 14.79C99.0601 16.9782 102.253 18.8526 104.157 18.5539C105.33 18.3699 106.361 17.6882 107.48 17.2986C109.99 16.4155 112.763 17.0215 115.302 17.8159C116.278 18.121 117.265 18.4652 118.289 18.4522C119.312 18.4392 120.394 18.0366 120.916 17.1536C121.186 16.6731 121.293 16.1177 121.219 15.5714C121.185 15.9003 121.082 16.2183 120.916 16.5042Z" fill="black"/>
<defs>
<linearGradient id="paint0_linear" x1="112.2" y1="108.633" x2="112.2" y2="-0.00163174" gradientUnits="userSpaceOnUse">
<stop stop-color="#808080" stop-opacity="0.25"/>
<stop offset="0.54" stop-color="#808080" stop-opacity="0.12"/>
<stop offset="1" stop-color="#808080" stop-opacity="0.1"/>
</linearGradient>
</defs>
</svg>
