<svg width="250" height="146" viewBox="0 0 250 146" fill="none" xmlns="http://www.w3.org/2000/svg">
<g clip-path="url(#clip0)">
<g opacity="0.5">
<path opacity="0.5" d="M0 0V7.36541V145.979H210.248V7.36541V0H0Z" fill="url(#paint0_linear)"/>
</g>
<path d="M208.019 9.08398H3.11865V143.383H208.019V9.08398Z" fill="white"/>
<path d="M208.019 2.69629H3.11865V12.577H208.019V2.69629Z" fill="#F5F5F5"/>
<path d="M10.9159 9.88077C12.237 9.88077 13.308 8.8085 13.308 7.48579C13.308 6.16309 12.237 5.09082 10.9159 5.09082C9.59487 5.09082 8.52393 6.16309 8.52393 7.48579C8.52393 8.8085 9.59487 9.88077 10.9159 9.88077Z" fill="#FF5252"/>
<path d="M17.4965 9.88077C18.8176 9.88077 19.8885 8.8085 19.8885 7.48579C19.8885 6.16309 18.8176 5.09082 17.4965 5.09082C16.1754 5.09082 15.1045 6.16309 15.1045 7.48579C15.1045 8.8085 16.1754 9.88077 17.4965 9.88077Z" fill="#FFFF00"/>
<path d="M24.0746 9.88077C25.3957 9.88077 26.4666 8.8085 26.4666 7.48579C26.4666 6.16309 25.3957 5.09082 24.0746 5.09082C22.7536 5.09082 21.6826 6.16309 21.6826 7.48579C21.6826 8.8085 22.7536 9.88077 24.0746 9.88077Z" fill="#69F0AE"/>
<path opacity="0.5" d="M124.039 44.9922H86.356V49.0344H124.039V44.9922Z" fill="#C02F33"/>
<path d="M100.413 62.3584H59.1421V66.4006H100.413V62.3584Z" fill="#E0E0E0"/>
<path d="M109.984 66.4033H151.255V62.3611L109.984 62.3611V66.4033Z" fill="#3AD29F"/>
<path d="M151.103 71.041H58.9907V75.0833H151.103V71.041Z" fill="#E0E0E0"/>
<path d="M151.103 79.7275H58.9907V83.7698H151.103V79.7275Z" fill="#E0E0E0"/>
<path d="M124.19 98.291H85.9092V105.777H124.19V98.291Z" fill="url(#paint1_linear)"/>
<path d="M123.89 98.9736H86.207V105.099H123.89V98.9736Z" fill="#C02F33"/>
<g opacity="0.5">
<path opacity="0.5" d="M207.654 114.598C227.406 114.598 243.419 98.5649 243.419 78.7875C243.419 59.0102 227.406 42.9775 207.654 42.9775C187.901 42.9775 171.888 59.0102 171.888 78.7875C171.888 98.5649 187.901 114.598 207.654 114.598Z" fill="url(#paint2_linear)"/>
</g>
<path d="M207.653 112.306C226.142 112.306 241.13 97.2993 241.13 78.7877C241.13 60.2761 226.142 45.2695 207.653 45.2695C189.165 45.2695 174.177 60.2761 174.177 78.7877C174.177 97.2993 189.165 112.306 207.653 112.306Z" fill="#F5F5F5"/>
<g opacity="0.5">
<path opacity="0.5" d="M212.32 70.7462L211.676 70.517L211.642 70.5743H211.605V68.8267C211.605 68.6157 211.589 68.405 211.556 68.1965C212.595 67.4307 213.39 66.3799 213.845 65.1712C214.743 64.0051 215.297 62.6104 215.444 61.1452C215.591 59.6799 215.324 58.2028 214.675 56.8814C214.027 55.5599 213.021 54.4468 211.772 53.6685C210.524 52.8901 209.082 52.4775 207.612 52.4775C206.141 52.4775 204.7 52.8901 203.451 53.6685C202.203 54.4468 201.197 55.5599 200.548 56.8814C199.899 58.2028 199.633 59.6799 199.78 61.1452C199.926 62.6104 200.48 64.0051 201.378 65.1712C201.833 66.3799 202.629 67.4307 203.667 68.1965C203.635 68.405 203.619 68.6157 203.619 68.8267V70.7404C200.174 71.6906 197.137 73.747 194.973 76.5936C192.809 79.4402 191.639 82.9195 191.642 86.4968V100.821H224.26V86.4968C224.264 82.9254 223.098 79.4511 220.942 76.6062C218.785 73.7614 215.757 71.7029 212.32 70.7462Z" fill="url(#paint3_linear)"/>
</g>
<path d="M207.939 70.3906C210.002 70.3906 212.043 70.7973 213.949 71.5874C215.854 72.3775 217.585 73.5356 219.043 74.9955C220.501 76.4554 221.658 78.1886 222.447 80.0961C223.236 82.0036 223.642 84.048 223.642 86.1127V99.9095H192.237V86.1127C192.237 81.9429 193.891 77.9439 196.836 74.9955C199.781 72.047 203.775 70.3906 207.939 70.3906Z" fill="#C02F33"/>
<path d="M211.465 69.1101C211.465 66.9836 209.743 65.2598 207.619 65.2598C205.495 65.2598 203.773 66.9836 203.773 69.1101V71.0352C203.773 73.1617 205.495 74.8855 207.619 74.8855C209.743 74.8855 211.465 73.1617 211.465 71.0352V69.1101Z" fill="#FDA57D"/>
<path opacity="0.05" d="M201.107 72.0954L203.685 77.6302L206.249 75.0633L203.685 71.1328L201.107 72.0954Z" fill="black"/>
<path d="M201.195 71.8266L203.77 77.3614L206.346 74.783L203.77 70.8525L202.592 71.2135C202.477 71.2486 202.364 71.2907 202.254 71.3395L201.195 71.8266Z" fill="white"/>
<path opacity="0.05" d="M214.142 71.8262L211.553 77.6304L208.989 75.0635L211.625 70.9238L214.142 71.8262Z" fill="black"/>
<path d="M214.054 71.5575L211.479 77.3644L208.904 74.7861L211.539 70.6465L212.023 70.784C212.544 70.9339 213.055 71.1166 213.553 71.3312L214.054 71.5575Z" fill="white"/>
<path d="M206.146 74.5908L207.579 76.685L209.093 74.5908H206.146Z" fill="#FDA57D"/>
<path opacity="0.1" d="M198.139 82.1768C198.139 82.1768 196.612 97.3889 197.599 98.3801L198.139 82.1768Z" fill="black"/>
<path opacity="0.1" d="M217.018 82.1768C217.018 82.1768 218.546 97.3889 217.559 98.3801L217.018 82.1768Z" fill="black"/>
<path opacity="0.05" d="M207.619 69.9298C208.982 69.9335 210.311 69.4998 211.41 68.6922C211.266 67.7878 210.804 66.9646 210.108 66.3702C209.412 65.7759 208.528 65.4493 207.613 65.4492C206.699 65.4507 205.816 65.7779 205.121 66.3721C204.427 66.9663 203.966 67.7888 203.822 68.6922C204.922 69.501 206.253 69.9348 207.619 69.9298Z" fill="black"/>
<path d="M207.619 68.5431C211.803 68.5431 215.195 65.1467 215.195 60.9571C215.195 56.7675 211.803 53.3711 207.619 53.3711C203.434 53.3711 200.042 56.7675 200.042 60.9571C200.042 65.1467 203.434 68.5431 207.619 68.5431Z" fill="black"/>
<path d="M207.619 69.7522C211.159 69.7522 214.028 66.8792 214.028 63.3351C214.028 59.791 211.159 56.918 207.619 56.918C204.079 56.918 201.209 59.791 201.209 63.3351C201.209 66.8792 204.079 69.7522 207.619 69.7522Z" fill="#FDA57D"/>
<path opacity="0.05" d="M202.455 56.9719L204.074 58.9515C204.074 58.9515 211.176 59.5817 211.985 57.9602C212.795 56.3388 207.31 55.1699 207.31 55.1699L202.455 56.9719Z" fill="black"/>
<path d="M202.455 56.7922L204.074 58.7718C204.074 58.7718 211.176 59.402 211.985 57.7805C212.795 56.1591 207.31 54.9902 207.31 54.9902L202.455 56.7922Z" fill="black"/>
<path d="M201.195 63.725C201.443 63.725 201.645 63.362 201.645 62.9142C201.645 62.4665 201.443 62.1035 201.195 62.1035C200.947 62.1035 200.746 62.4665 200.746 62.9142C200.746 63.362 200.947 63.725 201.195 63.725Z" fill="#FDA57D"/>
<path d="M214.051 63.725C214.299 63.725 214.5 63.362 214.5 62.9142C214.5 62.4665 214.299 62.1035 214.051 62.1035C213.803 62.1035 213.602 62.4665 213.602 62.9142C213.602 63.362 213.803 63.725 214.051 63.725Z" fill="#FDA57D"/>
<g opacity="0.5">
<path opacity="0.5" d="M250 59.6139H241.11V50.7158H236V59.6139H227.11V64.7333H236V73.6314H241.11V64.7333H250V59.6139Z" fill="url(#paint4_linear)"/>
</g>
<path d="M240.727 52.4316H236.383V71.9123H240.727V52.4316Z" fill="#3AD29F"/>
<path d="M248.283 64.3488V60H228.827V64.3488H248.283Z" fill="#3AD29F"/>
</g>
<defs>
<linearGradient id="paint0_linear" x1="105.123" y1="145.979" x2="105.123" y2="0" gradientUnits="userSpaceOnUse">
<stop stop-color="#808080" stop-opacity="0.25"/>
<stop offset="0.54" stop-color="#808080" stop-opacity="0.12"/>
<stop offset="1" stop-color="#808080" stop-opacity="0.1"/>
</linearGradient>
<linearGradient id="paint1_linear" x1="14140.3" y1="2862.25" x2="14140.3" y2="2666.65" gradientUnits="userSpaceOnUse">
<stop stop-color="#808080" stop-opacity="0.25"/>
<stop offset="0.54" stop-color="#808080" stop-opacity="0.12"/>
<stop offset="1" stop-color="#808080" stop-opacity="0.1"/>
</linearGradient>
<linearGradient id="paint2_linear" x1="52085.3" y1="28692.4" x2="52085.3" y2="10787.4" gradientUnits="userSpaceOnUse">
<stop stop-color="#808080" stop-opacity="0.25"/>
<stop offset="0.54" stop-color="#808080" stop-opacity="0.12"/>
<stop offset="1" stop-color="#808080" stop-opacity="0.1"/>
</linearGradient>
<linearGradient id="paint3_linear" x1="27358.5" y1="22423.3" x2="31077" y2="22423.3" gradientUnits="userSpaceOnUse">
<stop stop-color="#808080" stop-opacity="0.25"/>
<stop offset="0.54" stop-color="#808080" stop-opacity="0.12"/>
<stop offset="1" stop-color="#808080" stop-opacity="0.1"/>
</linearGradient>
<linearGradient id="paint4_linear" x1="19311.4" y1="5940.47" x2="19311.4" y2="4107.23" gradientUnits="userSpaceOnUse">
<stop stop-color="#808080" stop-opacity="0.25"/>
<stop offset="0.54" stop-color="#808080" stop-opacity="0.12"/>
<stop offset="1" stop-color="#808080" stop-opacity="0.1"/>
</linearGradient>
<clipPath id="clip0">
<rect width="250" height="145.979" fill="white"/>
</clipPath>
</defs>
</svg>
