<svg width="193" height="176" viewBox="0 0 193 176" fill="none" xmlns="http://www.w3.org/2000/svg">
<g clip-path="url(#clip0)">
<path d="M166.297 16.1832L4.61035 63.292L8.89297 77.9908L170.58 30.882L166.297 16.1832Z" fill="#3F3D56"/>
<path d="M23.9279 130.81L0.0965351 49.016C-0.0801439 48.4096 -0.00868234 47.7578 0.295188 47.2041C0.599059 46.6504 1.11045 46.24 1.71687 46.0633L159.484 0.0965192C160.09 -0.0795662 160.742 -0.00786256 161.295 0.295899C161.849 0.599661 162.259 1.11066 162.437 1.71673L183.549 74.1801L182.896 74.3705L161.783 1.9071C161.656 1.47438 161.363 1.10959 160.968 0.892647C160.573 0.675708 160.107 0.624307 159.674 0.749713L1.9072 46.7165C1.47405 46.8428 1.10877 47.1359 0.891718 47.5314C0.674668 47.9269 0.623624 48.3925 0.749817 48.8256L24.5812 130.619L23.9279 130.81Z" fill="#3F3D56"/>
<path d="M148.63 74.5156C148.151 74.5151 147.686 74.3596 147.303 74.0724C146.92 73.7852 146.64 73.3817 146.506 72.9223L142.509 59.2034C142.345 58.6404 142.412 58.0355 142.694 57.5215C142.976 57.0075 143.45 56.6264 144.013 56.4617L157.732 52.4646C158.295 52.3013 158.9 52.3679 159.414 52.65C159.928 52.9321 160.309 53.4066 160.474 53.9694L164.471 67.6882C164.634 68.2513 164.568 68.8562 164.285 69.3702C164.003 69.8842 163.529 70.2653 162.966 70.4299L149.247 74.427C149.047 74.4857 148.839 74.5155 148.63 74.5156Z" fill="#C02F33"/>
<path d="M23.5593 49.2686C23.5182 49.1276 23.4694 48.9891 23.413 48.8535C23.0294 47.9225 22.3153 47.1661 21.4079 46.7297C20.5005 46.2932 19.4638 46.2075 18.497 46.4889C17.5302 46.7704 16.7016 47.3992 16.1703 48.2545C15.639 49.1099 15.4425 50.1314 15.6186 51.1228C15.6433 51.2674 15.6763 51.4106 15.7173 51.5515C15.9657 52.3995 16.4822 53.1442 17.1893 53.6741C17.8965 54.2041 18.7563 54.4906 19.64 54.491C20.0258 54.4918 20.4097 54.4368 20.7797 54.3277C21.8184 54.0242 22.6943 53.3211 23.2154 52.3728C23.7365 51.4244 23.8602 50.308 23.5593 49.2686ZM20.5892 53.6744C19.723 53.9258 18.7924 53.8235 18.0016 53.3898C17.2107 52.9561 16.6242 52.2265 16.3705 51.3609C16.3306 51.22 16.2988 51.0768 16.2751 50.9323C16.1475 50.1154 16.3218 49.2801 16.7654 48.5824C17.209 47.8848 17.8915 47.3726 18.6853 47.1416C19.4791 46.9106 20.3299 46.9767 21.0785 47.3274C21.8272 47.6782 22.4224 48.2897 22.7529 49.0474C22.8146 49.1805 22.8658 49.3181 22.9061 49.4591C23.1572 50.3253 23.0542 51.2558 22.6198 52.0461C22.1854 52.8365 21.4551 53.4222 20.5892 53.6745V53.6744Z" fill="#C02F33"/>
<path d="M13.5456 52.1837C13.3278 51.4359 13.3488 50.6389 13.6054 49.9036C13.862 49.1684 14.3416 48.5314 14.9773 48.0816C14.3817 48.0526 13.7878 48.1663 13.2451 48.4133C12.7023 48.6602 12.2265 49.0333 11.8571 49.5015C11.4877 49.9696 11.2356 50.5192 11.1217 51.1046C11.0077 51.6899 11.0353 52.294 11.2021 52.8664C11.3689 53.4389 11.6701 53.9633 12.0806 54.3958C12.4911 54.8284 12.999 55.1565 13.562 55.353C14.125 55.5495 14.7268 55.6086 15.3173 55.5254C15.9077 55.4422 16.4698 55.2192 16.9566 54.8748C16.1787 54.8368 15.4321 54.5571 14.8207 54.0748C14.2093 53.5924 13.7635 52.9313 13.5456 52.1837Z" fill="#C02F33"/>
<path d="M119.307 69.045C119.235 68.7847 119.112 68.5411 118.945 68.3284C118.779 68.1156 118.572 67.9378 118.336 67.805C118.101 67.6723 117.842 67.5873 117.573 67.5549C117.305 67.5225 117.033 67.5433 116.773 67.6161L94.1855 73.934L91.7529 74.6144H107.029L109.461 73.934L117.882 71.5797C118.407 71.4322 118.852 71.0825 119.119 70.6072C119.386 70.132 119.454 69.5701 119.307 69.045Z" fill="#CCCCCC"/>
<path d="M103.327 64.3268C103.18 63.8017 102.83 63.3566 102.355 63.0893C101.88 62.8219 101.318 62.7543 100.793 62.9013L66.8998 72.3799C66.4262 72.5141 66.0161 72.813 65.7435 73.2229C65.4709 73.6327 65.3537 74.1265 65.413 74.6152H74.1873L76.6232 73.9347L101.902 66.8649C102.427 66.7169 102.872 66.3666 103.14 65.8907C103.407 65.4149 103.474 64.8524 103.327 64.3268Z" fill="#CCCCCC"/>
<path d="M190.582 73.9336H26.2551C25.6237 73.9343 25.0183 74.1854 24.5719 74.6319C24.1254 75.0784 23.8742 75.6837 23.8735 76.3151V173.619C23.8742 174.25 24.1253 174.855 24.5718 175.302C25.0183 175.748 25.6237 175.999 26.2551 176H190.582C191.214 175.999 191.819 175.748 192.266 175.302C192.712 174.855 192.963 174.25 192.964 173.619V76.3151C192.963 75.6837 192.712 75.0784 192.266 74.6319C191.819 74.1855 191.214 73.9343 190.582 73.9336ZM192.283 173.619C192.283 174.07 192.104 174.502 191.785 174.821C191.466 175.14 191.033 175.32 190.582 175.32H26.2551C25.804 175.32 25.3714 175.14 25.0524 174.821C24.7334 174.502 24.5541 174.07 24.554 173.619V76.3151C24.5542 75.864 24.7335 75.4315 25.0524 75.1125C25.3714 74.7935 25.804 74.6142 26.2551 74.614H190.582C191.033 74.6142 191.466 74.7935 191.785 75.1125C192.104 75.4315 192.283 75.864 192.283 76.3151V173.619Z" fill="#3F3D56"/>
<path d="M42.2443 87.2024C41.4368 87.2024 40.6475 86.963 39.9761 86.5144C39.3047 86.0658 38.7814 85.4282 38.4724 84.6821C38.1634 83.9361 38.0825 83.1153 38.2401 82.3233C38.3976 81.5313 38.7864 80.8039 39.3574 80.2329C39.9284 79.6619 40.6558 79.2731 41.4478 79.1156C42.2398 78.958 43.0606 79.0389 43.8067 79.3479C44.5527 79.6569 45.1903 80.1802 45.6389 80.8516C46.0875 81.523 46.3269 82.3123 46.3269 83.1198C46.3257 84.2022 45.8952 85.2399 45.1298 86.0053C44.3644 86.7707 43.3267 87.2012 42.2443 87.2024ZM42.2443 79.7176C41.5714 79.7176 40.9136 79.9171 40.3541 80.2909C39.7946 80.6648 39.3586 81.1961 39.101 81.8178C38.8435 82.4395 38.7762 83.1236 38.9074 83.7835C39.0387 84.4435 39.3627 85.0497 39.8386 85.5255C40.3144 86.0013 40.9206 86.3253 41.5805 86.4566C42.2405 86.5879 42.9246 86.5205 43.5463 86.263C44.1679 86.0055 44.6993 85.5694 45.0731 85.01C45.447 84.4505 45.6465 83.7927 45.6465 83.1198C45.6455 82.2178 45.2867 81.353 44.6489 80.7152C44.0111 80.0773 43.1463 79.7186 42.2443 79.7176Z" fill="#C02F33"/>
<path d="M35.8984 83.1204C35.8985 82.3416 36.1415 81.5822 36.5936 80.9481C37.0457 80.314 37.6843 79.8366 38.4205 79.5825C37.8568 79.3881 37.2548 79.3311 36.6646 79.4164C36.0744 79.5017 35.5132 79.7268 35.0276 80.0729C34.5421 80.4191 34.1462 80.8762 33.8731 81.4063C33.6 81.9364 33.4575 82.5241 33.4575 83.1204C33.4575 83.7167 33.6 84.3043 33.8731 84.8344C34.1462 85.3645 34.5421 85.8217 35.0276 86.1678C35.5132 86.5139 36.0744 86.739 36.6646 86.8243C37.2548 86.9096 37.8568 86.8527 38.4205 86.6582C37.6843 86.4041 37.0457 85.9268 36.5936 85.2926C36.1415 84.6585 35.8985 83.8991 35.8984 83.1204Z" fill="#C02F33"/>
<path d="M58.7939 131.356C57.9821 131.355 57.2038 131.032 56.6298 130.458C56.0558 129.884 55.7329 129.106 55.7319 128.294V119.108C55.7319 118.296 56.0545 117.517 56.6288 116.943C57.203 116.369 57.9818 116.046 58.7939 116.046C59.606 116.046 60.3849 116.369 60.9591 116.943C61.5333 117.517 61.8559 118.296 61.8559 119.108V128.294C61.855 129.106 61.5321 129.884 60.9581 130.458C60.384 131.032 59.6057 131.355 58.7939 131.356Z" fill="#C02F33"/>
<path d="M66.959 131.356C66.1472 131.355 65.3689 131.032 64.7948 130.458C64.2208 129.884 63.8979 129.106 63.897 128.294V119.108C63.897 118.296 64.2196 117.517 64.7938 116.943C65.368 116.369 66.1469 116.046 66.959 116.046C67.771 116.046 68.5499 116.369 69.1241 116.943C69.6983 117.517 70.021 118.296 70.021 119.108V128.294C70.02 129.106 69.6971 129.884 69.1231 130.458C68.5491 131.032 67.7708 131.355 66.959 131.356Z" fill="#C02F33"/>
<path d="M75.1245 131.356C74.3127 131.355 73.5344 131.032 72.9604 130.458C72.3863 129.884 72.0634 129.106 72.0625 128.294V119.108C72.0625 118.296 72.3851 117.517 72.9593 116.943C73.5336 116.369 74.3124 116.046 75.1245 116.046C75.9366 116.046 76.7154 116.369 77.2897 116.943C77.8639 117.517 78.1865 118.296 78.1865 119.108V128.294C78.1856 129.106 77.8627 129.884 77.2886 130.458C76.7146 131.032 75.9363 131.355 75.1245 131.356Z" fill="#C02F33"/>
<path d="M87.7124 131.356C86.9006 131.355 86.1223 131.032 85.5483 130.458C84.9742 129.884 84.6513 129.106 84.6504 128.294V119.108C84.6504 118.296 84.973 117.517 85.5472 116.943C86.1215 116.369 86.9003 116.046 87.7124 116.046C88.5245 116.046 89.3033 116.369 89.8775 116.943C90.4518 117.517 90.7744 118.296 90.7744 119.108V128.294C90.7734 129.106 90.4506 129.884 89.8765 130.458C89.3025 131.032 88.5242 131.355 87.7124 131.356Z" fill="#C02F33"/>
<path d="M95.8779 131.356C95.0661 131.355 94.2878 131.032 93.7138 130.458C93.1398 129.884 92.8168 129.106 92.8159 128.294V119.108C92.8159 118.296 93.1385 117.517 93.7128 116.943C94.287 116.369 95.0658 116.046 95.8779 116.046C96.69 116.046 97.4688 116.369 98.0431 116.943C98.6173 117.517 98.9399 118.296 98.9399 119.108V128.294C98.939 129.106 98.6161 129.884 98.0421 130.458C97.468 131.032 96.6897 131.355 95.8779 131.356Z" fill="#C02F33"/>
<path d="M104.043 131.356C103.232 131.355 102.453 131.032 101.879 130.458C101.305 129.884 100.982 129.106 100.981 128.294V119.108C100.981 118.296 101.304 117.517 101.878 116.943C102.453 116.369 103.231 116.046 104.043 116.046C104.856 116.046 105.634 116.369 106.209 116.943C106.783 117.517 107.105 118.296 107.105 119.108V128.294C107.105 129.106 106.782 129.884 106.208 130.458C105.634 131.032 104.855 131.355 104.043 131.356Z" fill="#C02F33"/>
<path d="M116.631 131.356C115.82 131.355 115.041 131.032 114.467 130.458C113.893 129.884 113.57 129.106 113.569 128.294V119.108C113.569 118.296 113.892 117.517 114.466 116.943C115.04 116.369 115.819 116.046 116.631 116.046C117.443 116.046 118.222 116.369 118.796 116.943C119.371 117.517 119.693 118.296 119.693 119.108V128.294C119.692 129.106 119.37 129.884 118.795 130.458C118.221 131.032 117.443 131.355 116.631 131.356Z" fill="#C02F33"/>
<path d="M124.797 131.356C123.985 131.355 123.207 131.032 122.633 130.458C122.059 129.884 121.736 129.106 121.735 128.294V119.108C121.735 118.296 122.057 117.517 122.632 116.943C123.206 116.369 123.985 116.046 124.797 116.046C125.609 116.046 126.388 116.369 126.962 116.943C127.536 117.517 127.859 118.296 127.859 119.108V128.294C127.858 129.106 127.535 129.884 126.961 130.458C126.387 131.032 125.609 131.355 124.797 131.356Z" fill="#C02F33"/>
<path d="M132.962 131.356C132.15 131.355 131.372 131.032 130.798 130.458C130.224 129.884 129.901 129.106 129.9 128.294V119.108C129.9 118.296 130.223 117.517 130.797 116.943C131.371 116.369 132.15 116.046 132.962 116.046C133.774 116.046 134.553 116.369 135.127 116.943C135.701 117.517 136.024 118.296 136.024 119.108V128.294C136.023 129.106 135.7 129.884 135.126 130.458C134.552 131.032 133.774 131.355 132.962 131.356Z" fill="#C02F33"/>
<path d="M145.55 131.356C144.738 131.355 143.96 131.032 143.386 130.458C142.812 129.884 142.489 129.106 142.488 128.294V119.108C142.488 118.296 142.811 117.517 143.385 116.943C143.959 116.369 144.738 116.046 145.55 116.046C146.362 116.046 147.141 116.369 147.715 116.943C148.29 117.517 148.612 118.296 148.612 119.108V128.294C148.611 129.106 148.288 129.884 147.714 130.458C147.14 131.032 146.362 131.355 145.55 131.356Z" fill="#C02F33"/>
<path d="M153.716 131.356C152.904 131.355 152.126 131.032 151.552 130.458C150.978 129.884 150.655 129.106 150.654 128.294V119.108C150.654 118.296 150.976 117.517 151.551 116.943C152.125 116.369 152.904 116.046 153.716 116.046C154.528 116.046 155.307 116.369 155.881 116.943C156.455 117.517 156.778 118.296 156.778 119.108V128.294C156.777 129.106 156.454 129.884 155.88 130.458C155.306 131.032 154.528 131.355 153.716 131.356Z" fill="#C02F33"/>
<path d="M161.881 131.356C161.069 131.355 160.291 131.032 159.717 130.458C159.143 129.884 158.82 129.106 158.819 128.294V119.108C158.819 118.296 159.141 117.517 159.716 116.943C160.29 116.369 161.069 116.046 161.881 116.046C162.693 116.046 163.472 116.369 164.046 116.943C164.62 117.517 164.943 118.296 164.943 119.108V128.294C164.942 129.106 164.619 129.884 164.045 130.458C163.471 131.032 162.693 131.355 161.881 131.356Z" fill="#C02F33"/>
<path d="M79.5534 165.435H35.515C34.9693 165.435 34.446 165.218 34.0601 164.833C33.6743 164.447 33.4575 163.923 33.4575 163.378C33.4575 162.832 33.6743 162.309 34.0601 161.923C34.446 161.537 34.9693 161.32 35.515 161.32H79.5534C80.099 161.32 80.6223 161.537 81.0082 161.923C81.394 162.309 81.6108 162.832 81.6108 163.378C81.6108 163.923 81.394 164.447 81.0082 164.833C80.6223 165.218 80.099 165.435 79.5534 165.435Z" fill="#E6E6E6"/>
<path d="M65.4341 156.589H49.6341C49.0884 156.589 48.5651 156.373 48.1793 155.987C47.7934 155.601 47.5767 155.078 47.5767 154.532C47.5767 153.986 47.7934 153.463 48.1793 153.077C48.5651 152.691 49.0884 152.475 49.6341 152.475H65.4341C65.9798 152.475 66.5031 152.691 66.8889 153.077C67.2748 153.463 67.4915 153.986 67.4915 154.532C67.4915 155.078 67.2748 155.601 66.8889 155.987C66.5031 156.373 65.9798 156.589 65.4341 156.589Z" fill="#E6E6E6"/>
<path d="M192.16 94.2725H24.4312V94.9529H192.16V94.2725Z" fill="#3F3D56"/>
</g>
<defs>
<clipPath id="clip0">
<rect width="192.964" height="176" fill="white"/>
</clipPath>
</defs>
</svg>
