<svg width="40" height="32" viewBox="0 0 40 32" fill="none" xmlns="http://www.w3.org/2000/svg">
<path d="M22 18H21V12.5C21 12.2238 20.7763 12 20.5 12H19.6513C19.355 12 19.0656 12.0875 18.8194 12.2519L17.8612 12.8906C17.8066 12.927 17.7597 12.9738 17.7231 13.0283C17.6866 13.0829 17.6611 13.1441 17.6482 13.2084C17.6354 13.2728 17.6353 13.3391 17.648 13.4035C17.6608 13.4679 17.6861 13.5291 17.7225 13.5837L18.2775 14.4156C18.3139 14.4703 18.3607 14.5172 18.4152 14.5538C18.4697 14.5903 18.5309 14.6158 18.5953 14.6286C18.6597 14.6415 18.726 14.6416 18.7904 14.6289C18.8548 14.6161 18.916 14.5908 18.9706 14.5544L19 14.535V18H18C17.7237 18 17.5 18.2238 17.5 18.5V19.5C17.5 19.7762 17.7237 20 18 20H22C22.2763 20 22.5 19.7762 22.5 19.5V18.5C22.5 18.2238 22.2763 18 22 18ZM38 4H2C0.895625 4 0 4.89562 0 6V26C0 27.1044 0.895625 28 2 28H38C39.1044 28 40 27.1044 40 26V6C40 4.89562 39.1044 4 38 4ZM3 25V21C5.20937 21 7 22.7906 7 25H3ZM3 11V7H7C7 9.20937 5.20937 11 3 11ZM20 23C16.6863 23 14 19.8656 14 16C14 12.1337 16.6863 9 20 9C23.3137 9 26 12.1337 26 16C26 19.8669 23.3125 23 20 23ZM37 25H33C33 22.7906 34.7906 21 37 21V25ZM37 11C34.7906 11 33 9.20937 33 7H37V11Z" fill="#C02F33"/>
</svg>
