<svg width="40" height="36" viewBox="0 0 40 36" fill="none" xmlns="http://www.w3.org/2000/svg">
<g clip-path="url(#clip0)">
<path d="M36.6667 2.22217H3.33333C1.49306 2.22217 0 3.71522 0 5.5555V6.66661H40V5.5555C40 3.71522 38.5069 2.22217 36.6667 2.22217ZM0 29.9999C0 31.8402 1.49306 33.3333 3.33333 33.3333H36.6667C38.5069 33.3333 40 31.8402 40 29.9999V8.88883H0V29.9999ZM24.4444 13.8888C24.4444 13.5833 24.6944 13.3333 25 13.3333H35C35.3056 13.3333 35.5556 13.5833 35.5556 13.8888V14.9999C35.5556 15.3055 35.3056 15.5555 35 15.5555H25C24.6944 15.5555 24.4444 15.3055 24.4444 14.9999V13.8888ZM24.4444 18.3333C24.4444 18.0277 24.6944 17.7777 25 17.7777H35C35.3056 17.7777 35.5556 18.0277 35.5556 18.3333V19.4444C35.5556 19.7499 35.3056 19.9999 35 19.9999H25C24.6944 19.9999 24.4444 19.7499 24.4444 19.4444V18.3333ZM24.4444 22.7777C24.4444 22.4722 24.6944 22.2222 25 22.2222H35C35.3056 22.2222 35.5556 22.4722 35.5556 22.7777V23.8888C35.5556 24.1944 35.3056 24.4444 35 24.4444H25C24.6944 24.4444 24.4444 24.1944 24.4444 23.8888V22.7777ZM12.2222 13.3333C14.6736 13.3333 16.6667 15.3263 16.6667 17.7777C16.6667 20.2291 14.6736 22.2222 12.2222 22.2222C9.77083 22.2222 7.77778 20.2291 7.77778 17.7777C7.77778 15.3263 9.77083 13.3333 12.2222 13.3333ZM4.65972 27.5138C5.24306 25.7291 6.91667 24.4444 8.88889 24.4444H9.45833C10.3125 24.7986 11.2431 24.9999 12.2222 24.9999C13.2014 24.9999 14.1389 24.7986 14.9861 24.4444H15.5556C17.5278 24.4444 19.2014 25.7291 19.7847 27.5138C20.0069 28.2013 19.4236 28.8888 18.7014 28.8888H5.74305C5.02083 28.8888 4.4375 28.1944 4.65972 27.5138Z" fill="#C02F33"/>
</g>
<defs>
<clipPath id="clip0">
<rect width="40" height="35.5556" fill="white"/>
</clipPath>
</defs>
</svg>
