<svg width="24" height="38" viewBox="0 0 24 38" fill="none" xmlns="http://www.w3.org/2000/svg">
<g clip-path="url(#clip0)">
<path d="M20.1875 0H3.5625C1.5957 0 0 1.5957 0 3.5625V34.4375C0 36.4043 1.5957 38 3.5625 38H20.1875C22.1543 38 23.75 36.4043 23.75 34.4375V3.5625C23.75 1.5957 22.1543 0 20.1875 0ZM11.875 35.625C10.5613 35.625 9.5 34.5637 9.5 33.25C9.5 31.9363 10.5613 30.875 11.875 30.875C13.1887 30.875 14.25 31.9363 14.25 33.25C14.25 34.5637 13.1887 35.625 11.875 35.625Z" fill="#C02F33"/>
</g>
<defs>
<clipPath id="clip0">
<rect width="23.75" height="38" fill="white"/>
</clipPath>
</defs>
</svg>
