<svg width="250" height="110" viewBox="0 0 250 110" fill="none" xmlns="http://www.w3.org/2000/svg">
<g clip-path="url(#clip0)">
<path d="M110 55C110.01 62.4453 108.503 69.8146 105.571 76.6583L105.388 77.0781C100.429 88.3611 91.8289 97.6551 80.964 103.474C70.0991 109.293 57.5967 111.3 45.4564 109.175C45.126 109.116 44.7963 109.056 44.467 108.993C41.065 108.333 37.7337 107.351 34.5182 106.059C33.9959 105.849 33.4773 105.631 32.9626 105.406C32.6111 105.253 32.2596 105.096 31.9114 104.933C22.3855 100.518 14.3204 93.4717 8.66646 84.6248C3.01255 75.778 0.00559219 65.4992 0 55C0 24.6247 24.6247 0 55 0C85.3753 0 110 24.6247 110 55Z" fill="#C02F33"/>
<path opacity="0.2" d="M45.4563 109.175C45.1259 109.117 44.7962 109.056 44.4669 108.993C44.2521 102.759 43.515 89.9642 41.0009 76.5641C39.6259 69.2302 37.7172 61.7125 35.0697 54.9921C34.1627 52.6667 33.1267 50.3938 31.9666 48.1838C29.2915 43.1313 26.0468 38.8777 22.1122 35.9959L22.6915 35.2051C25.9638 37.6036 28.9047 40.9709 31.5143 45.3068C32.2969 46.6054 33.0487 47.9907 33.7696 49.4628C34.5425 51.0379 35.2796 52.7101 35.981 54.4795C36.4285 55.6055 36.8608 56.7706 37.2779 57.9747C39.0938 63.203 40.6375 69.1684 41.9089 75.8709C42.1904 77.3517 42.4584 78.8688 42.7128 80.4222C44.6833 92.4588 45.2773 103.587 45.4563 109.175Z" fill="black"/>
<path opacity="0.2" d="M32.9626 105.406C32.6111 105.253 32.2596 105.096 31.9114 104.933C31.5713 101.239 30.9465 96.6568 29.8041 92.3073C29.3038 90.3538 28.6616 88.4394 27.8824 86.5795C26.579 83.5284 24.8916 80.9347 22.7095 79.3351L23.2888 78.5459C25.5734 80.2187 27.3357 82.8629 28.6976 85.9562C30.2321 89.4417 31.2556 93.4984 31.9374 97.3744C32.4435 100.253 32.7624 103.034 32.9626 105.406Z" fill="black"/>
<path opacity="0.2" d="M16.6402 35.9728C19.3442 35.9728 21.5363 33.7808 21.5363 31.0767C21.5363 28.3727 19.3442 26.1807 16.6402 26.1807C13.9362 26.1807 11.7441 28.3727 11.7441 31.0767C11.7441 33.7808 13.9362 35.9728 16.6402 35.9728Z" fill="black"/>
<path opacity="0.2" d="M18.2169 78.1193C20.9209 78.1193 23.1129 75.9272 23.1129 73.2232C23.1129 70.5192 20.9209 68.3271 18.2169 68.3271C15.5128 68.3271 13.3208 70.5192 13.3208 73.2232C13.3208 75.9272 15.5128 78.1193 18.2169 78.1193Z" fill="black"/>
<path opacity="0.2" d="M36.0778 39.3006C35.0395 45.1582 37.3315 50.4621 37.3315 50.4621C37.3315 50.4621 41.3067 46.269 42.345 40.4115C43.3832 34.5539 41.0913 29.25 41.0913 29.25C41.0913 29.25 37.116 33.4431 36.0778 39.3006Z" fill="black"/>
<path opacity="0.2" d="M19.8061 53.2056C25.3932 55.2485 31.0074 53.9375 31.0074 53.9375C31.0074 53.9375 27.5632 49.3141 21.9762 47.2711C16.3891 45.2281 10.7749 46.5392 10.7749 46.5392C10.7749 46.5392 14.2191 51.1626 19.8061 53.2056Z" fill="black"/>
<path opacity="0.2" d="M18.8587 90.5277C22.7747 91.9596 26.7154 91.0255 26.7154 91.0255C26.7154 91.0255 24.3068 87.7697 20.3908 86.3377C16.4747 84.9058 12.5341 85.8399 12.5341 85.8399C12.5341 85.8399 14.9426 89.0957 18.8587 90.5277Z" fill="black"/>
<path d="M54.8871 67.1797C66.7291 67.1797 76.329 57.5798 76.329 45.7378C76.329 33.8958 66.7291 24.2959 54.8871 24.2959C43.0451 24.2959 33.4452 33.8958 33.4452 45.7378C33.4452 57.5798 43.0451 67.1797 54.8871 67.1797Z" fill="#D0CDE1"/>
<path d="M46.5114 62.1542C46.5114 62.1542 49.1916 74.8853 49.1916 76.2254C49.1916 77.5656 61.9227 83.5961 61.9227 83.5961L73.3137 81.5859L77.3341 69.5249C77.3341 69.5249 70.6335 59.474 70.6335 55.4536L46.5114 62.1542Z" fill="#D0CDE1"/>
<path d="M105.571 76.6581L105.388 77.0779C100.429 88.3609 91.8289 97.6549 80.964 103.474C70.099 109.292 57.5967 111.3 45.4563 109.175C45.126 109.116 44.7962 109.055 44.467 108.993C41.065 108.333 37.7337 107.351 34.5182 106.059C33.9958 105.849 33.4773 105.631 32.9626 105.406C32.6111 105.253 32.2596 105.095 31.9114 104.933C28.755 103.47 25.7447 101.712 22.921 99.68L20.3793 92.307L21.808 91.2168L24.7467 88.9729L27.8824 86.5793L28.6976 85.956L41.001 76.5637L41.909 75.8705L48.304 70.9889L48.3056 70.9873C48.3056 70.9873 55.2213 82.2557 65.2726 78.9053C75.324 75.5548 75.1043 65.9478 75.1043 65.9478L105.571 76.6581Z" fill="#2F2E41"/>
<path d="M36.2928 28.4626C36.2928 28.4626 43.1005 13.7126 56.1486 17.1164C69.1968 20.5203 76.5718 25.6261 77.1391 30.7319C77.7064 35.8376 76.8555 43.4963 76.8555 43.4963C76.8555 43.4963 75.4372 33.0011 66.3602 35.2703C57.2833 37.5396 43.1005 35.8376 43.1005 35.8376L40.8313 56.2608C40.8313 56.2608 38.2784 52.5733 35.4418 54.8425C32.6053 57.1118 27.2159 33.0011 36.2928 28.4626Z" fill="#2F2E41"/>
<path d="M34.5182 106.059C33.9959 105.849 33.4773 105.631 32.9626 105.406C32.6111 105.253 32.2596 105.095 31.9114 104.933C26.6911 102.512 21.882 99.2891 17.6586 95.3809C19.154 93.3437 20.3793 92.3071 20.3793 92.3071H30.4306L31.9374 97.3743L34.5182 106.059Z" fill="#2F2E41"/>
<path d="M96.7659 75.5552L105.389 77.0783C103.081 82.335 99.9646 87.198 96.1525 91.4905L96.7659 75.5552Z" fill="#2F2E41"/>
</g>
<g clip-path="url(#clip1)">
<path d="M250 55C250.008 62.0654 248.652 69.066 246.005 75.6169C245.998 75.6315 245.993 75.6445 245.987 75.6592V75.6608C244.208 80.0473 241.867 84.1845 239.024 87.9691C238.476 88.7013 237.91 89.4184 237.327 90.1203C237.114 90.3774 236.897 90.6328 236.681 90.8851C235.566 92.1787 234.393 93.4181 233.163 94.6032C232.876 94.8799 232.587 95.1532 232.294 95.4234C232.225 95.4868 232.157 95.5487 232.089 95.6121C230.655 96.922 229.153 98.155 227.59 99.3059C226.54 100.082 225.463 100.819 224.358 101.517C224.115 101.672 223.871 101.824 223.626 101.973C223.199 102.233 222.769 102.488 222.335 102.736C221.769 103.062 221.196 103.377 220.615 103.682C220.381 103.807 220.145 103.927 219.909 104.048C219.564 104.225 219.217 104.396 218.868 104.563C218.807 104.593 218.747 104.622 218.687 104.65C218.459 104.76 218.228 104.868 217.997 104.975C214.988 106.363 211.858 107.474 208.647 108.293C208.629 108.298 208.613 108.301 208.595 108.306C208.385 108.36 208.174 108.412 207.962 108.462C207.804 108.501 207.645 108.539 207.485 108.575C207.466 108.581 207.445 108.586 207.425 108.589C207.098 108.666 206.771 108.739 206.441 108.806C206.255 108.845 206.07 108.884 205.884 108.921C205.772 108.946 205.658 108.967 205.546 108.988C205.404 109.016 205.264 109.042 205.123 109.069C205.044 109.086 204.966 109.099 204.887 109.112C204.708 109.144 204.529 109.177 204.351 109.208C204.049 109.26 203.743 109.31 203.438 109.356C203.217 109.39 202.997 109.422 202.776 109.453C202.516 109.491 202.255 109.525 201.993 109.557C201.922 109.569 201.85 109.577 201.779 109.585C201.686 109.596 201.593 109.608 201.5 109.619C201.313 109.642 201.126 109.663 200.937 109.683C200.84 109.694 200.744 109.704 200.646 109.714C200.461 109.733 200.275 109.751 200.09 109.767C199.85 109.79 199.611 109.81 199.37 109.829C199.077 109.852 198.786 109.873 198.492 109.891C198.303 109.902 198.114 109.914 197.924 109.924C197.439 109.95 196.954 109.967 196.466 109.98C196.223 109.987 195.979 109.992 195.735 109.995H195.73C195.488 109.998 195.244 110 195 110C192.526 110.001 190.055 109.836 187.604 109.505C185.806 109.264 184.036 108.938 182.296 108.526C182.226 108.509 182.156 108.493 182.088 108.475C181.912 108.435 181.738 108.391 181.564 108.347C181.409 108.308 181.256 108.267 181.102 108.226C177.117 107.19 173.264 105.705 169.613 103.802C169.595 103.792 169.576 103.782 169.558 103.773C169.452 103.717 169.348 103.664 169.244 103.607C169.015 103.486 168.786 103.364 168.559 103.239C167.265 102.528 166.005 101.767 164.777 100.958C164.462 100.751 164.149 100.541 163.84 100.328C163.741 100.259 163.643 100.191 163.545 100.123C163.443 100.051 163.34 99.9796 163.24 99.908C162.971 99.7176 162.704 99.525 162.439 99.3303C161.341 98.5232 160.275 97.6765 159.241 96.7902C155.579 93.6536 152.343 90.0513 149.615 86.075C148.663 84.6886 147.774 83.2577 146.949 81.7824C142.377 73.5974 139.984 64.3753 140 55C140 24.6247 164.624 0 195 0C225.375 0 250 24.6247 250 55Z" fill="#C02F33"/>
<path opacity="0.2" d="M203.844 108.475C204.02 108.435 204.194 108.391 204.368 108.347C204.522 108.308 204.675 108.267 204.83 108.226C204.838 107.903 204.85 107.546 204.861 107.161C204.957 104.141 205.183 99.2784 205.717 93.4204C205.746 93.1063 205.775 92.7901 205.805 92.4717C205.995 90.4865 206.218 88.3988 206.485 86.2346C206.493 86.163 206.503 86.093 206.511 86.0214C206.727 84.2673 206.973 82.4659 207.25 80.6304C207.443 79.3466 207.653 78.0486 207.878 76.7365C207.894 76.6454 207.91 76.5526 207.927 76.4615C207.992 76.0824 208.058 75.7049 208.127 75.3241C208.317 74.2648 208.521 73.1989 208.734 72.1331C209.484 68.384 210.377 64.6121 211.443 60.9427C212.526 57.1373 213.859 53.4077 215.435 49.7784C216.656 46.959 218.112 44.2468 219.786 41.6699C219.81 41.6325 219.835 41.5967 219.859 41.5593C221.999 38.3358 224.444 35.6004 227.237 33.555L226.657 32.7642C223.982 34.725 221.528 37.3339 219.296 40.5911C219.285 40.6074 219.275 40.622 219.263 40.6383C217.585 43.1278 216.119 45.7548 214.883 48.4912C213.228 52.1515 211.831 55.9234 210.704 59.7793C209.637 63.3624 208.679 67.2444 207.832 71.4253C207.534 72.8979 207.25 74.4069 206.98 75.9522C206.934 76.2158 206.888 76.4794 206.843 76.7446C206.843 76.7479 206.841 76.7528 206.841 76.756C206.771 77.1628 206.705 77.5696 206.636 77.9813C206.467 79.0179 206.307 80.0463 206.158 81.0665C205.927 82.6384 205.718 84.1832 205.531 85.7009C205.469 86.202 205.41 86.6994 205.352 87.193C205.271 87.8895 205.194 88.5767 205.121 89.2547C205.019 90.1985 204.925 91.1222 204.84 92.0259L204.815 92.2748C204.802 92.418 204.789 92.5612 204.776 92.7028C204.116 99.8284 203.909 105.584 203.844 108.475Z" fill="black"/>
<path opacity="0.2" d="M216.318 103.802C216.336 103.792 216.356 103.782 216.374 103.773C216.709 103.598 217.041 103.421 217.373 103.239C217.482 101.94 217.628 100.513 217.82 99.013C217.861 98.7038 217.902 98.3897 217.947 98.0741C217.97 97.9048 217.994 97.734 218.019 97.5615C218.211 96.2402 218.439 94.8766 218.712 93.5065C219.823 87.9153 221.669 82.2005 224.733 78.6727C224.897 78.4823 225.065 78.3001 225.239 78.1227C225.67 77.6744 226.139 77.2634 226.64 76.8942L226.061 76.105C225.361 76.6221 224.718 77.2105 224.14 77.8607C223.937 78.0869 223.738 78.3223 223.545 78.567C220.725 82.1159 218.964 87.3702 217.867 92.5724C217.581 93.9295 217.34 95.285 217.135 96.6047C217.083 96.9497 217.033 97.2914 216.986 97.6298C216.668 99.8656 216.458 101.978 216.318 103.802Z" fill="black"/>
<path opacity="0.2" d="M232.709 33.5324C235.413 33.5324 237.605 31.3403 237.605 28.6363C237.605 25.9323 235.413 23.7402 232.709 23.7402C230.005 23.7402 227.813 25.9323 227.813 28.6363C227.813 31.3403 230.005 33.5324 232.709 33.5324Z" fill="black"/>
<path opacity="0.2" d="M231.132 75.6784C233.836 75.6784 236.028 73.4863 236.028 70.7823C236.028 68.0783 233.836 65.8862 231.132 65.8862C228.428 65.8862 226.236 68.0783 226.236 70.7823C226.236 73.4863 228.428 75.6784 231.132 75.6784Z" fill="black"/>
<path opacity="0.2" d="M213.271 36.8602C214.309 42.7177 212.018 48.0216 212.018 48.0216C212.018 48.0216 208.042 43.8286 207.004 37.971C205.966 32.1135 208.258 26.8096 208.258 26.8096C208.258 26.8096 212.233 31.0026 213.271 36.8602Z" fill="black"/>
<path opacity="0.2" d="M229.543 50.7646C223.956 52.8076 218.342 51.4966 218.342 51.4966C218.342 51.4966 221.786 46.8732 227.373 44.8302C232.96 42.7872 238.574 44.0983 238.574 44.0983C238.574 44.0983 235.13 48.7217 229.543 50.7646Z" fill="black"/>
<path opacity="0.2" d="M230.491 88.0867C226.574 89.5187 222.634 88.5846 222.634 88.5846C222.634 88.5846 225.042 85.3288 228.958 83.8968C232.874 82.4648 236.815 83.399 236.815 83.399C236.815 83.399 234.407 86.6548 230.491 88.0867Z" fill="black"/>
<path d="M211.591 87.2627L211.79 87.3652C211.77 87.5767 211.723 87.7069 211.591 87.2627Z" fill="#2F2E41"/>
<path d="M211.854 87.3312C211.855 87.354 211.859 87.3784 211.86 87.4012L211.79 87.3654C211.791 87.3442 211.793 87.3214 211.796 87.2987C211.813 87.0139 211.793 86.6771 211.854 87.3312Z" fill="#2F2E41"/>
<path d="M190.718 79.5467C205.475 79.5467 217.438 67.5836 217.438 52.8264C217.438 38.0691 205.475 26.106 190.718 26.106C175.96 26.106 163.997 38.0691 163.997 52.8264C163.997 67.5836 175.96 79.5467 190.718 79.5467Z" fill="#2F2E41"/>
<path d="M192.917 78.4573C201.854 78.4573 209.099 71.2125 209.099 62.2755C209.099 53.3386 201.854 46.0938 192.917 46.0938C183.98 46.0938 176.735 53.3386 176.735 62.2755C176.735 71.2125 183.98 78.4573 192.917 78.4573Z" fill="#D0CDE1"/>
<path d="M229.866 93.2901L229.847 93.295L226.083 94.1981L218.246 96.0792L217.177 96.3363L205.26 99.1953L204.247 99.4394L175.333 106.378C173.379 105.63 171.469 104.77 169.614 103.802C169.596 103.792 169.576 103.782 169.558 103.773C169.453 103.717 169.349 103.664 169.244 103.607C169.015 103.486 168.787 103.364 168.559 103.239C167.266 102.528 166.005 101.767 164.778 100.958C164.462 100.751 164.15 100.541 163.84 100.328C163.741 100.26 163.643 100.191 163.546 100.123C163.443 100.051 163.341 99.9796 163.24 99.908C162.971 99.7177 162.705 99.5251 162.439 99.3304C165.248 94.2258 171.936 90.833 178.624 88.9764C183.671 87.5737 184.781 82.9638 184.685 78.8616C184.661 77.9259 184.581 76.9924 184.447 76.066C184.244 74.5916 183.919 73.1363 183.478 71.7148L199.66 72.2551L201.33 76.1018C201.284 76.5244 201.269 76.9497 201.286 77.3743C201.413 80.5295 203.361 82.57 205.764 83.8865C206.076 84.0573 206.397 84.2168 206.722 84.3649C210.664 86.1564 215.303 86.2785 215.303 86.2785C216.715 86.1223 218.142 86.1491 219.548 86.3582C219.89 86.4103 220.222 86.4726 220.544 86.5453C222.425 86.9657 224.202 87.761 225.769 88.8836C226.368 89.3094 226.934 89.7787 227.463 90.2879C228.404 91.1684 229.213 92.1795 229.866 93.2901Z" fill="#D0CDE1"/>
<path d="M232.294 95.4236C232.226 95.487 232.158 95.5489 232.089 95.6123C230.656 96.9222 229.154 98.1552 227.59 99.3061C226.54 100.082 225.463 100.819 224.358 101.517C224.116 101.672 223.872 101.824 223.626 101.973C223.2 102.233 222.77 102.488 222.336 102.736C221.769 103.062 221.196 103.377 220.616 103.682C220.381 103.807 220.145 103.927 219.909 104.048C219.565 104.225 219.218 104.396 218.868 104.564C218.808 104.593 218.748 104.622 218.687 104.65L217.999 104.079L226.083 94.1983L227.709 92.2114C227.709 92.2114 228.358 92.2114 229.847 93.2952C230.67 93.9076 231.448 94.5787 232.174 95.3031C232.213 95.3438 232.254 95.3829 232.294 95.4236Z" fill="#D0CDE1"/>
<path d="M232.18 95.3127C232.158 95.4149 232.128 95.5151 232.089 95.6121C230.656 96.922 229.154 98.155 227.59 99.3059C226.233 99.7951 224.825 100.13 223.393 100.303C223.393 100.303 223.515 100.915 223.626 101.973C223.2 102.233 222.77 102.488 222.336 102.736C221.769 103.062 221.196 103.377 220.616 103.682C220.381 103.807 220.145 103.927 219.909 104.048C219.564 104.225 219.218 104.396 218.868 104.563C218.808 104.593 218.748 104.622 218.687 104.65C218.46 104.76 218.229 104.868 217.997 104.975C214.988 106.363 211.859 107.474 208.647 108.293C208.63 108.298 208.613 108.301 208.595 108.306C208.386 108.36 208.174 108.412 207.962 108.462C207.805 108.501 207.645 108.539 207.486 108.575C207.466 108.581 207.446 108.586 207.425 108.589C207.098 108.666 206.771 108.739 206.441 108.806C206.255 108.845 206.07 108.884 205.884 108.921C205.772 108.946 205.658 108.967 205.546 108.988C205.404 109.016 205.265 109.042 205.123 109.069C205.045 109.086 204.967 109.099 204.887 109.112C204.708 109.144 204.529 109.177 204.352 109.208C204.049 109.26 203.743 109.31 203.439 109.356C203.217 109.39 202.998 109.422 202.776 109.453C202.516 109.491 202.256 109.525 201.994 109.557C201.922 109.569 201.851 109.577 201.779 109.585C201.686 109.596 201.594 109.608 201.501 109.619C201.314 109.642 201.126 109.663 200.938 109.683C200.84 109.694 200.744 109.704 200.646 109.714C200.461 109.733 200.275 109.751 200.09 109.767C199.851 109.79 199.612 109.81 199.371 109.829C199.078 109.852 198.787 109.873 198.492 109.891C198.303 109.902 198.114 109.914 197.924 109.924C197.439 109.95 196.954 109.967 196.466 109.98C196.224 109.987 195.98 109.992 195.736 109.995H195.731C195.488 109.998 195.244 110 195 110C192.526 110.001 190.056 109.836 187.604 109.505C185.806 109.265 184.037 108.938 182.296 108.526C182.226 108.509 182.156 108.493 182.088 108.475C181.912 108.435 181.738 108.391 181.564 108.347C181.409 108.308 181.257 108.267 181.102 108.226C177.118 107.19 173.264 105.705 169.614 103.802C169.596 103.792 169.576 103.782 169.558 103.773C169.453 103.717 169.349 103.664 169.244 103.607C178.176 101.525 192.291 98.2433 204.539 95.4315C204.882 95.3534 205.223 95.2753 205.562 95.1972C210.086 94.159 214.323 93.1925 217.908 92.3837C218.279 92.3007 218.642 92.2194 218.998 92.1396C222.85 91.274 225.841 90.6166 227.463 90.2879C227.9 90.1879 228.342 90.1103 228.788 90.0552L232.174 95.303L232.18 95.3127Z" fill="#2F2E41"/>
<path d="M166.271 41.4556C170.667 41.4556 174.231 37.8922 174.231 33.4964C174.231 29.1006 170.667 25.5371 166.271 25.5371C161.876 25.5371 158.312 29.1006 158.312 33.4964C158.312 37.8922 161.876 41.4556 166.271 41.4556Z" fill="#2F2E41"/>
<path d="M215.164 39.1817C219.56 39.1817 223.123 35.6182 223.123 31.2225C223.123 26.8267 219.56 23.2632 215.164 23.2632C210.768 23.2632 207.205 26.8267 207.205 31.2225C207.205 35.6182 210.768 39.1817 215.164 39.1817Z" fill="#2F2E41"/>
<path d="M206.636 27.8113C206.636 25.8483 207.362 23.9545 208.674 22.4941C209.986 21.0336 211.791 20.1094 213.743 19.8991C212.631 19.7777 211.507 19.8918 210.442 20.2341C209.378 20.5764 208.397 21.1391 207.565 21.8856C206.732 22.6321 206.066 23.5456 205.611 24.5666C205.155 25.5876 204.919 26.6932 204.919 27.8113C204.919 28.9295 205.155 30.0351 205.611 31.0561C206.066 32.0771 206.732 32.9906 207.565 33.7371C208.397 34.4836 209.378 35.0463 210.442 35.3885C211.507 35.7308 212.631 35.845 213.743 35.7235C211.791 35.5133 209.986 34.5891 208.674 33.1286C207.362 31.6681 206.636 29.7744 206.636 27.8113Z" fill="#2F2E41"/>
<path d="M157.378 39.9347C156.004 38.5323 155.197 36.6717 155.112 34.7105C155.027 32.7493 155.67 30.8257 156.917 29.3096C156.038 30.0008 155.314 30.8694 154.794 31.8588C154.273 32.8483 153.966 33.9364 153.894 35.0522C153.822 36.168 153.986 37.2865 154.375 38.3348C154.764 39.3831 155.369 40.3377 156.152 41.1363C156.934 41.935 157.876 42.5598 158.916 42.9701C159.957 43.3804 161.071 43.5669 162.189 43.5175C163.306 43.4681 164.4 43.1838 165.4 42.6833C166.399 42.1828 167.283 41.4773 167.992 40.6127C166.45 41.8284 164.514 42.4317 162.555 42.3065C160.596 42.1814 158.752 41.3367 157.378 39.9347Z" fill="#2F2E41"/>
<path d="M190.718 40.3188C181.298 40.3188 173.662 44.7732 173.662 50.2679C173.662 52.7265 175.197 54.9735 177.731 56.7094L181.014 54.3303L180.121 58.0574C180.492 58.2291 180.87 58.3952 181.264 58.5488L186.17 52.8263V59.8565C187.674 60.0974 189.194 60.218 190.718 60.217C200.137 60.217 207.773 55.7627 207.773 50.2679C207.773 44.7732 200.137 40.3188 190.718 40.3188Z" fill="#2F2E41"/>
<path d="M207.205 31.2227C207.205 31.2227 205.969 36.9078 213.693 39.1819L207.205 31.2227Z" fill="#2F2E41"/>
<path d="M173.662 32.2573C173.662 32.2573 176.505 38.6133 167.977 41.4559L173.662 32.2573Z" fill="#2F2E41"/>
<path d="M177.878 68.6288C178.595 68.4281 178.786 66.87 178.304 65.1488C177.822 63.4275 176.85 62.195 176.133 62.3957C175.415 62.5965 175.225 64.1546 175.707 65.8758C176.188 67.597 177.16 68.8296 177.878 68.6288Z" fill="#D0CDE1"/>
<path d="M210.715 62.898C210.825 61.1139 210.311 59.6306 209.568 59.5848C208.824 59.539 208.133 60.9482 208.023 62.7322C207.913 64.5162 208.427 65.9995 209.17 66.0453C209.913 66.0911 210.605 64.682 210.715 62.898Z" fill="#D0CDE1"/>
</g>
<defs>
<clipPath id="clip0">
<rect width="110" height="110" fill="white"/>
</clipPath>
<clipPath id="clip1">
<rect width="110" height="110" fill="white" transform="translate(140)"/>
</clipPath>
</defs>
</svg>
