<svg width="50" height="40" viewBox="0 0 50 40" fill="none" xmlns="http://www.w3.org/2000/svg">
<g clip-path="url(#clip0)">
<path d="M48.6204 11.9685L26.8282 5.27314C25.6407 4.9083 24.3595 4.9083 23.1728 5.27314L1.37979 11.9685C-0.459277 12.5333 -0.459277 14.9653 1.37979 15.5302L5.179 16.6974C4.34541 17.7278 3.83291 18.9849 3.78213 20.3614C3.02978 20.7927 2.5001 21.5708 2.5001 22.4997C2.5001 23.3419 2.94385 24.0505 3.58291 24.5036L1.58838 33.4786C1.41494 34.2591 2.00869 34.9997 2.80791 34.9997H7.1915C7.9915 34.9997 8.58525 34.2591 8.41182 33.4786L6.41728 24.5036C7.05635 24.0505 7.5001 23.3419 7.5001 22.4997C7.5001 21.5958 6.99463 20.8395 6.27666 20.4005C6.33603 19.227 6.93603 18.1895 7.89307 17.5317L23.172 22.2263C23.8798 22.4435 25.2376 22.7145 26.8274 22.2263L48.6204 15.531C50.4603 14.9653 50.4603 12.5341 48.6204 11.9685ZM27.5618 24.6161C25.3329 25.3005 23.4337 24.9224 22.4376 24.6161L11.1079 21.1356L10.0001 29.9997C10.0001 32.7614 16.7157 34.9997 25.0001 34.9997C33.2845 34.9997 40.0001 32.7614 40.0001 29.9997L38.8923 21.1349L27.5618 24.6161Z" fill="#C02F33"/>
</g>
<defs>
<clipPath id="clip0">
<rect width="50" height="40" fill="white"/>
</clipPath>
</defs>
</svg>
