<svg width="40" height="46" viewBox="0 0 40 46" fill="none" xmlns="http://www.w3.org/2000/svg">
<g clip-path="url(#clip0)">
<path d="M28.5179 28.6248L20 37.1427L11.4821 28.6248C5.09822 28.9016 0 34.1248 0 40.5712V41.4284C0 43.7945 1.91964 45.7141 4.28571 45.7141H35.7143C38.0804 45.7141 40 43.7945 40 41.4284V40.5712C40 34.1248 34.9018 28.9016 28.5179 28.6248ZM1.21429 7.1248L1.78571 7.25872V12.473C1.16071 12.848 0.714286 13.4998 0.714286 14.2855C0.714286 15.0355 1.125 15.6605 1.70536 16.0444L0.3125 21.6069C0.160714 22.223 0.5 22.8569 0.991071 22.8569H4.72321C5.21429 22.8569 5.55357 22.223 5.40179 21.6069L4.00893 16.0444C4.58929 15.6605 5 15.0355 5 14.2855C5 13.4998 4.55357 12.848 3.92857 12.473V7.77658L9.82143 9.19623C9.05357 10.7319 8.57143 12.4462 8.57143 14.2855C8.57143 20.598 13.6875 25.7141 20 25.7141C26.3125 25.7141 31.4286 20.598 31.4286 14.2855C31.4286 12.4462 30.9554 10.7319 30.1786 9.19623L38.7768 7.1248C40.4018 6.73194 40.4018 4.70515 38.7768 4.31229L21.7768 0.205148C20.6161 -0.0716379 19.3929 -0.0716379 18.2321 0.205148L1.21429 4.30336C-0.401786 4.69622 -0.401786 6.73194 1.21429 7.1248Z" fill="#C02F33"/>
</g>
<defs>
<clipPath id="clip0">
<rect width="40" height="45.7143" fill="white"/>
</clipPath>
</defs>
</svg>
