<svg width="40" height="32" viewBox="0 0 40 32" fill="none" xmlns="http://www.w3.org/2000/svg">
<path d="M38 2H2C0.895625 2 0 2.89562 0 4V28C0 29.1044 0.895625 30 2 30H38C39.1044 30 40 29.1044 40 28V4C40 2.89562 39.1044 2 38 2ZM11 20.4925V21.5C11 21.7763 10.7762 22 10.5 22H9.5C9.22375 22 9 21.7763 9 21.5V20.4819C8.29438 20.4456 7.60812 20.1994 7.03937 19.7725C6.79562 19.5894 6.78312 19.2244 7.00375 19.0138L7.73812 18.3131C7.91125 18.1481 8.16875 18.1406 8.37125 18.2675C8.61312 18.4188 8.8875 18.5 9.1725 18.5H10.9294C11.3356 18.5 11.6669 18.13 11.6669 17.6756C11.6669 17.3038 11.4412 16.9762 11.1187 16.88L8.30625 16.0362C7.14437 15.6875 6.3325 14.5725 6.3325 13.3244C6.3325 11.7919 7.52313 10.5469 8.99938 10.5075V9.5C8.99938 9.22375 9.22313 9 9.49938 9H10.4994C10.7756 9 10.9994 9.22375 10.9994 9.5V10.5181C11.705 10.5544 12.3912 10.8 12.96 11.2275C13.2037 11.4106 13.2162 11.7756 12.9956 11.9862L12.2612 12.6869C12.0881 12.8519 11.8306 12.8594 11.6281 12.7325C11.3863 12.5806 11.1119 12.5 10.8269 12.5H9.07C8.66375 12.5 8.3325 12.87 8.3325 13.3244C8.3325 13.6962 8.55812 14.0238 8.88062 14.12L11.6931 14.9637C12.855 15.3125 13.6669 16.4275 13.6669 17.6756C13.6669 19.2087 12.4762 20.4531 11 20.4925ZM26 19.5C26 19.7763 25.7763 20 25.5 20H18.5C18.2237 20 18 19.7763 18 19.5V18.5C18 18.2237 18.2237 18 18.5 18H25.5C25.7763 18 26 18.2237 26 18.5V19.5ZM36 19.5C36 19.7763 35.7762 20 35.5 20H30.5C30.2237 20 30 19.7763 30 19.5V18.5C30 18.2237 30.2237 18 30.5 18H35.5C35.7762 18 36 18.2237 36 18.5V19.5ZM36 13.5C36 13.7762 35.7762 14 35.5 14H18.5C18.2237 14 18 13.7762 18 13.5V12.5C18 12.2238 18.2237 12 18.5 12H35.5C35.7762 12 36 12.2238 36 12.5V13.5Z" fill="#C02F33"/>
</svg>
