<svg width="329" height="174" viewBox="0 0 329 174" fill="none" xmlns="http://www.w3.org/2000/svg">
<g clip-path="url(#clip0)">
<path d="M329 31.0049V67.6281L328.38 66.7057L283.927 0.619107L283.509 0H308.144L308.559 0.619107L328.38 30.0824L329 31.0049Z" fill="#C02F33"/>
<path d="M173.531 -0.000346969C150.738 -0.0294667 128.164 4.44216 107.106 13.1576C86.0485 21.873 66.9219 34.6604 50.8255 50.785C48.0651 53.5431 45.4112 56.3776 42.8636 59.2884C37.6309 65.2488 32.8165 71.5632 28.4549 78.1867C27.1971 80.0966 25.9786 82.0313 24.7993 83.9908C20.5644 91.0211 16.8344 98.3429 13.6372 105.901C13.2872 106.724 12.9453 107.551 12.6118 108.38C10.7561 112.953 9.10486 117.585 7.6581 122.276C3.94234 134.307 1.56321 146.711 0.563711 159.262C0.188855 163.939 0.000910592 168.65 -0.00012207 173.393V173.702H329V-0.000346969H173.531ZM328.38 173.083H0.619494C0.62569 168.873 0.782654 164.702 1.09039 160.568C2.02034 147.907 4.35399 135.389 8.04846 123.242C9.49213 118.494 11.132 113.835 12.9681 109.266C16.3654 100.803 20.4314 92.6233 25.1277 84.8049C26.3018 82.8392 27.5193 80.8994 28.7802 78.9853C33.1322 72.3397 37.9372 66.0016 43.161 60.0159C74.8844 23.6433 121.568 0.61876 173.531 0.61876H328.38V173.083Z" fill="#3F3D56"/>
<path d="M153.534 148.853C157.712 161.418 156.245 173.215 156.245 173.215C156.245 173.215 148.003 164.641 143.825 152.076C139.647 139.512 141.114 127.714 141.114 127.714C141.114 127.714 149.356 136.288 153.534 148.853Z" fill="#C02F33"/>
<path d="M158.956 148.853C154.777 161.418 156.245 173.215 156.245 173.215C156.245 173.215 164.486 164.641 168.665 152.076C172.843 139.512 171.376 127.714 171.376 127.714C171.376 127.714 163.134 136.288 158.956 148.853Z" fill="#C02F33"/>
<path d="M160.638 148.989C160.918 162.226 156.031 173.065 156.031 173.065C156.031 173.065 150.69 162.442 150.41 149.205C150.13 135.968 155.017 125.129 155.017 125.129C155.017 125.129 160.358 135.752 160.638 148.989Z" fill="#3F3D56"/>
<path d="M156.028 173.862C162.554 173.862 167.845 173.572 167.845 173.214C167.845 172.857 162.554 172.566 156.028 172.566C149.503 172.566 144.212 172.857 144.212 173.214C144.212 173.572 149.503 173.862 156.028 173.862Z" fill="#3F3D56"/>
<path d="M43.3748 173.416C47.0776 173.416 50.0793 170.417 50.0793 166.717C50.0793 163.017 47.0776 160.018 43.3748 160.018C39.6721 160.018 36.6704 163.017 36.6704 166.717C36.6704 170.417 39.6721 173.416 43.3748 173.416Z" fill="#F2F2F2"/>
<path d="M44.6049 155.879C42.2012 155.882 39.8971 156.838 38.1977 158.536C36.4984 160.235 35.5427 162.538 35.5402 164.939C35.5402 164.989 35.5402 165.038 35.5433 165.088C35.5728 166.76 36.064 168.392 36.9627 169.803C37.8615 171.213 39.1327 172.349 40.6363 173.084C41.1685 173.346 41.7259 173.553 42.3 173.703C43.812 174.099 45.4008 174.099 46.9129 173.703C47.4869 173.553 48.0443 173.346 48.5765 173.084C50.42 172.186 51.9047 170.691 52.7881 168.842C53.6715 166.993 53.9016 164.899 53.4407 162.902C52.9798 160.906 51.8552 159.124 50.2504 157.849C48.6456 156.573 46.6555 155.879 44.6049 155.879ZM46.823 173.084C46.1004 173.282 45.3543 173.382 44.6049 173.381C44.4562 173.381 44.3075 173.378 44.1619 173.368H44.1588C43.5604 173.339 42.9672 173.243 42.3898 173.084C41.1692 172.75 40.0389 172.147 39.082 171.319C38.1251 170.491 37.3658 169.46 36.8599 168.301V168.298C36.1748 166.719 35.989 164.969 36.3274 163.282C36.6659 161.595 37.5125 160.051 38.7536 158.859C39.9947 157.666 41.5711 156.881 43.2715 156.608C44.9718 156.336 46.7148 156.59 48.2669 157.335C49.8189 158.081 51.1057 159.282 51.9549 160.779C52.8041 162.276 53.175 163.997 53.0179 165.71C52.8608 167.424 52.1832 169.048 51.076 170.366C49.9687 171.684 48.4848 172.632 46.823 173.084Z" fill="#3F3D56"/>
<path d="M120.818 121.198H70.631V130.102H120.818V121.198Z" fill="#F2F2F2"/>
<path d="M277.267 37.9277H227.079V46.8325H277.267V37.9277Z" fill="#F2F2F2"/>
<path d="M277.267 57.4294H227.079V66.3342H277.267V57.4294Z" fill="#F2F2F2"/>
<path d="M277.267 76.3123H227.079V85.217H277.267V76.3123Z" fill="#F2F2F2"/>
<path d="M277.267 95.1951H227.079V104.1H277.267V95.1951Z" fill="#F2F2F2"/>
<path d="M277.267 114.697H227.079V123.602H277.267V114.697Z" fill="#F2F2F2"/>
<path d="M277.267 134.199H227.079V143.103H277.267V134.199Z" fill="#F2F2F2"/>
<path d="M70.3212 118.03V130.412H137.238V118.03H70.3212ZM136.618 129.793H70.9408V118.649H136.618V129.793Z" fill="#3F3D56"/>
<path d="M181.849 51.4757C183.56 51.4757 184.947 50.0898 184.947 48.3802C184.947 46.6706 183.56 45.2847 181.849 45.2847C180.138 45.2847 178.751 46.6706 178.751 48.3802C178.751 50.0898 180.138 51.4757 181.849 51.4757Z" fill="#3F3D56"/>
<path d="M181.849 70.6679C183.56 70.6679 184.947 69.282 184.947 67.5723C184.947 65.8627 183.56 64.4768 181.849 64.4768C180.138 64.4768 178.751 65.8627 178.751 67.5723C178.751 69.282 180.138 70.6679 181.849 70.6679Z" fill="#3F3D56"/>
<path d="M181.849 89.8603C183.56 89.8603 184.947 88.4743 184.947 86.7647C184.947 85.0551 183.56 83.6692 181.849 83.6692C180.138 83.6692 178.751 85.0551 178.751 86.7647C178.751 88.4743 180.138 89.8603 181.849 89.8603Z" fill="#3F3D56"/>
<path d="M181.849 109.053C183.56 109.053 184.947 107.667 184.947 105.957C184.947 104.247 183.56 102.862 181.849 102.862C180.138 102.862 178.751 104.247 178.751 105.957C178.751 107.667 180.138 109.053 181.849 109.053Z" fill="#3F3D56"/>
<path d="M181.849 128.245C183.56 128.245 184.947 126.859 184.947 125.149C184.947 123.44 183.56 122.054 181.849 122.054C180.138 122.054 178.751 123.44 178.751 125.149C178.751 126.859 180.138 128.245 181.849 128.245Z" fill="#3F3D56"/>
<path d="M181.849 147.437C183.56 147.437 184.947 146.051 184.947 144.342C184.947 142.632 183.56 141.246 181.849 141.246C180.138 141.246 178.751 142.632 178.751 144.342C178.751 146.051 180.138 147.437 181.849 147.437Z" fill="#3F3D56"/>
<path d="M294.615 48.0706H209.731V48.6897H294.615V48.0706Z" fill="#3F3D56"/>
<path d="M294.615 67.2629H209.731V67.882H294.615V67.2629Z" fill="#3F3D56"/>
<path d="M294.615 86.4551H209.731V87.0742H294.615V86.4551Z" fill="#3F3D56"/>
<path d="M294.615 105.647H209.731V106.267H294.615V105.647Z" fill="#3F3D56"/>
<path d="M294.615 124.84H209.731V125.459H294.615V124.84Z" fill="#3F3D56"/>
<path d="M294.615 144.032H209.731V144.651H294.615V144.032Z" fill="#3F3D56"/>
<path d="M309.907 161.963L301.764 155.288L308.445 147.151L316.588 153.826L309.907 161.963ZM302.636 155.202L309.821 161.092L315.716 153.912L308.531 148.022L302.636 155.202Z" fill="#3F3D56"/>
<path d="M191.923 16.4273L184.258 10.1445L177.971 17.8028L185.635 24.0856L191.923 16.4273Z" fill="#C02F33"/>
<path d="M144.983 67.5725C144.997 76.304 142.218 84.8115 137.052 91.8538C136.463 92.6587 135.847 93.4449 135.199 94.2034C133.37 96.3569 131.325 98.3174 129.096 100.054C128.873 100.227 128.647 100.401 128.418 100.571C127.581 101.196 126.721 101.789 125.837 102.351C125.568 102.521 125.298 102.688 125.025 102.849C124.409 103.224 123.781 103.581 123.142 103.92C122.829 104.087 122.513 104.251 122.197 104.409C115.704 107.647 108.47 109.114 101.227 108.663C93.9843 108.213 86.9888 105.86 80.9473 101.843C80.6251 101.633 80.3091 101.416 79.9962 101.193C79.4076 100.778 78.8283 100.345 78.2644 99.8991C77.744 99.4905 77.2359 99.0664 76.7371 98.6331C74.1112 96.3514 71.7847 93.747 69.8131 90.8819C69.429 90.3216 69.0572 89.752 68.6979 89.1731C65.3561 83.7542 63.3173 77.635 62.7415 71.296C62.1656 64.957 63.0685 58.5709 65.3792 52.6394C67.6899 46.7078 71.3454 41.3924 76.0587 37.1106C80.772 32.8287 86.4146 29.6971 92.5433 27.9617C98.6721 26.2263 105.12 25.9344 111.381 27.1088C117.642 28.2833 123.544 30.8922 128.626 34.7306C133.707 38.5689 137.829 43.5323 140.667 49.2307C143.505 54.9291 144.982 61.2074 144.983 67.5725Z" fill="#3F3D56"/>
<path d="M102.228 65.541C108.427 65.541 113.453 60.5192 113.453 54.3246C113.453 48.1299 108.427 43.1082 102.228 43.1082C96.0282 43.1082 91.0024 48.1299 91.0024 54.3246C91.0024 60.5192 96.0282 65.541 102.228 65.541Z" fill="#A0616A"/>
<path d="M94.5104 59.6991C94.5104 59.6991 98.2521 68.1114 93.1072 71.3829C87.9623 74.6543 101.526 88.2075 101.526 88.2075L116.493 72.3176C116.493 72.3176 108.542 67.1767 109.945 58.7644L94.5104 59.6991Z" fill="#A0616A"/>
<path d="M129.096 100.054C128.873 100.227 128.647 100.401 128.418 100.571C127.581 101.196 126.721 101.79 125.837 102.351C125.568 102.521 125.298 102.688 125.026 102.849L124.911 102.227L125.989 101.667L129.096 100.054Z" fill="#A0616A"/>
<path d="M125.025 102.849C125.298 102.688 125.568 102.521 125.837 102.351L125.846 102.227L125.989 101.667L131.928 78.3944L113.925 70.1169L103.398 76.5247L93.9682 70.7144C93.9682 70.7144 88.429 70.9156 87.0256 72.3179C85.9258 73.4168 80.5322 75.9458 78.2397 76.9921C77.6015 77.2831 77.205 77.4596 77.205 77.4596C77.205 77.4596 77.5581 88.0649 78.2645 99.8991C78.8283 100.345 79.4076 100.778 79.9962 101.193C80.3091 101.416 80.6251 101.633 80.9473 101.843C86.9888 105.86 93.9843 108.213 101.227 108.663C108.47 109.114 115.704 107.647 122.197 104.409L125.025 102.849Z" fill="#C02F33"/>
<path d="M80.9473 76.9922V101.843C80.6251 101.633 80.3091 101.416 79.9962 101.193C79.4076 100.778 78.8283 100.345 78.2645 99.8992C77.744 99.4905 77.2359 99.0664 76.7372 98.6331C74.1112 96.3515 71.7847 93.747 69.8132 90.8819C69.429 90.3216 69.0572 89.752 68.6979 89.1731C69.0015 88.1764 69.3423 87.0754 69.7202 85.8702C72.0592 78.3945 77.205 76.9922 77.205 76.9922H80.9473Z" fill="#C02F33"/>
<path d="M125.025 102.849C125.298 102.688 125.568 102.521 125.837 102.351C126.72 101.79 127.58 101.197 128.418 100.571C128.647 100.401 128.873 100.227 129.096 100.054C131.325 98.3173 133.37 96.3569 135.199 94.2033C135.847 93.4449 136.463 92.6586 137.052 91.8538C135.147 85.9042 131.928 78.3944 131.928 78.3944L125.379 77.927C125.379 77.927 122.721 99.1871 122.197 104.409L125.025 102.849Z" fill="#C02F33"/>
<path d="M95.3453 41.3422C94.7837 41.8198 94.1976 42.2679 93.5894 42.6846C92.8225 43.3204 92.1141 44.0235 91.4727 44.7856L90.7489 45.5953C90.1329 46.2844 89.4794 47.0708 89.5053 47.9943C89.515 48.337 89.6204 48.6695 89.6617 49.0099C89.8254 50.3599 88.9996 51.8438 89.6794 53.0219C89.8759 53.3625 90.1799 53.6288 90.3966 53.957C90.6723 54.3777 90.7944 54.8804 90.7424 55.3806C91.4729 55.4105 92.0721 54.7564 92.3012 54.0626C92.5304 53.3688 92.4994 52.6194 92.611 51.8974C92.7225 51.1754 93.0359 50.4109 93.6925 50.0895C95.0934 49.4036 96.702 51.1868 98.1973 50.7424C99.2413 50.4321 99.7919 49.1389 100.859 48.9221C101.623 48.7669 102.359 49.2204 103.069 49.5419C103.779 49.8634 104.736 50.0122 105.238 49.4163C105.571 49.0218 105.606 48.3896 106.047 48.1214C106.576 47.8001 107.237 48.2475 107.638 48.7189C108.038 49.1903 108.48 49.7667 109.098 49.7496C109.918 49.7268 110.547 48.6352 111.325 48.8942C112.204 49.1865 111.8 50.5917 112.333 51.3485C112.784 51.9883 113.728 51.9506 114.504 51.8449C114.635 51.8581 114.767 51.838 114.888 51.7864C115.009 51.7347 115.114 51.6533 115.195 51.5497C115.276 51.446 115.329 51.3236 115.35 51.1938C115.371 51.064 115.358 50.9311 115.313 50.8076L114.989 46.5133C114.988 46.2174 114.923 45.9252 114.799 45.6563C114.573 45.2479 114.106 45.041 113.788 44.6992C113.12 43.9804 113.153 42.7204 112.322 42.1977C111.89 41.9264 111.326 41.9345 110.898 41.6583C110.349 41.3042 110.172 40.5949 109.787 40.0668C109.237 39.3119 108.275 38.9618 107.346 38.8658C106.416 38.7698 105.478 38.8856 104.544 38.8552C102.645 38.7933 100.746 38.2592 98.8371 38.5718C97.1721 38.8446 96.4731 40.2563 95.3453 41.3422Z" fill="#2F2E41"/>
<path d="M316.619 39.2192C317.336 39.2192 317.916 38.639 317.916 37.9233C317.916 37.2076 317.336 36.6274 316.619 36.6274C315.903 36.6274 315.322 37.2076 315.322 37.9233C315.322 38.639 315.903 39.2192 316.619 39.2192Z" fill="#3F3D56"/>
<path d="M307.635 23.4321C308.351 23.4321 308.932 22.8519 308.932 22.1362C308.932 21.4205 308.351 20.8403 307.635 20.8403C306.919 20.8403 306.338 21.4205 306.338 22.1362C306.338 22.8519 306.919 23.4321 307.635 23.4321Z" fill="#3F3D56"/>
<path d="M303.917 6.40667C304.634 6.40667 305.214 5.82649 305.214 5.11081C305.214 4.39512 304.634 3.81494 303.917 3.81494C303.201 3.81494 302.621 4.39512 302.621 5.11081C302.621 5.82649 303.201 6.40667 303.917 6.40667Z" fill="#3F3D56"/>
</g>
<defs>
<clipPath id="clip0">
<rect width="329" height="174" fill="white"/>
</clipPath>
</defs>
</svg>
