<svg width="250" height="146" viewBox="0 0 250 146" fill="none" xmlns="http://www.w3.org/2000/svg">
<g clip-path="url(#clip0)">
<g opacity="0.5">
<path opacity="0.5" d="M0 0V7.36541V145.979H210.248V7.36541V0H0Z" fill="url(#paint0_linear)"/>
</g>
<path d="M208.019 9.08423H3.11865V143.383H208.019V9.08423Z" fill="white"/>
<path d="M208.019 2.6958H3.11865V12.5765H208.019V2.6958Z" fill="#F5F5F5"/>
<path d="M10.9159 9.88077C12.237 9.88077 13.308 8.8085 13.308 7.48579C13.308 6.16309 12.237 5.09082 10.9159 5.09082C9.59487 5.09082 8.52393 6.16309 8.52393 7.48579C8.52393 8.8085 9.59487 9.88077 10.9159 9.88077Z" fill="#FF5252"/>
<path d="M17.4965 9.88077C18.8176 9.88077 19.8885 8.8085 19.8885 7.48579C19.8885 6.16309 18.8176 5.09082 17.4965 5.09082C16.1754 5.09082 15.1045 6.16309 15.1045 7.48579C15.1045 8.8085 16.1754 9.88077 17.4965 9.88077Z" fill="#FFFF00"/>
<path d="M24.0746 9.88077C25.3957 9.88077 26.4666 8.8085 26.4666 7.48579C26.4666 6.16309 25.3957 5.09082 24.0746 5.09082C22.7536 5.09082 21.6826 6.16309 21.6826 7.48579C21.6826 8.8085 22.7536 9.88077 24.0746 9.88077Z" fill="#69F0AE"/>
<path opacity="0.5" d="M124.039 44.9917H86.356V49.0339H124.039V44.9917Z" fill="#C02F33"/>
<path d="M100.413 62.3582H59.1421V66.4004H100.413V62.3582Z" fill="#E0E0E0"/>
<path d="M109.984 66.4033H151.255V62.3611L109.984 62.3611V66.4033Z" fill="#3AD29F"/>
<path d="M151.103 71.0413H58.9907V75.0835H151.103V71.0413Z" fill="#E0E0E0"/>
<path d="M151.103 79.7275H58.9907V83.7698H151.103V79.7275Z" fill="#E0E0E0"/>
<path d="M124.19 98.2913H85.9092V105.777H124.19V98.2913Z" fill="url(#paint1_linear)"/>
<path d="M123.89 98.9731H86.207V105.098H123.89V98.9731Z" fill="#C02F33"/>
<g opacity="0.5">
<path opacity="0.5" d="M207.654 114.598C227.406 114.598 243.419 98.5651 243.419 78.7878C243.419 59.0105 227.406 42.9778 207.654 42.9778C187.901 42.9778 171.888 59.0105 171.888 78.7878C171.888 98.5651 187.901 114.598 207.654 114.598Z" fill="url(#paint2_linear)"/>
</g>
<path d="M207.653 112.306C226.142 112.306 241.13 97.2993 241.13 78.7877C241.13 60.2761 226.142 45.2695 207.653 45.2695C189.165 45.2695 174.177 60.2761 174.177 78.7877C174.177 97.2993 189.165 112.306 207.653 112.306Z" fill="#F5F5F5"/>
<g opacity="0.5">
<path opacity="0.5" d="M212.32 70.7464L211.676 70.5172L211.642 70.5745H211.605V68.827C211.605 68.6159 211.589 68.4052 211.556 68.1967C212.595 67.431 213.39 66.3802 213.845 65.1715C214.743 64.0054 215.297 62.6106 215.444 61.1454C215.591 59.6802 215.324 58.2031 214.675 56.8816C214.027 55.5601 213.021 54.4471 211.772 53.6687C210.524 52.8904 209.082 52.4778 207.612 52.4778C206.141 52.4778 204.7 52.8904 203.451 53.6687C202.203 54.4471 201.197 55.5601 200.548 56.8816C199.899 58.2031 199.633 59.6802 199.78 61.1454C199.926 62.6106 200.48 64.0054 201.378 65.1715C201.833 66.3802 202.629 67.431 203.667 68.1967C203.635 68.4052 203.619 68.6159 203.619 68.827V70.7407C200.174 71.6908 197.137 73.7473 194.973 76.5939C192.809 79.4405 191.639 82.9198 191.642 86.4971V100.821H224.26V86.4971C224.264 82.9256 223.098 79.4513 220.942 76.6065C218.785 73.7617 215.757 71.7032 212.32 70.7464Z" fill="url(#paint3_linear)"/>
</g>
<path d="M207.939 70.3911C210.002 70.3911 212.043 70.7978 213.949 71.5879C215.854 72.378 217.585 73.5361 219.043 74.996C220.501 76.4559 221.658 78.1891 222.447 80.0966C223.236 82.0041 223.642 84.0485 223.642 86.1131V99.91H192.237V86.1131C192.237 81.9434 193.891 77.9444 196.836 74.996C199.781 72.0475 203.775 70.3911 207.939 70.3911Z" fill="#C02F33"/>
<path d="M211.465 69.1106C211.465 66.9841 209.743 65.2603 207.619 65.2603C205.495 65.2603 203.773 66.9841 203.773 69.1106V71.0357C203.773 73.1622 205.495 74.886 207.619 74.886C209.743 74.886 211.465 73.1622 211.465 71.0357V69.1106Z" fill="#FDA57D"/>
<path opacity="0.05" d="M201.107 72.0956L203.685 77.6304L206.249 75.0636L203.685 71.1331L201.107 72.0956Z" fill="black"/>
<path d="M201.195 71.8263L203.77 77.3611L206.346 74.7828L203.77 70.8523L202.592 71.2133C202.477 71.2484 202.364 71.2905 202.254 71.3393L201.195 71.8263Z" fill="white"/>
<path opacity="0.05" d="M214.142 71.8262L211.553 77.6304L208.989 75.0635L211.625 70.9238L214.142 71.8262Z" fill="black"/>
<path d="M214.054 71.557L211.479 77.364L208.904 74.7856L211.539 70.646L212.023 70.7835C212.544 70.9334 213.055 71.1161 213.553 71.3307L214.054 71.557Z" fill="white"/>
<path d="M206.146 74.5908L207.579 76.685L209.093 74.5908H206.146Z" fill="#FDA57D"/>
<path opacity="0.1" d="M198.139 82.1768C198.139 82.1768 196.612 97.3889 197.599 98.3801L198.139 82.1768Z" fill="black"/>
<path opacity="0.1" d="M217.018 82.1768C217.018 82.1768 218.546 97.3889 217.559 98.3801L217.018 82.1768Z" fill="black"/>
<path opacity="0.05" d="M207.619 69.9298C208.982 69.9335 210.311 69.4998 211.41 68.6922C211.266 67.7878 210.804 66.9646 210.108 66.3702C209.412 65.7759 208.528 65.4493 207.613 65.4492C206.699 65.4507 205.816 65.7779 205.121 66.3721C204.427 66.9663 203.966 67.7888 203.822 68.6922C204.922 69.501 206.253 69.9348 207.619 69.9298Z" fill="black"/>
<path d="M207.619 68.5433C211.803 68.5433 215.195 65.147 215.195 60.9573C215.195 56.7677 211.803 53.3713 207.619 53.3713C203.434 53.3713 200.042 56.7677 200.042 60.9573C200.042 65.147 203.434 68.5433 207.619 68.5433Z" fill="black"/>
<path d="M207.619 69.7522C211.159 69.7522 214.028 66.8792 214.028 63.3351C214.028 59.791 211.159 56.918 207.619 56.918C204.079 56.918 201.209 59.791 201.209 63.3351C201.209 66.8792 204.079 69.7522 207.619 69.7522Z" fill="#FDA57D"/>
<path opacity="0.05" d="M202.455 56.9724L204.074 58.9519C204.074 58.9519 211.176 59.5822 211.985 57.9607C212.795 56.3393 207.31 55.1704 207.31 55.1704L202.455 56.9724Z" fill="black"/>
<path d="M202.455 56.7919L204.074 58.7715C204.074 58.7715 211.176 59.4018 211.985 57.7803C212.795 56.1588 207.31 54.99 207.31 54.99L202.455 56.7919Z" fill="black"/>
<path d="M201.195 63.7247C201.443 63.7247 201.645 63.3618 201.645 62.914C201.645 62.4662 201.443 62.1033 201.195 62.1033C200.947 62.1033 200.746 62.4662 200.746 62.914C200.746 63.3618 200.947 63.7247 201.195 63.7247Z" fill="#FDA57D"/>
<path d="M214.051 63.7247C214.299 63.7247 214.5 63.3618 214.5 62.914C214.5 62.4662 214.299 62.1033 214.051 62.1033C213.803 62.1033 213.602 62.4662 213.602 62.914C213.602 63.3618 213.803 63.7247 214.051 63.7247Z" fill="#FDA57D"/>
<g opacity="0.5">
<path opacity="0.5" d="M250 59.6137H241.11V50.7156H236V59.6137H227.11V64.7331H236V73.6311H241.11V64.7331H250V59.6137Z" fill="url(#paint4_linear)"/>
</g>
<path d="M240.727 52.4316H236.383V71.9123H240.727V52.4316Z" fill="#3AD29F"/>
<path d="M248.283 64.3492V60.0005H228.827V64.3492H248.283Z" fill="#3AD29F"/>
</g>
<defs>
<linearGradient id="paint0_linear" x1="105.123" y1="145.979" x2="105.123" y2="0" gradientUnits="userSpaceOnUse">
<stop stop-color="#808080" stop-opacity="0.25"/>
<stop offset="0.54" stop-color="#808080" stop-opacity="0.12"/>
<stop offset="1" stop-color="#808080" stop-opacity="0.1"/>
</linearGradient>
<linearGradient id="paint1_linear" x1="14140.3" y1="2862.25" x2="14140.3" y2="2666.65" gradientUnits="userSpaceOnUse">
<stop stop-color="#808080" stop-opacity="0.25"/>
<stop offset="0.54" stop-color="#808080" stop-opacity="0.12"/>
<stop offset="1" stop-color="#808080" stop-opacity="0.1"/>
</linearGradient>
<linearGradient id="paint2_linear" x1="52085.3" y1="28692.4" x2="52085.3" y2="10787.4" gradientUnits="userSpaceOnUse">
<stop stop-color="#808080" stop-opacity="0.25"/>
<stop offset="0.54" stop-color="#808080" stop-opacity="0.12"/>
<stop offset="1" stop-color="#808080" stop-opacity="0.1"/>
</linearGradient>
<linearGradient id="paint3_linear" x1="27358.5" y1="22423.3" x2="31077" y2="22423.3" gradientUnits="userSpaceOnUse">
<stop stop-color="#808080" stop-opacity="0.25"/>
<stop offset="0.54" stop-color="#808080" stop-opacity="0.12"/>
<stop offset="1" stop-color="#808080" stop-opacity="0.1"/>
</linearGradient>
<linearGradient id="paint4_linear" x1="19311.4" y1="5940.47" x2="19311.4" y2="4107.23" gradientUnits="userSpaceOnUse">
<stop stop-color="#808080" stop-opacity="0.25"/>
<stop offset="0.54" stop-color="#808080" stop-opacity="0.12"/>
<stop offset="1" stop-color="#808080" stop-opacity="0.1"/>
</linearGradient>
<clipPath id="clip0">
<rect width="250" height="145.979" fill="white"/>
</clipPath>
</defs>
</svg>
