<svg width="193" height="176" viewBox="0 0 193 176" fill="none" xmlns="http://www.w3.org/2000/svg">
<g clip-path="url(#clip0)">
<path d="M166.297 16.1832L4.61035 63.292L8.89297 77.9908L170.58 30.882L166.297 16.1832Z" fill="#3F3D56"/>
<path d="M23.9279 130.809L0.0965351 49.0155C-0.0801439 48.4091 -0.00868234 47.7573 0.295188 47.2036C0.599059 46.6499 1.11045 46.2395 1.71687 46.0628L159.484 0.0960309C160.09 -0.0800545 160.742 -0.00835084 161.295 0.295411C161.849 0.599172 162.259 1.11017 162.437 1.71624L183.549 74.1796L182.896 74.37L161.783 1.90662C161.656 1.47389 161.363 1.1091 160.968 0.892159C160.573 0.675219 160.107 0.623819 159.674 0.749225L1.9072 46.716C1.47405 46.8423 1.10877 47.1354 0.891718 47.5309C0.674668 47.9264 0.623624 48.392 0.749817 48.8252L24.5812 130.619L23.9279 130.809Z" fill="#3F3D56"/>
<path d="M148.63 74.5161C148.151 74.5156 147.686 74.3601 147.303 74.0729C146.92 73.7856 146.64 73.3822 146.506 72.9228L142.509 59.2039C142.345 58.6409 142.412 58.036 142.694 57.522C142.976 57.008 143.45 56.6269 144.013 56.4622L157.732 52.4651C158.295 52.3018 158.9 52.3684 159.414 52.6505C159.928 52.9326 160.309 53.4071 160.474 53.9699L164.471 67.6887C164.634 68.2518 164.568 68.8567 164.285 69.3707C164.003 69.8846 163.529 70.2658 162.966 70.4304L149.247 74.4275C149.047 74.4862 148.839 74.516 148.63 74.5161Z" fill="#C02F33"/>
<path d="M23.5593 49.2681C23.5182 49.1271 23.4694 48.9886 23.413 48.853C23.0294 47.922 22.3153 47.1656 21.4079 46.7292C20.5005 46.2927 19.4638 46.207 18.497 46.4884C17.5302 46.7699 16.7016 47.3987 16.1703 48.2541C15.639 49.1094 15.4425 50.1309 15.6186 51.1223C15.6433 51.2669 15.6763 51.4101 15.7173 51.551C15.9657 52.399 16.4822 53.1437 17.1893 53.6736C17.8965 54.2036 18.7563 54.4901 19.64 54.4905C20.0258 54.4913 20.4097 54.4363 20.7797 54.3272C21.8184 54.0237 22.6943 53.3207 23.2154 52.3723C23.7365 51.4239 23.8602 50.3075 23.5593 49.2681ZM20.5892 53.674C19.723 53.9254 18.7924 53.823 18.0016 53.3893C17.2107 52.9556 16.6242 52.226 16.3705 51.3605C16.3306 51.2195 16.2988 51.0763 16.2751 50.9318C16.1475 50.1149 16.3218 49.2796 16.7654 48.5819C17.209 47.8843 17.8915 47.3721 18.6853 47.1411C19.4791 46.9101 20.3299 46.9762 21.0785 47.327C21.8272 47.6777 22.4224 48.2892 22.7529 49.0469C22.8146 49.18 22.8658 49.3176 22.9061 49.4586C23.1572 50.3248 23.0542 51.2553 22.6198 52.0457C22.1854 52.836 21.4551 53.4217 20.5892 53.674V53.674Z" fill="#C02F33"/>
<path d="M13.5456 52.1839C13.3278 51.4362 13.3488 50.6392 13.6054 49.9039C13.862 49.1686 14.3416 48.5317 14.9773 48.0818C14.3817 48.0528 13.7878 48.1665 13.2451 48.4135C12.7023 48.6605 12.2265 49.0336 11.8571 49.5017C11.4877 49.9699 11.2356 50.5195 11.1217 51.1048C11.0077 51.6901 11.0353 52.2942 11.2021 52.8667C11.3689 53.4392 11.6701 53.9635 12.0806 54.3961C12.4911 54.8286 12.999 55.1568 13.562 55.3533C14.125 55.5497 14.7268 55.6089 15.3173 55.5257C15.9077 55.4425 16.4698 55.2194 16.9566 54.875C16.1787 54.837 15.4321 54.5574 14.8207 54.075C14.2093 53.5926 13.7635 52.9316 13.5456 52.1839Z" fill="#C02F33"/>
<path d="M119.307 69.0453C119.235 68.7849 119.112 68.5414 118.945 68.3286C118.779 68.1158 118.572 67.938 118.336 67.8053C118.101 67.6726 117.842 67.5876 117.573 67.5551C117.305 67.5227 117.033 67.5435 116.773 67.6163L94.1855 73.9342L91.7529 74.6147H107.029L109.461 73.9342L117.882 71.5799C118.407 71.4324 118.852 71.0827 119.119 70.6075C119.386 70.1323 119.454 69.5704 119.307 69.0453Z" fill="#CCCCCC"/>
<path d="M103.327 64.3264C103.18 63.8013 102.83 63.3561 102.355 63.0888C101.88 62.8214 101.318 62.7538 100.793 62.9008L66.8998 72.3794C66.4262 72.5136 66.0161 72.8125 65.7435 73.2224C65.4709 73.6322 65.3537 74.126 65.413 74.6147H74.1873L76.6232 73.9342L101.902 66.8644C102.427 66.7165 102.872 66.3661 103.14 65.8902C103.407 65.4144 103.474 64.8519 103.327 64.3264Z" fill="#CCCCCC"/>
<path d="M190.582 73.9333H26.2551C25.6237 73.9341 25.0183 74.1852 24.5719 74.6317C24.1254 75.0781 23.8742 75.6835 23.8735 76.3149V173.618C23.8742 174.25 24.1253 174.855 24.5718 175.302C25.0183 175.748 25.6237 175.999 26.2551 176H190.582C191.214 175.999 191.819 175.748 192.266 175.302C192.712 174.855 192.963 174.25 192.964 173.618V76.3149C192.963 75.6835 192.712 75.0782 192.266 74.6317C191.819 74.1852 191.214 73.9341 190.582 73.9333ZM192.283 173.618C192.283 174.069 192.104 174.502 191.785 174.821C191.466 175.14 191.033 175.319 190.582 175.319H26.2551C25.804 175.319 25.3714 175.14 25.0524 174.821C24.7334 174.502 24.5541 174.069 24.554 173.618V76.3149C24.5542 75.8638 24.7335 75.4312 25.0524 75.1122C25.3714 74.7933 25.804 74.614 26.2551 74.6138H190.582C191.033 74.614 191.466 74.7933 191.785 75.1122C192.104 75.4312 192.283 75.8638 192.283 76.3149V173.618Z" fill="#3F3D56"/>
<path d="M42.2443 87.2029C41.4368 87.2029 40.6475 86.9635 39.9761 86.5149C39.3047 86.0663 38.7814 85.4286 38.4724 84.6826C38.1634 83.9366 38.0825 83.1157 38.2401 82.3238C38.3976 81.5318 38.7864 80.8044 39.3574 80.2334C39.9284 79.6624 40.6558 79.2736 41.4478 79.116C42.2398 78.9585 43.0606 79.0394 43.8067 79.3484C44.5527 79.6574 45.1903 80.1807 45.6389 80.8521C46.0875 81.5234 46.3269 82.3128 46.3269 83.1203C46.3257 84.2027 45.8952 85.2404 45.1298 86.0058C44.3644 86.7712 43.3267 87.2017 42.2443 87.2029ZM42.2443 79.718C41.5714 79.718 40.9136 79.9176 40.3541 80.2914C39.7946 80.6653 39.3586 81.1966 39.101 81.8183C38.8435 82.44 38.7762 83.124 38.9074 83.784C39.0387 84.444 39.3627 85.0502 39.8386 85.526C40.3144 86.0018 40.9206 86.3258 41.5805 86.4571C42.2405 86.5884 42.9246 86.521 43.5463 86.2635C44.1679 86.006 44.6993 85.5699 45.0731 85.0104C45.447 84.4509 45.6465 83.7932 45.6465 83.1203C45.6455 82.2182 45.2867 81.3535 44.6489 80.7157C44.0111 80.0778 43.1463 79.7191 42.2443 79.718Z" fill="#C02F33"/>
<path d="M35.8984 83.1201C35.8985 82.3413 36.1415 81.582 36.5936 80.9479C37.0457 80.3137 37.6843 79.8364 38.4205 79.5823C37.8568 79.3878 37.2548 79.3309 36.6646 79.4162C36.0744 79.5015 35.5132 79.7266 35.0276 80.0727C34.5421 80.4188 34.1462 80.876 33.8731 81.4061C33.6 81.9361 33.4575 82.5238 33.4575 83.1201C33.4575 83.7164 33.6 84.3041 33.8731 84.8342C34.1462 85.3643 34.5421 85.8214 35.0276 86.1676C35.5132 86.5137 36.0744 86.7388 36.6646 86.8241C37.2548 86.9094 37.8568 86.8524 38.4205 86.6579C37.6843 86.4039 37.0457 85.9265 36.5936 85.2924C36.1415 84.6583 35.8985 83.8989 35.8984 83.1201Z" fill="#C02F33"/>
<path d="M58.7939 131.356C57.9821 131.355 57.2038 131.032 56.6298 130.458C56.0558 129.884 55.7329 129.106 55.7319 128.294V119.108C55.7319 118.296 56.0545 117.517 56.6288 116.943C57.203 116.369 57.9818 116.046 58.7939 116.046C59.606 116.046 60.3849 116.369 60.9591 116.943C61.5333 117.517 61.8559 118.296 61.8559 119.108V128.294C61.855 129.106 61.5321 129.884 60.9581 130.458C60.384 131.032 59.6057 131.355 58.7939 131.356Z" fill="#C02F33"/>
<path d="M66.959 131.356C66.1472 131.355 65.3689 131.032 64.7948 130.458C64.2208 129.884 63.8979 129.106 63.897 128.294V119.108C63.897 118.296 64.2196 117.517 64.7938 116.943C65.368 116.369 66.1469 116.046 66.959 116.046C67.771 116.046 68.5499 116.369 69.1241 116.943C69.6983 117.517 70.021 118.296 70.021 119.108V128.294C70.02 129.106 69.6971 129.884 69.1231 130.458C68.5491 131.032 67.7708 131.355 66.959 131.356Z" fill="#C02F33"/>
<path d="M75.1245 131.356C74.3127 131.355 73.5344 131.032 72.9604 130.458C72.3863 129.884 72.0634 129.106 72.0625 128.294V119.108C72.0625 118.296 72.3851 117.517 72.9593 116.943C73.5336 116.369 74.3124 116.046 75.1245 116.046C75.9366 116.046 76.7154 116.369 77.2897 116.943C77.8639 117.517 78.1865 118.296 78.1865 119.108V128.294C78.1856 129.106 77.8627 129.884 77.2886 130.458C76.7146 131.032 75.9363 131.355 75.1245 131.356Z" fill="#C02F33"/>
<path d="M87.7124 131.356C86.9006 131.355 86.1223 131.032 85.5483 130.458C84.9742 129.884 84.6513 129.106 84.6504 128.294V119.108C84.6504 118.296 84.973 117.517 85.5472 116.943C86.1215 116.369 86.9003 116.046 87.7124 116.046C88.5245 116.046 89.3033 116.369 89.8775 116.943C90.4518 117.517 90.7744 118.296 90.7744 119.108V128.294C90.7734 129.106 90.4506 129.884 89.8765 130.458C89.3025 131.032 88.5242 131.355 87.7124 131.356Z" fill="#C02F33"/>
<path d="M95.8779 131.356C95.0661 131.355 94.2878 131.032 93.7138 130.458C93.1398 129.884 92.8168 129.106 92.8159 128.294V119.108C92.8159 118.296 93.1385 117.517 93.7128 116.943C94.287 116.369 95.0658 116.046 95.8779 116.046C96.69 116.046 97.4688 116.369 98.0431 116.943C98.6173 117.517 98.9399 118.296 98.9399 119.108V128.294C98.939 129.106 98.6161 129.884 98.0421 130.458C97.468 131.032 96.6897 131.355 95.8779 131.356Z" fill="#C02F33"/>
<path d="M104.043 131.356C103.232 131.355 102.453 131.032 101.879 130.458C101.305 129.884 100.982 129.106 100.981 128.294V119.108C100.981 118.296 101.304 117.517 101.878 116.943C102.453 116.369 103.231 116.046 104.043 116.046C104.856 116.046 105.634 116.369 106.209 116.943C106.783 117.517 107.105 118.296 107.105 119.108V128.294C107.105 129.106 106.782 129.884 106.208 130.458C105.634 131.032 104.855 131.355 104.043 131.356Z" fill="#C02F33"/>
<path d="M116.631 131.356C115.82 131.355 115.041 131.032 114.467 130.458C113.893 129.884 113.57 129.106 113.569 128.294V119.108C113.569 118.296 113.892 117.517 114.466 116.943C115.04 116.369 115.819 116.046 116.631 116.046C117.443 116.046 118.222 116.369 118.796 116.943C119.371 117.517 119.693 118.296 119.693 119.108V128.294C119.692 129.106 119.37 129.884 118.795 130.458C118.221 131.032 117.443 131.355 116.631 131.356Z" fill="#C02F33"/>
<path d="M124.797 131.356C123.985 131.355 123.207 131.032 122.633 130.458C122.059 129.884 121.736 129.106 121.735 128.294V119.108C121.735 118.296 122.057 117.517 122.632 116.943C123.206 116.369 123.985 116.046 124.797 116.046C125.609 116.046 126.388 116.369 126.962 116.943C127.536 117.517 127.859 118.296 127.859 119.108V128.294C127.858 129.106 127.535 129.884 126.961 130.458C126.387 131.032 125.609 131.355 124.797 131.356Z" fill="#C02F33"/>
<path d="M132.962 131.356C132.15 131.355 131.372 131.032 130.798 130.458C130.224 129.884 129.901 129.106 129.9 128.294V119.108C129.9 118.296 130.223 117.517 130.797 116.943C131.371 116.369 132.15 116.046 132.962 116.046C133.774 116.046 134.553 116.369 135.127 116.943C135.701 117.517 136.024 118.296 136.024 119.108V128.294C136.023 129.106 135.7 129.884 135.126 130.458C134.552 131.032 133.774 131.355 132.962 131.356Z" fill="#C02F33"/>
<path d="M145.55 131.356C144.738 131.355 143.96 131.032 143.386 130.458C142.812 129.884 142.489 129.106 142.488 128.294V119.108C142.488 118.296 142.811 117.517 143.385 116.943C143.959 116.369 144.738 116.046 145.55 116.046C146.362 116.046 147.141 116.369 147.715 116.943C148.29 117.517 148.612 118.296 148.612 119.108V128.294C148.611 129.106 148.288 129.884 147.714 130.458C147.14 131.032 146.362 131.355 145.55 131.356Z" fill="#C02F33"/>
<path d="M153.716 131.356C152.904 131.355 152.126 131.032 151.552 130.458C150.978 129.884 150.655 129.106 150.654 128.294V119.108C150.654 118.296 150.976 117.517 151.551 116.943C152.125 116.369 152.904 116.046 153.716 116.046C154.528 116.046 155.307 116.369 155.881 116.943C156.455 117.517 156.778 118.296 156.778 119.108V128.294C156.777 129.106 156.454 129.884 155.88 130.458C155.306 131.032 154.528 131.355 153.716 131.356Z" fill="#C02F33"/>
<path d="M161.881 131.356C161.069 131.355 160.291 131.032 159.717 130.458C159.143 129.884 158.82 129.106 158.819 128.294V119.108C158.819 118.296 159.141 117.517 159.716 116.943C160.29 116.369 161.069 116.046 161.881 116.046C162.693 116.046 163.472 116.369 164.046 116.943C164.62 117.517 164.943 118.296 164.943 119.108V128.294C164.942 129.106 164.619 129.884 164.045 130.458C163.471 131.032 162.693 131.355 161.881 131.356Z" fill="#C02F33"/>
<path d="M79.5534 165.435H35.515C34.9693 165.435 34.446 165.218 34.0601 164.833C33.6743 164.447 33.4575 163.923 33.4575 163.378C33.4575 162.832 33.6743 162.309 34.0601 161.923C34.446 161.537 34.9693 161.32 35.515 161.32H79.5534C80.099 161.32 80.6223 161.537 81.0082 161.923C81.394 162.309 81.6108 162.832 81.6108 163.378C81.6108 163.923 81.394 164.447 81.0082 164.833C80.6223 165.218 80.099 165.435 79.5534 165.435Z" fill="#E6E6E6"/>
<path d="M65.4341 156.589H49.6341C49.0884 156.589 48.5651 156.373 48.1793 155.987C47.7934 155.601 47.5767 155.078 47.5767 154.532C47.5767 153.986 47.7934 153.463 48.1793 153.077C48.5651 152.691 49.0884 152.475 49.6341 152.475H65.4341C65.9798 152.475 66.5031 152.691 66.8889 153.077C67.2748 153.463 67.4915 153.986 67.4915 154.532C67.4915 155.078 67.2748 155.601 66.8889 155.987C66.5031 156.373 65.9798 156.589 65.4341 156.589Z" fill="#E6E6E6"/>
<path d="M192.16 94.272H24.4312V94.9524H192.16V94.272Z" fill="#3F3D56"/>
</g>
<defs>
<clipPath id="clip0">
<rect width="192.964" height="176" fill="white"/>
</clipPath>
</defs>
</svg>
