<svg width="193" height="147" viewBox="0 0 193 147" fill="none" xmlns="http://www.w3.org/2000/svg">
<path d="M151.97 122L121 100.078C131.445 89.8944 140.945 75.3945 150.03 59L181 80.9224C168.625 94.9882 158.142 108.792 151.97 122Z" fill="#C02F33"/>
<path d="M152 99C156.971 99 161 94.9706 161 90C161 85.0294 156.971 81 152 81C147.029 81 143 85.0294 143 90C143 94.9706 147.029 99 152 99Z" fill="white"/>
<path d="M3.58084 23H0.419164C0.307992 23 0.201367 23.041 0.122757 23.114C0.0441462 23.1871 0 23.2861 0 23.3894V24.6787C0 24.7299 0.0108394 24.7805 0.0319049 24.8278C0.0529705 24.875 0.0838327 24.918 0.122757 24.9541C0.161681 24.9903 0.207908 25.019 0.258764 25.0386C0.309621 25.0581 0.364117 25.0682 0.419164 25.0682H0.943099V27H3.0569V25.0682H3.58084C3.69201 25.0682 3.79861 25.0272 3.87722 24.9541C3.95583 24.8811 4 24.782 4 24.6787V23.3894C4 23.2861 3.95583 23.1871 3.87722 23.1141C3.79861 23.041 3.69201 23 3.58084 23Z" fill="#E6E6E6"/>
<path opacity="0.2" d="M3 23C3 23.2652 2.89463 23.5196 2.7071 23.7071C2.51956 23.8946 2.26522 24 2 24C1.73478 24 1.48044 23.8946 1.2929 23.7071C1.10537 23.5196 1 23.2652 1 23" fill="black"/>
<path d="M110.162 70H103.838C103.616 70 103.403 70.0821 103.246 70.2281C103.088 70.3742 103 70.5723 103 70.7789V73.3575C103 73.5641 103.088 73.7622 103.246 73.9082C103.403 74.0543 103.616 74.1364 103.838 74.1364H104.886V78H109.114V74.1364H110.162C110.384 74.1364 110.597 74.0543 110.754 73.9082C110.912 73.7622 111 73.5641 111 73.3575V70.7789C111 70.5723 110.912 70.3742 110.754 70.2281C110.597 70.0821 110.384 70 110.162 70Z" fill="#E6E6E6"/>
<path d="M117.319 95.0371C113.446 89.4028 111.466 82.6943 111.663 75.8727C111.666 75.7153 111.615 75.5616 111.517 75.4376C111.42 75.3135 111.282 75.2269 111.128 75.1924V74H104.448V75.1759H104.356C104.266 75.176 104.177 75.1937 104.094 75.2281C104.011 75.2624 103.935 75.3127 103.872 75.3761C103.808 75.4394 103.758 75.5146 103.723 75.5973C103.689 75.68 103.671 75.7686 103.672 75.8581C103.672 75.8746 103.672 75.8912 103.673 75.9077C104.2 83.1999 102.423 89.7394 98.3428 95.5262C98.108 95.8587 97.9881 96.258 98.0009 96.6641L98.7313 119.123C98.7488 119.624 98.9603 120.099 99.3216 120.449C99.6829 120.799 100.166 120.996 100.67 121H115.778C116.288 120.996 116.776 120.794 117.139 120.437C117.501 120.081 117.709 119.597 117.718 119.09L118 97.2841C118.008 96.4838 117.771 95.6999 117.319 95.0371Z" fill="#C02F33"/>
<path opacity="0.2" d="M109 71C109 71.2652 108.842 71.5196 108.561 71.7071C108.279 71.8946 107.898 72 107.5 72C107.102 72 106.721 71.8946 106.439 71.7071C106.158 71.5196 106 71.2652 106 71" fill="black"/>
<path d="M114.637 103H101.363C101.166 103 100.972 103.041 100.794 103.119C100.615 103.198 100.456 103.313 100.329 103.456C100.201 103.599 100.106 103.766 100.052 103.947C99.9984 104.128 99.986 104.319 100.016 104.505L102.022 117H113.54L115.977 104.547C116.014 104.358 116.007 104.164 115.956 103.978C115.906 103.793 115.814 103.62 115.686 103.472C115.558 103.324 115.398 103.205 115.216 103.124C115.035 103.042 114.837 103 114.637 103Z" fill="white"/>
<path d="M93 122H55C57.6567 107.739 57.0455 90.5191 55 72H93C91.0089 90.5192 90.4139 107.739 93 122Z" fill="#C02F33"/>
<path d="M74 105C78.9706 105 83 100.747 83 95.5C83 90.2533 78.9706 86 74 86C69.0294 86 65 90.2533 65 95.5C65 100.747 69.0294 105 74 105Z" fill="white"/>
<path d="M171 125H51.0703L25.674 5.3678H4V0H30.0404L55.4367 119.632H171V125Z" fill="#3F3D56"/>
<path d="M68.5 147C74.8513 147 80 141.851 80 135.5C80 129.149 74.8513 124 68.5 124C62.1487 124 57 129.149 57 135.5C57 141.851 62.1487 147 68.5 147Z" fill="#3F3D56"/>
<path d="M154.5 147C160.851 147 166 141.851 166 135.5C166 129.149 160.851 124 154.5 124C148.149 124 143 129.149 143 135.5C143 141.851 148.149 147 154.5 147Z" fill="#3F3D56"/>
<path d="M168.167 123H51.572L31 21H187.472C188.271 21.0001 189.059 21.1737 189.785 21.5089C190.51 21.844 191.154 22.3328 191.673 22.9416C192.192 23.5504 192.573 24.2648 192.791 25.0355C193.008 25.8063 193.057 26.6152 192.933 27.4066L173.627 118.315C173.428 119.623 172.767 120.816 171.764 121.675C170.762 122.535 169.485 123.005 168.167 123ZM52.8381 121.457H168.167C169.118 121.461 170.04 121.122 170.763 120.501C171.486 119.88 171.963 119.019 172.107 118.075L191.413 27.167C191.503 26.5958 191.468 26.012 191.311 25.4556C191.154 24.8993 190.879 24.3836 190.504 23.9442C190.13 23.5048 189.665 23.152 189.141 22.9101C188.618 22.6682 188.048 22.543 187.472 22.5431H32.8669L52.8381 121.457Z" fill="#3F3D56"/>
<path d="M74.4818 122L61 22.2489L62.5182 22L76 121.751L74.4818 122Z" fill="#3F3D56"/>
<path d="M149.456 121L148 120.756L160.544 22L162 22.2438L149.456 121Z" fill="#3F3D56"/>
<path d="M114 22H112V122H114V22Z" fill="#3F3D56"/>
<path d="M39.2547 48.7441L39.251 50.2793L187.861 50.6391L187.865 49.1039L39.2547 48.7441Z" fill="#3F3D56"/>
<path d="M177.378 96.1695L46.8203 97.062L46.8308 98.5973L177.388 97.7048L177.378 96.1695Z" fill="#3F3D56"/>
</svg>
