<svg width="180" height="54" viewBox="0 0 180 54" fill="none" xmlns="http://www.w3.org/2000/svg">
<line y1="30.5" x2="180" y2="30.5" stroke="#E32526"/>
<g filter="url(#filter0_d)">
<circle cx="134" cy="31" r="15" fill="white"/>
</g>
<path d="M139.642 37H130.87V35.2598L135.01 30.8477C135.578 30.2266 135.997 29.6846 136.267 29.2217C136.542 28.7588 136.68 28.3193 136.68 27.9033C136.68 27.335 136.536 26.8896 136.249 26.5674C135.962 26.2393 135.552 26.0752 135.019 26.0752C134.444 26.0752 133.99 26.2744 133.656 26.6729C133.328 27.0654 133.164 27.584 133.164 28.2285H130.615C130.615 27.4492 130.8 26.7373 131.169 26.0928C131.544 25.4482 132.071 24.9443 132.751 24.5811C133.431 24.2119 134.201 24.0273 135.062 24.0273C136.381 24.0273 137.403 24.3438 138.13 24.9766C138.862 25.6094 139.229 26.5029 139.229 27.6572C139.229 28.29 139.064 28.9346 138.736 29.5908C138.408 30.2471 137.846 31.0117 137.049 31.8848L134.14 34.9521H139.642V37Z" fill="#E32526"/>
<g filter="url(#filter1_d)">
<circle cx="45" cy="31" r="15" fill="#E32526"/>
</g>
<path d="M47.04 37H44.5V27.209L41.4678 28.1494V26.084L46.7676 24.1855H47.04V37Z" fill="white"/>
<path d="M26.7627 5.2168V8H25.8252V0.890625H28.4473C29.2253 0.890625 29.834 1.08919 30.2734 1.48633C30.7161 1.88346 30.9375 2.40918 30.9375 3.06348C30.9375 3.75358 30.721 4.28581 30.2881 4.66016C29.8584 5.03125 29.2415 5.2168 28.4375 5.2168H26.7627ZM26.7627 4.4502H28.4473C28.9486 4.4502 29.3327 4.33301 29.5996 4.09863C29.8665 3.861 30 3.51921 30 3.07324C30 2.65007 29.8665 2.31152 29.5996 2.05762C29.3327 1.80371 28.9665 1.67188 28.501 1.66211H26.7627V4.4502ZM34.1162 8.09766C33.4001 8.09766 32.8174 7.86328 32.3682 7.39453C31.9189 6.92253 31.6943 6.29264 31.6943 5.50488V5.33887C31.6943 4.81478 31.7936 4.34766 31.9922 3.9375C32.194 3.52409 32.474 3.20182 32.832 2.9707C33.1934 2.73633 33.584 2.61914 34.0039 2.61914C34.6908 2.61914 35.2246 2.84538 35.6055 3.29785C35.9863 3.75033 36.1768 4.39811 36.1768 5.24121V5.61719H32.5977C32.6107 6.13802 32.762 6.55957 33.0518 6.88184C33.3447 7.20085 33.7158 7.36035 34.165 7.36035C34.484 7.36035 34.7542 7.29525 34.9756 7.16504C35.1969 7.03483 35.3906 6.8623 35.5566 6.64746L36.1084 7.07715C35.6657 7.75749 35.0016 8.09766 34.1162 8.09766ZM34.0039 3.36133C33.6393 3.36133 33.3333 3.49479 33.0859 3.76172C32.8385 4.02539 32.6855 4.39648 32.627 4.875H35.2734V4.80664C35.2474 4.34766 35.1237 3.99284 34.9023 3.74219C34.681 3.48828 34.3815 3.36133 34.0039 3.36133ZM39.7803 3.52734C39.6436 3.50456 39.4954 3.49316 39.3359 3.49316C38.7435 3.49316 38.3415 3.74544 38.1299 4.25V8H37.2266V2.7168H38.1055L38.1201 3.32715C38.4163 2.85514 38.8363 2.61914 39.3799 2.61914C39.5557 2.61914 39.6891 2.64193 39.7803 2.6875V3.52734ZM43.6914 6.59863C43.6914 6.35449 43.5986 6.16569 43.4131 6.03223C43.2308 5.89551 42.9102 5.77832 42.4512 5.68066C41.9954 5.58301 41.6325 5.46582 41.3623 5.3291C41.0954 5.19238 40.8968 5.02962 40.7666 4.84082C40.6396 4.65202 40.5762 4.42741 40.5762 4.16699C40.5762 3.73405 40.7585 3.36784 41.123 3.06836C41.4909 2.76888 41.9596 2.61914 42.5293 2.61914C43.1283 2.61914 43.6133 2.77376 43.9844 3.08301C44.3587 3.39225 44.5459 3.78776 44.5459 4.26953H43.6377C43.6377 4.02214 43.5319 3.80892 43.3203 3.62988C43.112 3.45085 42.8483 3.36133 42.5293 3.36133C42.2005 3.36133 41.9434 3.43294 41.7578 3.57617C41.5723 3.7194 41.4795 3.90658 41.4795 4.1377C41.4795 4.35579 41.5658 4.52018 41.7383 4.63086C41.9108 4.74154 42.2217 4.84733 42.6709 4.94824C43.1234 5.04915 43.4896 5.1696 43.7695 5.30957C44.0495 5.44954 44.2562 5.61882 44.3896 5.81738C44.5264 6.0127 44.5947 6.25195 44.5947 6.53516C44.5947 7.00716 44.4059 7.38639 44.0283 7.67285C43.6507 7.95605 43.1608 8.09766 42.5586 8.09766C42.1354 8.09766 41.7611 8.02279 41.4355 7.87305C41.11 7.72331 40.8545 7.51497 40.6689 7.24805C40.4867 6.97786 40.3955 6.68652 40.3955 6.37402H41.2988C41.3151 6.67676 41.4355 6.91764 41.6602 7.09668C41.888 7.27246 42.1875 7.36035 42.5586 7.36035C42.9004 7.36035 43.1738 7.29199 43.3789 7.15527C43.5872 7.0153 43.6914 6.82975 43.6914 6.59863ZM45.5322 5.30957C45.5322 4.79199 45.6331 4.3265 45.835 3.91309C46.04 3.49967 46.3232 3.18066 46.6846 2.95605C47.0492 2.73145 47.4642 2.61914 47.9297 2.61914C48.6491 2.61914 49.2301 2.86816 49.6729 3.36621C50.1188 3.86426 50.3418 4.52669 50.3418 5.35352V5.41699C50.3418 5.93132 50.2425 6.39355 50.0439 6.80371C49.8486 7.21061 49.5671 7.52799 49.1992 7.75586C48.8346 7.98372 48.4147 8.09766 47.9395 8.09766C47.2233 8.09766 46.6423 7.84863 46.1963 7.35059C45.7536 6.85254 45.5322 6.19336 45.5322 5.37305V5.30957ZM46.4404 5.41699C46.4404 6.00293 46.5755 6.47331 46.8457 6.82812C47.1191 7.18294 47.4837 7.36035 47.9395 7.36035C48.3984 7.36035 48.763 7.18132 49.0332 6.82324C49.3034 6.46191 49.4385 5.95736 49.4385 5.30957C49.4385 4.73014 49.3001 4.26139 49.0234 3.90332C48.75 3.54199 48.3854 3.36133 47.9297 3.36133C47.4837 3.36133 47.124 3.53874 46.8506 3.89355C46.5771 4.24837 46.4404 4.75618 46.4404 5.41699ZM52.3291 2.7168L52.3584 3.38086C52.762 2.87305 53.2894 2.61914 53.9404 2.61914C55.057 2.61914 55.6201 3.24902 55.6299 4.50879V8H54.7266V4.50391C54.7233 4.12305 54.6354 3.84147 54.4629 3.65918C54.2936 3.47689 54.0283 3.38574 53.667 3.38574C53.374 3.38574 53.1169 3.46387 52.8955 3.62012C52.6742 3.77637 52.5016 3.98145 52.3779 4.23535V8H51.4746V2.7168H52.3291ZM60.2539 8C60.2018 7.89583 60.1595 7.71029 60.127 7.44336C59.707 7.87956 59.2057 8.09766 58.623 8.09766C58.1022 8.09766 57.6742 7.95117 57.3389 7.6582C57.0068 7.36198 56.8408 6.98763 56.8408 6.53516C56.8408 5.98503 57.0492 5.55859 57.4658 5.25586C57.8857 4.94987 58.4749 4.79688 59.2334 4.79688H60.1123V4.38184C60.1123 4.06608 60.0179 3.81543 59.8291 3.62988C59.6403 3.44108 59.362 3.34668 58.9941 3.34668C58.6719 3.34668 58.4017 3.42806 58.1836 3.59082C57.9655 3.75358 57.8564 3.95052 57.8564 4.18164H56.9482C56.9482 3.91797 57.041 3.66406 57.2266 3.41992C57.4154 3.17253 57.6693 2.97721 57.9883 2.83398C58.3105 2.69076 58.6637 2.61914 59.0479 2.61914C59.6566 2.61914 60.1335 2.77214 60.4785 3.07812C60.8236 3.38086 61.0026 3.79915 61.0156 4.33301V6.76465C61.0156 7.24967 61.0775 7.63542 61.2012 7.92188V8H60.2539ZM58.7549 7.31152C59.0381 7.31152 59.3066 7.23828 59.5605 7.0918C59.8145 6.94531 59.9984 6.75488 60.1123 6.52051V5.43652H59.4043C58.2975 5.43652 57.7441 5.76042 57.7441 6.4082C57.7441 6.69141 57.8385 6.91276 58.0273 7.07227C58.2161 7.23177 58.4587 7.31152 58.7549 7.31152ZM63.4131 8H62.5098V0.5H63.4131V8Z" fill="#E32526"/>
<path d="M121.844 5.71387H118.763V8.2334H122.342V9H117.825V1.89062H122.293V2.66211H118.763V4.94727H121.844V5.71387ZM126.443 7.59863C126.443 7.35449 126.351 7.16569 126.165 7.03223C125.983 6.89551 125.662 6.77832 125.203 6.68066C124.747 6.58301 124.384 6.46582 124.114 6.3291C123.847 6.19238 123.649 6.02962 123.519 5.84082C123.392 5.65202 123.328 5.42741 123.328 5.16699C123.328 4.73405 123.51 4.36784 123.875 4.06836C124.243 3.76888 124.712 3.61914 125.281 3.61914C125.88 3.61914 126.365 3.77376 126.736 4.08301C127.111 4.39225 127.298 4.78776 127.298 5.26953H126.39C126.39 5.02214 126.284 4.80892 126.072 4.62988C125.864 4.45085 125.6 4.36133 125.281 4.36133C124.952 4.36133 124.695 4.43294 124.51 4.57617C124.324 4.7194 124.231 4.90658 124.231 5.1377C124.231 5.35579 124.318 5.52018 124.49 5.63086C124.663 5.74154 124.974 5.84733 125.423 5.94824C125.875 6.04915 126.242 6.1696 126.521 6.30957C126.801 6.44954 127.008 6.61882 127.142 6.81738C127.278 7.0127 127.347 7.25195 127.347 7.53516C127.347 8.00716 127.158 8.38639 126.78 8.67285C126.403 8.95605 125.913 9.09766 125.311 9.09766C124.887 9.09766 124.513 9.02279 124.188 8.87305C123.862 8.72331 123.606 8.51497 123.421 8.24805C123.239 7.97786 123.147 7.68652 123.147 7.37402H124.051C124.067 7.67676 124.188 7.91764 124.412 8.09668C124.64 8.27246 124.939 8.36035 125.311 8.36035C125.652 8.36035 125.926 8.29199 126.131 8.15527C126.339 8.0153 126.443 7.82975 126.443 7.59863ZM130.643 8.36035C130.965 8.36035 131.246 8.2627 131.487 8.06738C131.728 7.87207 131.862 7.62793 131.888 7.33496H132.742C132.726 7.6377 132.622 7.92578 132.43 8.19922C132.238 8.47266 131.98 8.69076 131.658 8.85352C131.339 9.01628 131.001 9.09766 130.643 9.09766C129.923 9.09766 129.35 8.8584 128.924 8.37988C128.501 7.89811 128.289 7.24056 128.289 6.40723V6.25586C128.289 5.74154 128.383 5.28418 128.572 4.88379C128.761 4.4834 129.031 4.17253 129.383 3.95117C129.738 3.72982 130.156 3.61914 130.638 3.61914C131.23 3.61914 131.722 3.79655 132.112 4.15137C132.506 4.50618 132.716 4.9668 132.742 5.5332H131.888C131.862 5.19141 131.731 4.91146 131.497 4.69336C131.266 4.47201 130.979 4.36133 130.638 4.36133C130.179 4.36133 129.822 4.52734 129.568 4.85938C129.318 5.18815 129.192 5.66504 129.192 6.29004V6.46094C129.192 7.06966 129.318 7.53841 129.568 7.86719C129.819 8.19596 130.177 8.36035 130.643 8.36035ZM133.519 6.30957C133.519 5.79199 133.619 5.3265 133.821 4.91309C134.026 4.49967 134.31 4.18066 134.671 3.95605C135.035 3.73145 135.451 3.61914 135.916 3.61914C136.635 3.61914 137.216 3.86816 137.659 4.36621C138.105 4.86426 138.328 5.52669 138.328 6.35352V6.41699C138.328 6.93132 138.229 7.39355 138.03 7.80371C137.835 8.21061 137.553 8.52799 137.186 8.75586C136.821 8.98372 136.401 9.09766 135.926 9.09766C135.21 9.09766 134.629 8.84863 134.183 8.35059C133.74 7.85254 133.519 7.19336 133.519 6.37305V6.30957ZM134.427 6.41699C134.427 7.00293 134.562 7.47331 134.832 7.82812C135.105 8.18294 135.47 8.36035 135.926 8.36035C136.385 8.36035 136.749 8.18132 137.02 7.82324C137.29 7.46191 137.425 6.95736 137.425 6.30957C137.425 5.73014 137.286 5.26139 137.01 4.90332C136.736 4.54199 136.372 4.36133 135.916 4.36133C135.47 4.36133 135.11 4.53874 134.837 4.89355C134.563 5.24837 134.427 5.75618 134.427 6.41699ZM140.442 9H139.539V1.5H140.442V9ZM145.154 9C145.102 8.89583 145.06 8.71029 145.027 8.44336C144.607 8.87956 144.106 9.09766 143.523 9.09766C143.003 9.09766 142.575 8.95117 142.239 8.6582C141.907 8.36198 141.741 7.98763 141.741 7.53516C141.741 6.98503 141.95 6.55859 142.366 6.25586C142.786 5.94987 143.375 5.79688 144.134 5.79688H145.013V5.38184C145.013 5.06608 144.918 4.81543 144.729 4.62988C144.541 4.44108 144.262 4.34668 143.895 4.34668C143.572 4.34668 143.302 4.42806 143.084 4.59082C142.866 4.75358 142.757 4.95052 142.757 5.18164H141.849C141.849 4.91797 141.941 4.66406 142.127 4.41992C142.316 4.17253 142.57 3.97721 142.889 3.83398C143.211 3.69076 143.564 3.61914 143.948 3.61914C144.557 3.61914 145.034 3.77214 145.379 4.07812C145.724 4.38086 145.903 4.79915 145.916 5.33301V7.76465C145.916 8.24967 145.978 8.63542 146.102 8.92188V9H145.154ZM143.655 8.31152C143.938 8.31152 144.207 8.23828 144.461 8.0918C144.715 7.94531 144.899 7.75488 145.013 7.52051V6.43652H144.305C143.198 6.43652 142.645 6.76042 142.645 7.4082C142.645 7.69141 142.739 7.91276 142.928 8.07227C143.117 8.23177 143.359 8.31152 143.655 8.31152ZM149.886 4.52734C149.749 4.50456 149.601 4.49316 149.441 4.49316C148.849 4.49316 148.447 4.74544 148.235 5.25V9H147.332V3.7168H148.211L148.226 4.32715C148.522 3.85514 148.942 3.61914 149.485 3.61914C149.661 3.61914 149.795 3.64193 149.886 3.6875V4.52734Z" fill="#E32526"/>
<defs>
<filter id="filter0_d" x="115" y="16" width="38" height="38" filterUnits="userSpaceOnUse" color-interpolation-filters="sRGB">
<feFlood flood-opacity="0" result="BackgroundImageFix"/>
<feColorMatrix in="SourceAlpha" type="matrix" values="0 0 0 0 0 0 0 0 0 0 0 0 0 0 0 0 0 0 127 0"/>
<feOffset dy="4"/>
<feGaussianBlur stdDeviation="2"/>
<feColorMatrix type="matrix" values="0 0 0 0 0 0 0 0 0 0 0 0 0 0 0 0 0 0 0.25 0"/>
<feBlend mode="normal" in2="BackgroundImageFix" result="effect1_dropShadow"/>
<feBlend mode="normal" in="SourceGraphic" in2="effect1_dropShadow" result="shape"/>
</filter>
<filter id="filter1_d" x="26" y="16" width="38" height="38" filterUnits="userSpaceOnUse" color-interpolation-filters="sRGB">
<feFlood flood-opacity="0" result="BackgroundImageFix"/>
<feColorMatrix in="SourceAlpha" type="matrix" values="0 0 0 0 0 0 0 0 0 0 0 0 0 0 0 0 0 0 127 0"/>
<feOffset dy="4"/>
<feGaussianBlur stdDeviation="2"/>
<feColorMatrix type="matrix" values="0 0 0 0 0 0 0 0 0 0 0 0 0 0 0 0 0 0 0.25 0"/>
<feBlend mode="normal" in2="BackgroundImageFix" result="effect1_dropShadow"/>
<feBlend mode="normal" in="SourceGraphic" in2="effect1_dropShadow" result="shape"/>
</filter>
</defs>
</svg>
